<?xml version="1.0" encoding="UTF-8" standalone="no"?>
<svg
   xmlns:dc="http://purl.org/dc/elements/1.1/"
   xmlns:cc="http://creativecommons.org/ns#"
   xmlns:rdf="http://www.w3.org/1999/02/22-rdf-syntax-ns#"
   xmlns:svg="http://www.w3.org/2000/svg"
   xmlns="http://www.w3.org/2000/svg"
   xmlns:sodipodi="http://sodipodi.sourceforge.net/DTD/sodipodi-0.dtd"
   xmlns:inkscape="http://www.inkscape.org/namespaces/inkscape"
   id="artwork"
   viewBox="0 0 300 626"
   version="1.1"
   sodipodi:docname="eyes_thinking.svg"
   inkscape:version="1.0.1 (3bc2e813f5, 2020-09-07)">
  <metadata
     id="metadata110">
    <rdf:RDF>
      <cc:Work
         rdf:about="">
        <dc:format>image/svg+xml</dc:format>
        <dc:type
           rdf:resource="http://purl.org/dc/dcmitype/StillImage" />
      </cc:Work>
    </rdf:RDF>
  </metadata>
  <sodipodi:namedview
     pagecolor="#ffffff"
     bordercolor="#666666"
     borderopacity="1"
     objecttolerance="10"
     gridtolerance="10"
     guidetolerance="10"
     inkscape:pageopacity="0"
     inkscape:pageshadow="2"
     inkscape:window-width="1920"
     inkscape:window-height="1017"
     id="namedview108"
     showgrid="false"
     inkscape:zoom="1.3578275"
     inkscape:cx="150"
     inkscape:cy="313"
     inkscape:window-x="-8"
     inkscape:window-y="-8"
     inkscape:window-maximized="1"
     inkscape:current-layer="artwork" />
  <defs
     id="defs7">
    <style
       id="style2">.cls-1,.cls-7{fill:none;}.cls-2{clip-path:url(#clip-path);}.cls-3{fill:#d9cec5;}.cls-4{fill:#9b7942;}.cls-5,.cls-6{fill:#2d2d2d;}.cls-6{fill-rule:evenodd;}.cls-7{stroke:#2d2d2d;stroke-miterlimit:10;}.cls-8{fill:#f2eae4;}.cls-9{fill:#462e13;}</style>
    <clipPath
       id="clip-path">
      <rect
         class="cls-1"
         x="-134.32"
         y="-132.01"
         width="569.59"
         height="759.82"
         rx="12"
         id="rect4" />
    </clipPath>
  </defs>
  <g
     class="cls-2"
     clip-path="url(#clip-path)"
     id="g105"
     transform="matrix(0.99537472,0,0,0.99264268,0.34911469,0.77263755)">
    <g
       id="eyes_thinking">
      <g
         id="white">
        <path
           class="cls-3"
           d="m 184.46,105.43 c 7.76,5.56 6.88,19.17 -2.44,21.77 -6.88,1.93 -14.22,1 -18.12,-6.42 -2.69,-5.13 0.26,-14.24 5.59,-16 5.67,-1.87 9.56,-3.23 14.97,0.65 z"
           id="path9" />
        <path
           class="cls-3"
           d="m 109.91,105.57 c -0.43,0.19 -0.51,2 -0.88,2.21 a 10.57,10.57 0 0 0 -4,5.24 c -1.68,4.45 -3.49,8.84 3.3,13.8 3.81,2.78 10.91,3 14.84,0.53 8.08,-5.07 9.92,-10.39 5.58,-15.24 -2.06,-2.3 -2.77,-5 -5.52,-5.76 -3.64,-1.07 -9.57,-2.51 -13.32,-0.78 z"
           id="path11" />
      </g>
      <g
         id="iris">
        <path
           class="cls-4"
           d="m 112.09,106.09 c 1.94,-0.23 4.73,0.5 5.39,2.85 1.09,3.88 -5,8.65 -8.6,7.61 a 3.91,3.91 0 0 1 -2.36,-3 c -0.96,-3.97 2.04,-7.05 5.57,-7.46 z"
           id="path14" />
        <path
           class="cls-4"
           d="m 172.11,104.3 c 1.95,-0.21 4.73,0.54 5.37,2.89 1.06,3.9 -5.08,8.62 -8.66,7.55 a 3.9,3.9 0 0 1 -2.33,-3 c -0.93,-4 2.09,-7.05 5.62,-7.44 z"
           id="path16" />
      </g>
      <g
         id="iris_outline">
        <path
           class="cls-5"
           d="m 113.21,115.08 a 30.64,30.64 0 0 1 -1.65,-4.17 2.69,2.69 0 0 1 -0.13,-0.6 31.61,31.61 0 0 1 1.78,4.77 z"
           id="path19" />
        <path
           class="cls-5"
           d="m 110,116.25 c 0.45,-1.54 0.82,-3.11 1.41,-4.6 a 16,16 0 0 1 -1.41,4.6 z"
           id="path21" />
        <path
           class="cls-5"
           d="m 107.28,115.33 a 31,31 0 0 1 3.62,-3.91 c -0.91,1.55 -2.5,2.61 -3.62,3.91 z"
           id="path23" />
        <path
           class="cls-5"
           d="m 106.25,110.41 c 1.57,0.35 3.32,-0.41 4.78,0.49 -1.51,-0.37 -3.31,0 -4.78,-0.49 z"
           id="path25" />
        <path
           class="cls-5"
           d="m 109.73,105.39 a 20.59,20.59 0 0 1 1.28,4 c 0,0.15 0.15,0.48 0,0.61 -0.61,-1.46 -0.79,-3.17 -1.32,-4.62 z"
           id="path27" />
        <path
           class="cls-5"
           d="m 116.84,111.23 c -1,-0.41 -2.08,0.07 -3.11,-0.1 -0.28,0 -0.88,-0.07 -1,-0.26 0,0 0,0 0,0 v 0 c 0,0 0,-0.06 0,-0.05 0.68,0.07 1.4,0 2.08,0.1 0.68,0.1 1.56,-0.16 2.06,0.28 z"
           id="path29" />
        <path
           class="cls-5"
           d="m 115.38,106.47 a 27.14,27.14 0 0 1 -2.72,3.68 19.14,19.14 0 0 1 2.72,-3.68 z"
           id="path31" />
        <path
           class="cls-5"
           d="m 109.31,107.24 c -4.27,2.67 -3,11.35 2.9,8.43 2.87,-1.34 6.11,-5 3.79,-8 a 6.26,6.26 0 0 0 -3.06,-1.69 v -0.1 c 5.06,0.19 6.16,5.2 2.79,8.48 -2.68,2.81 -8.25,4.41 -9.34,-0.66 a 6.31,6.31 0 0 1 2.85,-6.5 v 0.08 z"
           id="path33" />
        <path
           class="cls-5"
           d="m 173.16,113.3 a 29.8,29.8 0 0 1 -1.61,-4.18 2.32,2.32 0 0 1 -0.13,-0.6 33.15,33.15 0 0 1 1.74,4.78 z"
           id="path35" />
        <path
           class="cls-5"
           d="m 169.89,114.45 c 0.47,-1.55 0.85,-3.1 1.45,-4.6 a 16.32,16.32 0 0 1 -1.45,4.6 z"
           id="path37" />
        <path
           class="cls-5"
           d="m 167.23,113.51 a 30.71,30.71 0 0 1 3.65,-3.88 c -0.92,1.54 -2.53,2.58 -3.65,3.88 z"
           id="path39" />
        <path
           class="cls-5"
           d="m 166.24,108.58 c 1.56,0.36 3.32,-0.39 4.77,0.52 -1.5,-0.37 -3.3,-0.06 -4.77,-0.52 z"
           id="path41" />
        <path
           class="cls-5"
           d="m 169.75,103.58 a 20.14,20.14 0 0 1 1.25,4 c 0,0.16 0.16,0.49 0,0.61 -0.6,-1.46 -0.76,-3.17 -1.29,-4.63 z"
           id="path43" />
        <path
           class="cls-5"
           d="m 176.82,109.48 c -1,-0.42 -2.08,0 -3.11,-0.12 -0.27,0 -0.88,-0.08 -1,-0.27 0,0 0,0 0,0 v 0 c 0,0 0,0 0,0 0.67,0.08 1.39,0 2.08,0.11 0.69,0.11 1.55,-0.14 2,0.3 z"
           id="path45" />
        <path
           class="cls-5"
           d="m 175.4,104.71 a 26.41,26.41 0 0 1 -2.75,3.65 19.09,19.09 0 0 1 2.75,-3.65 z"
           id="path47" />
        <path
           class="cls-5"
           d="m 169.32,105.43 c -4.29,2.64 -3.11,11.32 2.84,8.46 2.88,-1.33 6.15,-5 3.85,-8 a 6.15,6.15 0 0 0 -3,-1.72 v -0.1 c 5.06,0.23 6.12,5.24 2.73,8.5 -2.71,2.79 -8.29,4.35 -9.34,-0.73 a 6.33,6.33 0 0 1 2.9,-6.48 v 0.08 z"
           id="path49" />
      </g>
      <g
         id="pupil">
        <path
           class="cls-6"
           d="m 110.88,110.5 1.63,-0.87 a 2,2 0 0 1 -1.11,2.24 1.45,1.45 0 0 1 -2.15,-0.5 2,2 0 0 1 1.11,-2.24 2.25,2.25 0 0 1 0.84,-0.25 z"
           id="path52" />
        <path
           class="cls-6"
           d="m 170.87,108.7 1.64,-0.86 a 2,2 0 0 1 -1.14,2.24 1.45,1.45 0 0 1 -2.14,-0.52 2,2 0 0 1 1.13,-2.23 2,2 0 0 1 0.84,-0.24 z"
           id="path54" />
        <path
           class="cls-6"
           d="m 110.88,110.5 1.63,-0.87 a 2,2 0 0 1 -1.11,2.24 1.45,1.45 0 0 1 -2.15,-0.5 2,2 0 0 1 1.11,-2.24 2.25,2.25 0 0 1 0.84,-0.25 z"
           id="path56" />
        <path
           class="cls-6"
           d="m 170.87,108.7 1.64,-0.86 a 2,2 0 0 1 -1.14,2.24 1.45,1.45 0 0 1 -2.14,-0.52 2,2 0 0 1 1.13,-2.23 2,2 0 0 1 0.84,-0.24 z"
           id="path58" />
        <path
           class="cls-7"
           d="m 110.88,110.5 1.63,-0.87 a 2,2 0 0 1 -1.11,2.24 1.45,1.45 0 0 1 -2.15,-0.5 2,2 0 0 1 1.11,-2.24 2.25,2.25 0 0 1 0.84,-0.25 z"
           id="path60" />
        <path
           class="cls-7"
           d="m 170.87,108.7 1.64,-0.86 a 2,2 0 0 1 -1.14,2.24 1.45,1.45 0 0 1 -2.14,-0.52 2,2 0 0 1 1.13,-2.23 2,2 0 0 1 0.84,-0.24 z"
           id="path62" />
      </g>
      <g
         id="spec">
        <ellipse
           class="cls-8"
           cx="113.63"
           cy="108.47"
           rx="1.6"
           ry="1.25"
           transform="rotate(-44.67,113.64062,108.46465)"
           id="ellipse65" />
        <ellipse
           class="cls-8"
           cx="173.63"
           cy="106.69"
           rx="1.6"
           ry="1.25"
           transform="rotate(-44.22,173.61755,106.68184)"
           id="ellipse67" />
      </g>
      <g
         id="outline">
        <path
           class="cls-5"
           d="m 160.33,117.43 a 15.8,15.8 0 0 0 2.7,6.65 21,21 0 0 0 2.34,2.72 16.9,16.9 0 0 0 1.32,1.21 c 0.23,0.2 0.46,0.39 0.7,0.57 0.24,0.18 0.5,0.52 0.68,0.3 v 0 c 0,0 0,0 0,0 0,0.19 -0.32,0.15 -0.44,0.07 l -0.41,-0.22 a 7.77,7.77 0 0 1 -0.78,-0.48 13.23,13.23 0 0 1 -1.46,-1.13 13.59,13.59 0 0 1 -2.32,-2.86 16.06,16.06 0 0 1 -2.42,-6.86 c 0,0 0,0 0,0 0,0 0.09,0.02 0.09,0.03 z"
           id="path70" />
        <path
           class="cls-5"
           d="m 99.1,121.79 a 16.46,16.46 0 0 1 1.07,-7.84 14.55,14.55 0 0 1 1.93,-3.52 12.41,12.41 0 0 1 2.9,-2.75 v 0 a 22.54,22.54 0 0 0 -2.53,3 20.57,20.57 0 0 0 -2,3.37 16.33,16.33 0 0 0 -1.39,7.69 v 0 c 0,0 0.03,0.07 0.02,0.05 z"
           id="path72" />
        <path
           class="cls-5"
           d="m 121.41,132 a 10,10 0 0 0 4.83,-1.86 13.75,13.75 0 0 0 3.55,-3.78 23.55,23.55 0 0 0 2.21,-4.71 c 0.62,-1.63 1.09,-3.32 1.61,-5 0,0 0,0 0,0 0,0 0,0 0,0 a 30.62,30.62 0 0 1 -1.19,5.16 18.52,18.52 0 0 1 -2.35,4.76 13.94,13.94 0 0 1 -3.76,3.74 10,10 0 0 1 -5,1.73 c 0,0 0,0 0,0 0,0 0.08,-0.04 0.1,-0.04 z"
           id="path74" />
        <path
           class="cls-5"
           d="m 186.76,103.59 a 28.48,28.48 0 0 1 5.24,7.11 19.59,19.59 0 0 1 1.69,4.13 11.06,11.06 0 0 1 0.36,4.43 c 0,0 0,0 0,0 a 16.41,16.41 0 0 0 -0.79,-4.3 29.32,29.32 0 0 0 -1.57,-4.08 28.39,28.39 0 0 0 -4.93,-7.26 z"
           id="path76" />
        <path
           class="cls-5"
           d="m 162.05,115.32 a 19.41,19.41 0 0 1 2.08,-5.11 26.93,26.93 0 0 1 3.21,-4.53 12.19,12.19 0 0 1 4.51,-3.51 10.66,10.66 0 0 1 1.44,-0.35 c 0.46,-0.08 0.92,-0.15 1.39,-0.21 a 17,17 0 0 1 2.86,-0.12 12.59,12.59 0 0 1 5.63,1.56 15.43,15.43 0 0 1 4.39,3.75 14.58,14.58 0 0 1 2.71,5.08 9.45,9.45 0 0 1 -0.12,5.65 h -0.2 a 11.32,11.32 0 0 0 -1,-5.13 16.25,16.25 0 0 0 -2.9,-4.25 20.54,20.54 0 0 0 -3.89,-3.35 10.71,10.71 0 0 0 -4.73,-1.67 14.21,14.21 0 0 0 -2.61,0 c -0.44,0 -0.88,0.07 -1.32,0.13 a 7.71,7.71 0 0 0 -1.24,0.22 11.53,11.53 0 0 0 -4.21,2.93 24,24 0 0 0 -5.8,9 z"
           id="path78" />
        <path
           class="cls-5"
           d="m 162.81,120.77 a 16.5,16.5 0 0 0 7,5.78 15.77,15.77 0 0 0 8.91,1.06 14.88,14.88 0 0 0 7.82,-4.14 16.65,16.65 0 0 0 4.32,-7.88 h 0.1 a 13.72,13.72 0 0 1 -12.11,12.79 16.15,16.15 0 0 1 -9.25,-1.4 16.64,16.64 0 0 1 -6.89,-6.17 z"
           id="path80" />
        <path
           class="cls-5"
           d="m 130.91,115.65 a 24.07,24.07 0 0 0 -7.16,-8.05 11.71,11.71 0 0 0 -4.64,-2.26 7.31,7.31 0 0 0 -1.26,0 c -0.45,0 -0.9,0 -1.34,0.07 a 14.87,14.87 0 0 0 -2.59,0.41 10.94,10.94 0 0 0 -4.47,2.35 20.66,20.66 0 0 0 -3.38,3.88 15.91,15.91 0 0 0 -2.26,4.65 11.17,11.17 0 0 0 -0.23,5.25 l -0.18,0.07 a 9.31,9.31 0 0 1 -1,-5.59 14.5,14.5 0 0 1 1.95,-5.45 15.62,15.62 0 0 1 3.83,-4.36 12.81,12.81 0 0 1 5.36,-2.37 16.54,16.54 0 0 1 2.86,-0.3 c 0.48,0 0.95,0 1.42,0 a 8.8,8.8 0 0 1 1.47,0.12 12.32,12.32 0 0 1 5,2.79 27.16,27.16 0 0 1 3.89,4 19.5,19.5 0 0 1 2.86,4.75 z"
           id="path82" />
        <path
           class="cls-5"
           d="m 103.64,121.68 a 16.62,16.62 0 0 0 7,5.78 15.68,15.68 0 0 0 8.91,1 15,15 0 0 0 7.83,-4.13 16.91,16.91 0 0 0 4.32,-7.88 h 0.1 a 13.72,13.72 0 0 1 -12.12,12.79 16.13,16.13 0 0 1 -9.24,-1.39 16.7,16.7 0 0 1 -6.9,-6.18 z"
           id="path84" />
        <path
           class="cls-5"
           d="m 191.78,125.9 a 10.14,10.14 0 0 0 -1,-0.82 c -0.17,-0.12 -0.39,-0.18 -0.48,-0.36 a 1.39,1.39 0 0 1 -0.17,-0.75 l 0.06,-0.07 a 1,1 0 0 1 0.79,0.09 c 0.22,0.11 0.3,0.36 0.41,0.57 a 4,4 0 0 1 0.46,1.29 z"
           id="path86" />
        <path
           class="cls-5"
           d="m 189.41,129 a 7.16,7.16 0 0 1 -1.78,-1 2.29,2.29 0 0 1 -0.76,-0.69 1.81,1.81 0 0 1 -0.25,-1.08 l 0.09,-0.06 a 2.56,2.56 0 0 1 0.93,0.5 3.62,3.62 0 0 1 0.56,0.77 14.45,14.45 0 0 0 1.27,1.48 z"
           id="path88" />
        <path
           class="cls-5"
           d="m 185.82,132.2 a 10.27,10.27 0 0 1 -1.62,-1.8 3.42,3.42 0 0 1 -0.63,-1.05 2.51,2.51 0 0 1 0,-1.28 h 0.1 a 3.38,3.38 0 0 1 0.84,0.91 5,5 0 0 1 0.42,1.07 21.39,21.39 0 0 0 1,2.12 z"
           id="path90" />
        <path
           class="cls-5"
           d="m 111.25,131.93 a 9.8,9.8 0 0 0 0.16,-1.27 1.2,1.2 0 0 1 0,-0.6 1.49,1.49 0 0 1 0.53,-0.55 h 0.1 a 1.06,1.06 0 0 1 0.35,0.72 1.25,1.25 0 0 1 -0.25,0.65 4.07,4.07 0 0 1 -0.84,1.09 z"
           id="path92" />
        <path
           class="cls-5"
           d="m 107.33,131.64 a 7,7 0 0 1 -0.12,-2 2.36,2.36 0 0 1 0.17,-1 1.88,1.88 0 0 1 0.77,-0.79 h 0.09 a 2.5,2.5 0 0 1 0.09,1.06 3.4,3.4 0 0 1 -0.34,0.88 15.62,15.62 0 0 0 -0.56,1.87 z"
           id="path94" />
        <path
           class="cls-5"
           d="m 102.74,130.34 a 9.54,9.54 0 0 1 0.63,-2.34 3.2,3.2 0 0 1 0.53,-1.1 2.53,2.53 0 0 1 1.06,-0.72 l 0.08,0.06 a 3.36,3.36 0 0 1 -0.3,1.21 5.33,5.33 0 0 1 -0.67,0.93 23.08,23.08 0 0 0 -1.24,2 z"
           id="path96" />
      </g>
      <g
         id="eyebrows">
        <path
           class="cls-9"
           d="m 155,95 a 17.7,17.7 0 0 1 5.37,-1.29 l 5.47,-0.94 c 7.48,-1 15.41,-2.86 22.81,0.23 a 11.71,11.71 0 0 1 6.4,6.31 c 0.25,1 1,1.82 0,3.07 a 1.82,1.82 0 0 1 -1.36,-1 c -2.13,-4.67 -6,-7 -11.1,-7.19 -7.33,-0.43 -14.53,1.71 -21.82,2.56 -1.87,0.21 -3.79,0.59 -5.75,-0.15 z"
           id="path99" />
        <path
           class="cls-9"
           d="M 132.61,99 A 7,7 0 0 1 130.07,97.78 28.26,28.26 0 0 0 123,94.33 c -7,-1.7 -13.89,-2.63 -19,3.49 -2.42,2.65 -4.1,6.27 -6.9,8.7 0.56,-1.68 1.45,-3.49 2.09,-5.23 3.24,-8.61 9.82,-12.77 19,-11 a 29.37,29.37 0 0 1 8.48,2.29 26.63,26.63 0 0 1 4.91,3.18 6.19,6.19 0 0 1 2,2.11 z"
           id="path101" />
      </g>
    </g>
  </g>
</svg>
