<svg id="artwork" xmlns="http://www.w3.org/2000/svg" xmlns:xlink="http://www.w3.org/1999/xlink" viewBox="0 0 300 626"><defs><style>.cls-1,.cls-7{fill:none;}.cls-2{clip-path:url(#clip-path);}.cls-3{fill:#d9cec5;}.cls-4{fill:#9b7942;}.cls-5,.cls-6{fill:#2d2d2d;}.cls-6{fill-rule:evenodd;}.cls-7{stroke:#2d2d2d;stroke-miterlimit:10;}.cls-8{fill:#f2eae4;}.cls-9{fill:#462e13;}</style><clipPath id="clip-path"><rect class="cls-1" x="-134.32" y="-132.01" width="569.59" height="759.82" rx="12"/></clipPath></defs><g class="cls-2"><g id="eyes_thinking"><g id="white"><path class="cls-3" d="M184.46,105.43c7.76,5.56,6.88,19.17-2.44,21.77-6.88,1.93-14.22,1-18.12-6.42-2.69-5.13.26-14.24,5.59-16C175.16,102.91,179.05,101.55,184.46,105.43Z"/><path class="cls-3" d="M109.91,105.57c-.43.19-.51,2-.88,2.21a10.57,10.57,0,0,0-4,5.24c-1.68,4.45-3.49,8.84,3.3,13.8,3.81,2.78,10.91,3,14.84.53,8.08-5.07,9.92-10.39,5.58-15.24-2.06-2.3-2.77-5-5.52-5.76C119.59,105.28,113.66,103.84,109.91,105.57Z"/></g><g id="iris"><path class="cls-4" d="M112.09,106.09c1.94-.23,4.73.5,5.39,2.85,1.09,3.88-5,8.65-8.6,7.61a3.91,3.91,0,0,1-2.36-3C105.56,109.58,108.56,106.5,112.09,106.09Z"/><path class="cls-4" d="M172.11,104.3c1.95-.21,4.73.54,5.37,2.89,1.06,3.9-5.08,8.62-8.66,7.55a3.9,3.9,0,0,1-2.33-3C165.56,107.74,168.58,104.69,172.11,104.3Z"/></g><g id="iris_outline"><path class="cls-5" d="M113.21,115.08a30.64,30.64,0,0,1-1.65-4.17,2.69,2.69,0,0,1-.13-.6,31.61,31.61,0,0,1,1.78,4.77Z"/><path class="cls-5" d="M110,116.25c.45-1.54.82-3.11,1.41-4.6a16,16,0,0,1-1.41,4.6Z"/><path class="cls-5" d="M107.28,115.33a31,31,0,0,1,3.62-3.91c-.91,1.55-2.5,2.61-3.62,3.91Z"/><path class="cls-5" d="M106.25,110.41c1.57.35,3.32-.41,4.78.49-1.51-.37-3.31,0-4.78-.49Z"/><path class="cls-5" d="M109.73,105.39a20.59,20.59,0,0,1,1.28,4c0,.15.15.48,0,.61-.61-1.46-.79-3.17-1.32-4.62Z"/><path class="cls-5" d="M116.84,111.23c-1-.41-2.08.07-3.11-.1-.28,0-.88-.07-1-.26,0,0,0,0,0,0h0s0-.06,0-.05c.68.07,1.4,0,2.08.1s1.56-.16,2.06.28Z"/><path class="cls-5" d="M115.38,106.47a27.14,27.14,0,0,1-2.72,3.68,19.14,19.14,0,0,1,2.72-3.68Z"/><path class="cls-5" d="M109.31,107.24c-4.27,2.67-3,11.35,2.9,8.43,2.87-1.34,6.11-5,3.79-8a6.26,6.26,0,0,0-3.06-1.69l0-.1c5.06.19,6.16,5.2,2.79,8.48-2.68,2.81-8.25,4.41-9.34-.66a6.31,6.31,0,0,1,2.85-6.5l0,.08Z"/><path class="cls-5" d="M173.16,113.3a29.8,29.8,0,0,1-1.61-4.18,2.32,2.32,0,0,1-.13-.6,33.15,33.15,0,0,1,1.74,4.78Z"/><path class="cls-5" d="M169.89,114.45c.47-1.55.85-3.1,1.45-4.6a16.32,16.32,0,0,1-1.45,4.6Z"/><path class="cls-5" d="M167.23,113.51a30.71,30.71,0,0,1,3.65-3.88c-.92,1.54-2.53,2.58-3.65,3.88Z"/><path class="cls-5" d="M166.24,108.58c1.56.36,3.32-.39,4.77.52-1.5-.37-3.3-.06-4.77-.52Z"/><path class="cls-5" d="M169.75,103.58a20.14,20.14,0,0,1,1.25,4c0,.16.16.49,0,.61-.6-1.46-.76-3.17-1.29-4.63Z"/><path class="cls-5" d="M176.82,109.48c-1-.42-2.08,0-3.11-.12-.27,0-.88-.08-1-.27,0,0,0,0,0,0h0s0,0,0,0c.67.08,1.39,0,2.08.11s1.55-.14,2,.3Z"/><path class="cls-5" d="M175.4,104.71a26.41,26.41,0,0,1-2.75,3.65,19.09,19.09,0,0,1,2.75-3.65Z"/><path class="cls-5" d="M169.32,105.43c-4.29,2.64-3.11,11.32,2.84,8.46,2.88-1.33,6.15-5,3.85-8a6.15,6.15,0,0,0-3-1.72l0-.1c5.06.23,6.12,5.24,2.73,8.5-2.71,2.79-8.29,4.35-9.34-.73a6.33,6.33,0,0,1,2.9-6.48l0,.08Z"/></g><g id="pupil"><path class="cls-6" d="M110.88,110.5l1.63-.87a2,2,0,0,1-1.11,2.24,1.45,1.45,0,0,1-2.15-.5,2,2,0,0,1,1.11-2.24,2.25,2.25,0,0,1,.84-.25Z"/><path class="cls-6" d="M170.87,108.7l1.64-.86a2,2,0,0,1-1.14,2.24,1.45,1.45,0,0,1-2.14-.52,2,2,0,0,1,1.13-2.23,2,2,0,0,1,.84-.24Z"/><path class="cls-6" d="M110.88,110.5l1.63-.87a2,2,0,0,1-1.11,2.24,1.45,1.45,0,0,1-2.15-.5,2,2,0,0,1,1.11-2.24,2.25,2.25,0,0,1,.84-.25Z"/><path class="cls-6" d="M170.87,108.7l1.64-.86a2,2,0,0,1-1.14,2.24,1.45,1.45,0,0,1-2.14-.52,2,2,0,0,1,1.13-2.23,2,2,0,0,1,.84-.24Z"/><path class="cls-7" d="M110.88,110.5l1.63-.87a2,2,0,0,1-1.11,2.24,1.45,1.45,0,0,1-2.15-.5,2,2,0,0,1,1.11-2.24,2.25,2.25,0,0,1,.84-.25Z"/><path class="cls-7" d="M170.87,108.7l1.64-.86a2,2,0,0,1-1.14,2.24,1.45,1.45,0,0,1-2.14-.52,2,2,0,0,1,1.13-2.23,2,2,0,0,1,.84-.24Z"/></g><g id="spec"><ellipse class="cls-8" cx="113.63" cy="108.47" rx="1.6" ry="1.25" transform="translate(-43.43 111.22) rotate(-44.67)"/><ellipse class="cls-8" cx="173.63" cy="106.69" rx="1.6" ry="1.25" transform="translate(-25.21 151.31) rotate(-44.22)"/></g><g id="outline"><path class="cls-5" d="M160.33,117.43a15.8,15.8,0,0,0,2.7,6.65,21,21,0,0,0,2.34,2.72,16.9,16.9,0,0,0,1.32,1.21c.23.2.46.39.7.57s.5.52.68.3h0s0,0,0,0c0,.19-.32.15-.44.07l-.41-.22a7.77,7.77,0,0,1-.78-.48,13.23,13.23,0,0,1-1.46-1.13,13.59,13.59,0,0,1-2.32-2.86,16.06,16.06,0,0,1-2.42-6.86s0,0,0,0S160.33,117.42,160.33,117.43Z"/><path class="cls-5" d="M99.1,121.79a16.46,16.46,0,0,1,1.07-7.84,14.55,14.55,0,0,1,1.93-3.52,12.41,12.41,0,0,1,2.9-2.75h0a0,0,0,0,1,0,0,22.54,22.54,0,0,0-2.53,3,20.57,20.57,0,0,0-2,3.37,16.33,16.33,0,0,0-1.39,7.69l0,0S99.11,121.81,99.1,121.79Z"/><path class="cls-5" d="M121.41,132a10,10,0,0,0,4.83-1.86,13.75,13.75,0,0,0,3.55-3.78,23.55,23.55,0,0,0,2.21-4.71c.62-1.63,1.09-3.32,1.61-5,0,0,0,0,0,0s0,0,0,0a30.62,30.62,0,0,1-1.19,5.16,18.52,18.52,0,0,1-2.35,4.76,13.94,13.94,0,0,1-3.76,3.74,10,10,0,0,1-5,1.73s0,0,0,0S121.39,132,121.41,132Z"/><path class="cls-5" d="M186.76,103.59A28.48,28.48,0,0,1,192,110.7a19.59,19.59,0,0,1,1.69,4.13,11.06,11.06,0,0,1,.36,4.43,0,0,0,0,1,0,0s0,0,0,0a16.41,16.41,0,0,0-.79-4.3,29.32,29.32,0,0,0-1.57-4.08,28.39,28.39,0,0,0-4.93-7.26,0,0,0,0,1,0,0A0,0,0,0,1,186.76,103.59Z"/><path class="cls-5" d="M162.05,115.32a19.41,19.41,0,0,1,2.08-5.11,26.93,26.93,0,0,1,3.21-4.53,12.19,12.19,0,0,1,4.51-3.51,10.66,10.66,0,0,1,1.44-.35c.46-.08.92-.15,1.39-.21a17,17,0,0,1,2.86-.12,12.59,12.59,0,0,1,5.63,1.56,15.43,15.43,0,0,1,4.39,3.75,14.58,14.58,0,0,1,2.71,5.08,9.45,9.45,0,0,1-.12,5.65l-.2,0a11.32,11.32,0,0,0-1-5.13,16.25,16.25,0,0,0-2.9-4.25,20.54,20.54,0,0,0-3.89-3.35,10.71,10.71,0,0,0-4.73-1.67,14.21,14.21,0,0,0-2.61,0c-.44,0-.88.07-1.32.13a7.71,7.71,0,0,0-1.24.22,11.53,11.53,0,0,0-4.21,2.93,24,24,0,0,0-5.8,9Z"/><path class="cls-5" d="M162.81,120.77a16.5,16.5,0,0,0,7,5.78,15.77,15.77,0,0,0,8.91,1.06,14.88,14.88,0,0,0,7.82-4.14,16.65,16.65,0,0,0,4.32-7.88l.1,0a13.72,13.72,0,0,1-12.11,12.79,16.15,16.15,0,0,1-9.25-1.4,16.64,16.64,0,0,1-6.89-6.17Z"/><path class="cls-5" d="M130.91,115.65a24.07,24.07,0,0,0-7.16-8.05,11.71,11.71,0,0,0-4.64-2.26,7.31,7.31,0,0,0-1.26,0c-.45,0-.9,0-1.34.07a14.87,14.87,0,0,0-2.59.41,10.94,10.94,0,0,0-4.47,2.35,20.66,20.66,0,0,0-3.38,3.88,15.91,15.91,0,0,0-2.26,4.65,11.17,11.17,0,0,0-.23,5.25l-.18.07a9.31,9.31,0,0,1-1-5.59,14.5,14.5,0,0,1,1.95-5.45,15.62,15.62,0,0,1,3.83-4.36,12.81,12.81,0,0,1,5.36-2.37,16.54,16.54,0,0,1,2.86-.3c.48,0,.95,0,1.42,0a8.8,8.8,0,0,1,1.47.12,12.32,12.32,0,0,1,5,2.79,27.16,27.16,0,0,1,3.89,4,19.5,19.5,0,0,1,2.86,4.75Z"/><path class="cls-5" d="M103.64,121.68a16.62,16.62,0,0,0,7,5.78,15.68,15.68,0,0,0,8.91,1,15,15,0,0,0,7.83-4.13,16.91,16.91,0,0,0,4.32-7.88h.1a13.72,13.72,0,0,1-12.12,12.79,16.13,16.13,0,0,1-9.24-1.39,16.7,16.7,0,0,1-6.9-6.18Z"/><path class="cls-5" d="M191.78,125.9a10.14,10.14,0,0,0-1-.82c-.17-.12-.39-.18-.48-.36a1.39,1.39,0,0,1-.17-.75l.06-.07a1,1,0,0,1,.79.09c.22.11.3.36.41.57a4,4,0,0,1,.46,1.29Z"/><path class="cls-5" d="M189.41,129a7.16,7.16,0,0,1-1.78-1,2.29,2.29,0,0,1-.76-.69,1.81,1.81,0,0,1-.25-1.08l.09-.06a2.56,2.56,0,0,1,.93.5,3.62,3.62,0,0,1,.56.77,14.45,14.45,0,0,0,1.27,1.48Z"/><path class="cls-5" d="M185.82,132.2a10.27,10.27,0,0,1-1.62-1.8,3.42,3.42,0,0,1-.63-1.05,2.51,2.51,0,0,1,0-1.28l.1,0a3.38,3.38,0,0,1,.84.91,5,5,0,0,1,.42,1.07,21.39,21.39,0,0,0,1,2.12Z"/><path class="cls-5" d="M111.25,131.93a9.8,9.8,0,0,0,.16-1.27,1.2,1.2,0,0,1,0-.6,1.49,1.49,0,0,1,.53-.55h.1a1.06,1.06,0,0,1,.35.72,1.25,1.25,0,0,1-.25.65,4.07,4.07,0,0,1-.84,1.09Z"/><path class="cls-5" d="M107.33,131.64a7,7,0,0,1-.12-2,2.36,2.36,0,0,1,.17-1,1.88,1.88,0,0,1,.77-.79l.09,0a2.5,2.5,0,0,1,.09,1.06,3.4,3.4,0,0,1-.34.88,15.62,15.62,0,0,0-.56,1.87Z"/><path class="cls-5" d="M102.74,130.34a9.54,9.54,0,0,1,.63-2.34,3.2,3.2,0,0,1,.53-1.1,2.53,2.53,0,0,1,1.06-.72l.08.06a3.36,3.36,0,0,1-.3,1.21,5.33,5.33,0,0,1-.67.93,23.08,23.08,0,0,0-1.24,2Z"/></g><g id="eyebrows"><path class="cls-9" d="M155,95a17.7,17.7,0,0,1,5.37-1.29l5.47-.94c7.48-1,15.41-2.86,22.81.23a11.71,11.71,0,0,1,6.4,6.31c.25,1,1,1.82,0,3.07a1.82,1.82,0,0,1-1.36-1c-2.13-4.67-6-7-11.1-7.19-7.33-.43-14.53,1.71-21.82,2.56-1.87.21-3.79.59-5.75-.15L155,95Z"/><path class="cls-9" d="M132.61,99a7,7,0,0,1-2.54-1.22A28.26,28.26,0,0,0,123,94.33c-7-1.7-13.89-2.63-19,3.49-2.42,2.65-4.1,6.27-6.9,8.7.56-1.68,1.45-3.49,2.09-5.23,3.24-8.61,9.82-12.77,19-11a29.37,29.37,0,0,1,8.48,2.29,26.63,26.63,0,0,1,4.91,3.18,6.19,6.19,0,0,1,2,2.11L132.61,99Z"/></g></g></g></svg>