<?xml version="1.0" encoding="UTF-8" standalone="no"?>
<svg
   xmlns:dc="http://purl.org/dc/elements/1.1/"
   xmlns:cc="http://creativecommons.org/ns#"
   xmlns:rdf="http://www.w3.org/1999/02/22-rdf-syntax-ns#"
   xmlns:svg="http://www.w3.org/2000/svg"
   xmlns="http://www.w3.org/2000/svg"
   xmlns:sodipodi="http://sodipodi.sourceforge.net/DTD/sodipodi-0.dtd"
   xmlns:inkscape="http://www.inkscape.org/namespaces/inkscape"
   id="artwork"
   viewBox="0 0 300 626"
   version="1.1"
   sodipodi:docname="mouth_neutral.svg"
   inkscape:version="1.0.1 (3bc2e813f5, 2020-09-07)">
  <metadata
     id="metadata23">
    <rdf:RDF>
      <cc:Work
         rdf:about="">
        <dc:format>image/svg+xml</dc:format>
        <dc:type
           rdf:resource="http://purl.org/dc/dcmitype/StillImage" />
      </cc:Work>
    </rdf:RDF>
  </metadata>
  <sodipodi:namedview
     pagecolor="#ffffff"
     bordercolor="#666666"
     borderopacity="1"
     objecttolerance="10"
     gridtolerance="10"
     guidetolerance="10"
     inkscape:pageopacity="0"
     inkscape:pageshadow="2"
     inkscape:window-width="1920"
     inkscape:window-height="1017"
     id="namedview21"
     showgrid="false"
     inkscape:zoom="1.3578275"
     inkscape:cx="150"
     inkscape:cy="257.21336"
     inkscape:window-x="-8"
     inkscape:window-y="-8"
     inkscape:window-maximized="1"
     inkscape:current-layer="artwork" />
  <defs
     id="defs7">
    <style
       id="style2">.cls-1{fill:none;}.cls-2{clip-path:url(#clip-path);}.cls-3{fill:#f6d5b6;fill-rule:evenodd;}.cls-4{fill:#2d2d2d;}</style>
    <clipPath
       id="clip-path">
      <rect
         class="cls-1"
         x="-134.32"
         y="-132.01"
         width="569.59"
         height="759.82"
         rx="12"
         id="rect4" />
    </clipPath>
  </defs>
  <g
     class="cls-2"
     clip-path="url(#clip-path)"
     id="g18"
     transform="matrix(0.9991119,0,0,0.9305345,-0.39675837,11.428917)">
    <g
       id="mouth_neutral">
      <path
         class="cls-3"
         d="m 134.21,171.57 c 0.83,1.41 4,6.56 6.29,6.76 2.29,0.2 6.92,-0.35 9.81,-0.15 2.89,0.2 10.58,-0.52 12.64,-1.52 2.06,-1 3.36,-3.58 4.19,-5.19 0.83,-1.61 -4.57,-5.58 -7.64,-5.87 -3.07,-0.29 -6.65,2.17 -10,1.75 -3.35,-0.42 -5.66,-2.44 -8.14,-1.43 a 25,25 0 0 0 -6.2,3.82 3.34,3.34 0 0 0 -0.95,1.83 z"
         id="path9" />
      <path
         class="cls-4"
         d="m 172.53,170.87 c -1.76,0.79 -3.75,0.26 -5.62,0.57 -2.91,-0.24 -5.25,1.16 -8.35,1.23 -4.41,0.14 -9.73,-0.34 -14.13,-0.19 -5.47,0 -11.47,-1.09 -16.92,-1.11 v -0.09 c 5.61,-0.74 11.33,0.05 16.94,0.21 3.27,0 8,0.37 11.3,0.55 a 22.17,22.17 0 0 0 5.58,-0.24 c 1.84,-0.29 3.74,-1 5.6,-0.66 1.77,-0.22 3.87,0.32 5.56,-0.35 l 0.06,0.08 z"
         id="path11" />
      <path
         class="cls-4"
         d="m 133.64,171 c 4.29,-3.33 6.38,-7.3 12.54,-5 a 10.17,10.17 0 0 0 4.44,1 c 5.59,-1.31 8.5,-4.11 13.5,0.93 l 3.43,3.3 -0.06,0.08 c -4.07,-2.61 -6.75,-6.78 -12.12,-4.73 a 28.13,28.13 0 0 1 -4.68,1.22 10.81,10.81 0 0 1 -4.69,-1.2 c -2.11,-0.85 -4.64,-1.14 -6.64,0.09 -1.7,1 -4.24,3.71 -5.68,4.27 z"
         id="path13" />
      <path
         class="cls-4"
         d="m 165.25,174.76 c -0.43,1.2 -2.11,1.77 -3.14,2.37 -3.57,2.07 -7.88,1.47 -11.73,1.35 -2.69,-0.09 -5.24,0.83 -8,0.42 a 12.18,12.18 0 0 1 -5.59,-2.39 3.19,3.19 0 0 1 -0.87,-1.85 h 0.1 a 3.8,3.8 0 0 0 2.75,2.36 19.51,19.51 0 0 0 3.75,0.91 c 2.55,0.27 5.23,-0.44 7.83,-0.23 4,0.26 7.91,1 11.59,-0.82 1.07,-0.55 2.62,-1 3.17,-2.1 z"
         id="path15" />
    </g>
  </g>
</svg>
