<?xml version="1.0" encoding="UTF-8" standalone="no"?>
<svg
   xmlns:dc="http://purl.org/dc/elements/1.1/"
   xmlns:cc="http://creativecommons.org/ns#"
   xmlns:rdf="http://www.w3.org/1999/02/22-rdf-syntax-ns#"
   xmlns:svg="http://www.w3.org/2000/svg"
   xmlns="http://www.w3.org/2000/svg"
   xmlns:sodipodi="http://sodipodi.sourceforge.net/DTD/sodipodi-0.dtd"
   xmlns:inkscape="http://www.inkscape.org/namespaces/inkscape"
   id="artwork"
   viewBox="0 0 300 626"
   version="1.1"
   sodipodi:docname="young_new_mum.svg"
   inkscape:version="1.0.1 (3bc2e813f5, 2020-09-07)">
  <metadata
     id="metadata259">
    <rdf:RDF>
      <cc:Work
         rdf:about="">
        <dc:format>image/svg+xml</dc:format>
        <dc:type
           rdf:resource="http://purl.org/dc/dcmitype/StillImage" />
      </cc:Work>
    </rdf:RDF>
  </metadata>
  <sodipodi:namedview
     pagecolor="#ffffff"
     bordercolor="#666666"
     borderopacity="1"
     objecttolerance="10"
     gridtolerance="10"
     guidetolerance="10"
     inkscape:pageopacity="0"
     inkscape:pageshadow="2"
     inkscape:window-width="1920"
     inkscape:window-height="1017"
     id="namedview257"
     showgrid="false"
     inkscape:zoom="1.3578275"
     inkscape:cx="150"
     inkscape:cy="313"
     inkscape:window-x="-8"
     inkscape:window-y="-8"
     inkscape:window-maximized="1"
     inkscape:current-layer="artwork" />
  <defs
     id="defs7">
    <style
       id="style2">.cls-1{fill:none;}.cls-2{clip-path:url(#clip-path);}.cls-3{fill:#d9c3b0;}.cls-4{fill:#f2dfce;}.cls-5{fill:#825813;}.cls-6{fill:#bfa68f;}.cls-7{opacity:0.7;}.cls-8{fill:#e1cfc0;}.cls-9{fill:#f5d6c0;}.cls-10{fill:#2d2d2d;}.cls-11{fill:#d6a190;}.cls-12{fill:#d7d7ce;}.cls-13{fill:#f29178;}.cls-14{fill:#f18974;}.cls-15{fill:#959c70;}.cls-16{fill:#facd78;fill-rule:evenodd;}.cls-17{fill:#998466;}.cls-18{fill:#9c906d;}.cls-19{fill:#e9ae8c;}.cls-20{fill:#879d7e;}</style>
    <clipPath
       id="clip-path">
      <rect
         class="cls-1"
         width="300"
         height="626"
         rx="12"
         id="rect4" />
    </clipPath>
  </defs>
  <g
     class="cls-2"
     clip-path="url(#clip-path)"
     id="g254">
    <g
       id="head_neutral">
      <g
         id="head_neutral_colour">
        <path
           class="cls-3"
           d="M214.61,129.37a22.27,22.27,0,0,1,0-2.45c-.06-2.5-.28-5-.37-7.48-.38-10.65-2.35-21-4.24-31.48-1.31-7.25-3.76-12.71-6.42-19.62a38.36,38.36,0,0,0-6.44-10c-2.54-2.94-3.21-6.82-6.47-9-3.48-2.36-7.71-4.22-11-6.85-1.6-1.28-2.82-3.43-2.74-1.8.21,4.44-.19,14.64-.33,19.09a62.84,62.84,0,0,1-2.09,13.49,64.42,64.42,0,0,1-6.25,15.32,62.65,62.65,0,0,1-4.92,7.55c-1.71,2.15-4,3.73-6,5.56-1.79,1.63-3.18,3.5-5.59,4.26a3.21,3.21,0,0,1-1.91.13c-.61-.2-2.13-2.08-2-2.72a39.62,39.62,0,0,1-1.58,5,22.37,22.37,0,0,1-2.49,4.93,4.2,4.2,0,0,1-1.23,1.22c-.64.36-.82,1.07-1.49.77-.1.43-.68.19-1.09.34-.77-.87-.1-2.46.07-3.56.46-3.1,1.55-6.06,2.26-9.11a211.21,211.21,0,0,0,5.63-41.42c.06-2,.25-4.52.16-6.48-.07-1.59.68-2.86.34-4.42a.82.82,0,0,0-.16-.37.61.61,0,0,0-.82,0,2.11,2.11,0,0,0-.49.76c-1.53,3.27-4.67,5-7.9,6.26a46.07,46.07,0,0,0-7.5,3.5,15.44,15.44,0,0,0-3.23,2.31c-.92,1-1.11,2.43-1.68,3.61-1.07,2.22-3.37-7.24-5.76-6.6-7,1.88-3.26-1.69-9.92,3.41-4.24,3.25-8.47,4.05-13,6.82-2.29,1.39-4.6,3.79-6.89,5.18-2,1.23-5.18,10.23-7.46,10.83-.72.19-4.14,26.95-4.11,27.86.19,6.91,1.1,13.8,1.56,20.69.7,10.65,6.17,18.85,12.9,26.51a108.84,108.84,0,0,0,16,14.71c5.07,3.72,15.88,8.94,16,11.36.12,2.21.87,4.33,1,6.53a240.08,240.08,0,0,1-1.12,30.57c-.45,5.09-1,10.18-1.4,15.27-.36,4-.33,8.49-1.63,12.35-.88,2.58-11.55,5.19-8.19,6.83,9,4.38,20.39,4.14,30.19,4.22a176.85,176.85,0,0,0,19.39-.88c5.42-.54,13-.38,17.46-3.85,5.32-4.09,3.08-13.69-3.94-14.17-2.15-.15-8-1-8-1s-.33-2.34-.41-3.74c0-10.72-1.85-19.2-2.5-29.9-.34-5.63-.83-19.11-.83-19.11s8.81-5.92,10.75-7a67.18,67.18,0,0,0,15.52-12.75c7.28-8.13,6.87-9.31,12.7-18.58C209.67,144.67,214.88,131.39,214.61,129.37Z"
           id="path9" />
        <path
           class="cls-4"
           d="M230.81,99.13h.11V118h-.12Q230.8,108.54,230.81,99.13Z"
           id="path11" />
        <path
           class="cls-4"
           d="M71.94,102.47c-.31,12.3,8,24.4,5.16,36.72a1.4,1.4,0,0,1-1,1.16,6.54,6.54,0,0,1-2.14.11c-4.55-.15-11.39,3.88-14.44.27-5.9-7-3-18.49-3.84-26.07a44.63,44.63,0,0,1-.4-6.73,22.56,22.56,0,0,1,3.58-10.86c.83-1.36,2.58-2.35,5.2-2.88a6.67,6.67,0,0,1,5.28.9c1.85,1.41,3,2.92,2.81,4.68A24.54,24.54,0,0,0,71.94,102.47Z"
           id="path13" />
        <path
           class="cls-4"
           d="M72.17,102.94c-.31,12.3,8,24.4,5.16,36.72a1.39,1.39,0,0,1-1,1.16,6.54,6.54,0,0,1-2.14.11c-4.56-.15-11.4,3.88-14.45.27-5.89-7-3-18.49-3.83-26.07a43.36,43.36,0,0,1-.4-6.73A22.35,22.35,0,0,1,59.1,97.54c.82-1.36,2.58-2.35,5.2-2.88a6.65,6.65,0,0,1,5.27.9c1.85,1.41,3.06,2.92,2.82,4.68C72.27,101.14,72.2,102,72.17,102.94Z"
           id="path15" />
        <path
           class="cls-4"
           d="M230.6,100.17a39.07,39.07,0,0,1,.31,6.76L230.75,119a4.13,4.13,0,0,1-.16,1.31,6.63,6.63,0,0,1-.51,1c-1.15,2.16-.75,5.43-.92,7.78l-.63,8.66a3.78,3.78,0,0,1-4.24,3c-2.22-.54-2.29-4.38-2.48-6L220,119.25l-.34-2.84c-.27-2.23-.54-4.45-.78-6.68q-.57-5.36-.93-10.73c-.15-2.33-.26-4.81,1-6.91,1.5-2.43,4.83-1.76,6.94-.26a11.79,11.79,0,0,1,4.44,7A13.15,13.15,0,0,1,230.6,100.17Z"
           id="path17" />
        <path
           class="cls-4"
           d="M157.47,66.63a27,27,0,0,1,.71-5.06,1.76,1.76,0,0,1,.19,1.46c-.25,1.4-.52,2.8-.78,4.19C157.39,67.06,157.5,66.83,157.47,66.63Z"
           id="path19" />
        <path
           class="cls-4"
           d="M157.47,66.63c0,.2-.08.43.12.59a13.34,13.34,0,0,1-.48,2.17h0A14.19,14.19,0,0,1,157.47,66.63Z"
           id="path21" />
        <path
           class="cls-4"
           d="M157.11,69.39V70c-.14-.31-.16-.47,0-.61Z"
           id="path23" />
        <path
           class="cls-5"
           d="M76,272.13C74.16,261.49,68.16,101,69.14,87.56c-.06-11,.1-30.91,2.12-47C72.51,30.71,79.5,25,86.54,19.38c17.18-13.73,38.88-14.5,46.61-14.5A46,46,0,0,1,146.85,7s2.06-5.84,7.06-6.46c2.09-.26,6.75.42,14.15,2.73s23.28,7.8,27.31,11.44c1.81,1.63,9.95,5.62,13.38,13.94,3.29,8,5.88,25,7.17,36.35,2.34,20.6,4.34,50.82,5.06,73.53s4.59,74.88,5,82.32,2.8,51.4,3.31,53.95S201.11,263.56,196,262c-3-.91-10.05-14-15.05-16.8-2.81-1.59-11.33-1.19-11.33-1.19a80.24,80.24,0,0,1-1-11.42c.17-3.89-2.55-24.47-2.9-27.62s-.42-14.54-.42-14.54,18.36-11.83,20-13.44c6.73-4.9,16-18,17.63-20.58s9.75-19.88,10.91-24.66c1.11-4.57-.64-9.78-1.19-15.75s-1.89-22.81-4.15-30.46c-1.95-6.64-4.12-19-9.41-25.69-4.69-5.94-15.16-13.81-21-16.21-1.41-.58-1.25.27-1,1.78,1.43,9.62-1.81,31.58-6.24,40.55-5.53,11.19-13.18,18.27-16.42,21.44s-4.79,3.33-4.79,3.33L148,103.38a57.89,57.89,0,0,1-4.29,10.12c-1.94,3.34-4.59,5.62-5.5,5,0,0,8.8-35.42,8.8-44.93,0-8.29,1.09-22.12,1.09-22.12s-6.08,7.35-8.91,8.38-8.58,3.38-8.58,3.38-17.24,22.3-24.44,29.56-25.59,15.85-25.59,15.85-.61,8.28-.48,12.53-.22,23,6.21,30.5c8.42,9.82,23,24.06,27.36,26.79s11.4,7.3,14.39,8.91c1.55.83.71,67.46.71,67.46s-20.38,1.72-25.19,3.62C97.94,260.66,76,272.13,76,272.13Z"
           id="path25" />
      </g>
      <g
         id="head_neutral_shading_dark">
        <path
           class="cls-6"
           d="M147.59,62.65c.34-4.24.45-11,.45-11-5.5,8.38-17.6,11.55-19.35,11.74-.26.63-.53,1.26-.81,1.88-1.3,4.9-6.7,10.63-9.37,15,7.77-6.08,15.55-8.32,20.17-10.73C143.68,66.91,145.27,64.32,147.59,62.65Z"
           id="path28" />
        <path
           class="cls-6"
           d="M80,104.82a79.41,79.41,0,0,0,4.12-7.27c1.63-3,4.59-6,6.59-9.18,1.75-2.78,3.11-4.13,5.38-9.32,1.64-3.76,4.46-8.49,4.18-8.39-10.86,3.83-17.49,15.82-19.21,23A55.68,55.68,0,0,0,80,104.82Z"
           id="path30" />
        <path
           class="cls-6"
           d="M92.26,147.27c-7.28-13.36-3.29-28.15-2.55-43-3.24,1.64-7.24,3.36-9.26,4.15-.5,16.62-1.8,36,7.49,45.43,8.3,12.24,14.12,16.47,30.35,27.59C109.37,174.3,98.92,159.5,92.26,147.27Z"
           id="path32" />
        <path
           class="cls-6"
           d="M141.24,193.06s-9.35-4.19-15.79-6.92l1,.5c.67,4.89,2,34.29.84,42.23-.43,3-.79,17-.79,17s-9.09-1.06-10.55.69c-2.6,3.1-11.19,17.29-11.19,17.29a202.49,202.49,0,0,0,21.08-.6c5.64-12.7,3.73-39.55,6.24-56.79C133.62,195.74,141.24,193.06,141.24,193.06Z"
           id="path34" />
        <path
           class="cls-6"
           d="M63.71,103.41c-1.29,7-1.37,14.15-1.29,21.25,0,3.74-.55,10.53,1.41,13.67,9.72-2.67,5-21.34,5-28.1,0-3.35.2-6.86-1.24-9.88-.25-.52-.63-1.07-1.2-1.1a1.5,1.5,0,0,0-1.15.65,7.29,7.29,0,0,0-1.51,3.48Z"
           id="path36" />
        <path
           class="cls-6"
           d="M222.17,100c6.08.86,5,14.83,4.86,18.81-.14,5,.57,19.19-4.08,22.47a3.5,3.5,0,0,1-.7-2.12c-.44-4.38-1.94-14.43-2.29-18.58-.39-4.63-1.29-9.23-1-13.9.09-1.63,0-5.2,1.68-6.25A2.32,2.32,0,0,1,222.17,100Z"
           id="path38" />
      </g>
      <g
         id="head_neutral_shading_light"
         class="cls-7">
        <path
           class="cls-8"
           d="M221.86,96.43a17.12,17.12,0,0,1,6.89,11c.39,3-4.22,32.86-.46,33.48,3.13.51,3.15-9.06,3.21-11.5.36-14.11,2.1-29.83-3.55-35.48a10.59,10.59,0,0,0-9.2-2.79C216.07,91.88,220.79,95.68,221.86,96.43Z"
           id="path41" />
        <path
           class="cls-8"
           d="M185.86,57.84c2.37,5,4.21,8.09,7.06,14.12,9,19.06,21.28,45.43,13.43,65.16-6.61,16.6-18.35,32.29-18.35,32.29s-29.39,25.06-20,19.5,16.73-9.26,25-20.52,18.75-23.49,20.58-37-1.72-24.12-3.22-35.83-5-23-10.43-31.46S184.54,45.67,177.3,44.08c-.38-.09.47,2.26,4.86,6.35"
           id="path43" />
        <path
           class="cls-8"
           d="M158.92,196.77c.42,15.7-1.94,40.18-2.27,44.81-.4,5.66,1.35,19.53,1.35,19.53s19.75-10,23.65-14.71c2.28-2.75-11.88-2.37-11.88-2.37s-.81-7.59-1.94-14.65-.53-10.5-1.05-19.26-1-21.21-1-21.21Z"
           id="path45" />
        <path
           class="cls-9"
           d="M63.22,98.26c-2.67,5.84-1.49,21.88-2.19,26.92s-.13,19.26-1.36,12.87-1.55-20.67-1.67-26.6A115.22,115.22,0,0,1,58.8,98s.7-2.92,2.39-2.81S63.22,98.26,63.22,98.26Z"
           id="path47" />
      </g>
      <g
         id="head_neutral_outline">
        <path
           class="cls-10"
           d="M88.21,155.39c-.2,32.81,2,66,1.73,98.8,0,.07-.1.07-.1,0-1.57-32.67-2.35-66.42-1.63-98.81Z"
           id="path50" />
        <path
           class="cls-10"
           d="M106.61,174c1.61,26.16,3.08,52.34,3.63,78.55a.05.05,0,0,1-.1,0c-2.36-26-2.45-52.76-3.53-78.55Z"
           id="path52" />
        <path
           class="cls-10"
           d="M186.38,176.86c.81,20.68,2.75,49.67,2.53,70.08a.05.05,0,0,1-.1,0c-1.59-20.12-2.06-49.93-2.43-70.08Z"
           id="path54" />
        <path
           class="cls-10"
           d="M201.16,160.14c1.43,29.42,3.25,59,.58,88.41,0,.06-.11.06-.1,0,.85-29.38.42-59.34-.48-88.41Z"
           id="path56" />
        <path
           class="cls-10"
           d="M211.13,140.78a540.49,540.49,0,0,1,4.07,62.68c.08,10.47-.23,20.95-.77,31.41s-1.25,21.06-4.64,31c0,.06-.12,0-.1,0,2.9-10.08,3.39-20.6,3.79-31,.93-20.91,1.39-41.85.11-62.75-.49-10.36-1.73-21.26-2.46-31.3Z"
           id="path58" />
        <path
           class="cls-10"
           d="M206.61,75.58c12.19,59.13,18,120.08,15.88,180.48-.05,0-.49,12.17-.64,12.13s.23-12.14.19-12.15A864.5,864.5,0,0,0,206.61,75.58Z"
           id="path60" />
        <path
           class="cls-10"
           d="M74.09,111c1.08-.39,3.53-1.32,4.55-1.69s3.51-1.52,4.44-1.94,3.37-1.69,4.34-2.17l4.21-2.39,4.08-2.61,4-2.81A101.22,101.22,0,0,0,109.41,89c1.32-1.23,3.2-3.34,4.45-4.66s3-3.53,4.08-5c1.43-1.82,3.36-4.66,4.64-6.58.57-.94,1.92-3.18,2.51-4.13.82-1.56,2.26-4.09,3-5.7,3.35-6.72,5.54-14.14,9.76-20.44a29.66,29.66,0,0,1,4.2-5s.12,0,.07.07c-6,6.36-8.35,14.94-11.75,22.81a91.69,91.69,0,0,1-20.46,29.06c-1.67,1.65-4.27,3.9-6.06,5.4s-4.56,3.54-6.52,4.83c-1.48,1.07-3.91,2.49-5.48,3.47s-4.09,2.31-5.72,3-4.3,2-5.91,2.66c-.72.32-2.27.92-3,1.16l-3.06,1.09c-.06,0-.09-.08,0-.1Z"
           id="path62" />
        <path
           class="cls-10"
           d="M138.7,19.42C110,32.65,105.79,67.74,89.3,91.56c-5.49,8.17-11.14,16.88-14.4,25.9a62.91,62.91,0,0,1,5.79-13.72c2.4-4.36,5.14-8.52,7.77-12.72,5.5-8.25,9.82-17.15,13.9-26.2,7.85-17.56,17.66-37.89,36.34-45.4Z"
           id="path64" />
        <path
           class="cls-10"
           d="M148.67,50.7a24.58,24.58,0,0,1-14.83,11.63,30.69,30.69,0,0,0-6,1.88.05.05,0,0,1,0-.09c3.38-2.72,7.93-2.91,11.61-5a25.19,25.19,0,0,0,9.2-8.44s.12,0,.09.05Z"
           id="path66" />
        <path
           class="cls-10"
           d="M148,50.26a231.91,231.91,0,0,1-9.36,68.25l-.45-.41c5.76-2.49,7.74-9.09,9.33-14.68a.4.4,0,0,1,.77,0l1.79,7.14-.64-.27A46.45,46.45,0,0,0,163.57,97c11.33-16.22,15.21-36.94,13-56.37,3.14,19.43-.84,40.65-12.22,57a46.31,46.31,0,0,1-14.54,13.46.45.45,0,0,1-.6-.15.56.56,0,0,1,0-.12l-1.73-7.16h.78c-1.26,4.4-2.71,9.05-6,12.45-.5.65-4.44,3.72-4.33,2.24,6.72-21.93,9.83-45.43,10-68.06Z"
           id="path68" />
        <path
           class="cls-10"
           d="M158.13,63.43c-1.69,14.25-5.53,28.68-13.39,40.83,0,0-.12,0-.09-.05,3-6.53,5.89-13.09,8.3-19.87a140.61,140.61,0,0,0,5.18-20.91Z"
           id="path70" />
        <path
           class="cls-10"
           d="M177.92,43.64c15.82,5.72,28.75,21,29.61,38.15,0,.06-.09.07-.09,0-2.8-16.82-13.88-31.73-29.52-38.16Z"
           id="path72" />
        <path
           class="cls-10"
           d="M168.07,20.13c10.05,1.53,18.74,7.86,25.54,15.14C207.34,50.37,212.94,71,214.3,91a251.24,251.24,0,0,1,0,30.18c-.4-20-.18-40.39-6.5-59.57-6.09-18.56-20-37.37-39.78-41.47Z"
           id="path74" />
        <path
           class="cls-10"
           d="M75.9,274c-1.52-26.9-4.48-80.9-5.91-107.79-1.5-29.19-2.2-58.57,1.23-87.66.49-4.47,1.12-8.93,1.85-13.37l1.16-6.65c-10,61.56,0,152.8,1.67,215.47Z"
           id="path76" />
        <path
           class="cls-10"
           d="M217.27,91.09a11.08,11.08,0,0,1,13.89,6.71c.89,2.77.61,5.68.57,8.46l-.23,8.43c-.23,7-.16,14.06-.81,21.09-.28,2.09-1.1,4.57-3.21,5.53-1.86.93-5.27.17-5.23-2.24.44,2.17,3.23,2.64,5,1.72,3.06-1.9,2.63-6.11,2.77-9.29.22-8.12.75-17.1,1.08-25.26.1-2.8.4-5.64-.4-8.29-1.68-5.57-8.16-8.4-13.41-6.86Z"
           id="path78" />
        <path
           class="cls-10"
           d="M70.65,93.85a10.79,10.79,0,0,0-13.38,6.77c-.8,2.65-.5,5.49-.4,8.29.33,8.17.86,17.13,1.08,25.26.14,3.18-.29,7.4,2.77,9.29,1.76.92,4.53.45,5-1.72,0,2.42-3.37,3.17-5.23,2.24-2.11-1-2.92-3.44-3.21-5.53-.8-9.6-.67-19.86-1-29.52,0-2.78-.32-5.68.57-8.46,1.71-5.5,9-8.92,13.86-6.62Z"
           id="path80" />
        <path
           class="cls-10"
           d="M80.48,108.87c-.61,11.35-.65,23,1.69,34.14,1.12,4.47,4,8.17,6.58,11.87,4,5.56,8.21,11,13.55,15.33A105.13,105.13,0,0,0,113.53,178c7.76,4.77,15.42,9.91,23.91,13.27,6.29,2.16,13.24,4.4,19.76,1.9a62.42,62.42,0,0,0,6.3-2.61c4.35-1.47,8.08-4,11.78-6.72s7.41-5.35,10.94-8.23c10.51-8.71,18.11-20.66,23.57-33.09a111,111,0,0,0,4.65-12.94,83.88,83.88,0,0,1-4.23,13.12c-5.36,12.62-12.8,24.74-23.35,33.69-3.57,2.9-7.26,5.63-11,8.26s-7.55,5.34-12,6.81c-4.11,1.87-8.54,3.82-13.29,3.75s-9.07-1.68-13.45-3.2c-8.55-3.44-16.18-8.62-24-13.46a104.48,104.48,0,0,1-11.25-7.92c-5.35-4.38-9.6-9.89-13.54-15.52-2.61-3.74-5.46-7.52-6.55-12-1.53-6.71-1.69-13.65-1.88-20.5,0-4.48-.11-9.58.51-13.72Z"
           id="path82" />
        <path
           class="cls-10"
           d="M126.7,13.43C103,26.49,89.5,52.53,83.85,78.18c-2,8.67-2.72,17.68-3.8,26.47A157,157,0,0,1,82.87,78c5.69-25.63,20-52.32,43.83-64.55Z"
           id="path84" />
        <path
           class="cls-10"
           d="M100.73,70.57c-14.62,4.16-19.27,20.54-20.62,34,0,0-.1,0-.1,0-.71-13.72,6.35-30.93,20.72-34Z"
           id="path86" />
        <path
           class="cls-10"
           d="M79.58,108.63c-1,18.36-3.25,38.46-1.19,56.71,2.68,31.47,3.35,63.1,3.09,94.67,0,.06-.1.06-.1,0-.52-24.82-1.37-50.89-2.49-75.72-.46-12.63-2.22-25.19-1.94-37.85.13-6.33.68-12.62,1.13-18.92.1,0,1.24-19.22,1.5-18.89Z"
           id="path88" />
        <path
           class="cls-10"
           d="M152.12,125.69c.08,2.35-.11,4.68-.07,7-.36,2.46,1.42,4.31,3.11,5.82s3.75,3,4.7,5.24c1.15,2.24.71,5.3-1.74,6.48a18.47,18.47,0,0,1-6.79,2.26c-2.45.2-4.54-1.53-6.74-2-1.06-.2-2.24-.15-3.47-.4-2.93-.44-3.31-3.74-2.81-6.13.2-1.26,2.17-2.17,2.86-.84,0,.06-.06.1-.09.05-.7-1-2.22-.18-2.3.9-.2,1.95.07,4.89,2.52,5.12,1.07.19,2.25.07,3.49.3,2.35.44,4.14,2.18,6.52,2.1a17.45,17.45,0,0,0,6.45-2c2.19-1,2.54-3.58,1.58-5.61s-2.72-3.6-4.42-5.2c-1.23-1.22-2.62-2.56-3-4.33-.25-2.92.16-5.85.08-8.75,0-.07.1-.09.1,0Z"
           id="path90" />
        <path
           class="cls-10"
           d="M167.69,28.68c-5.89-9.41-12.86-20-24.37-22.65-6.7-1.44-13.66-.85-20.44-.38A63.08,63.08,0,0,0,85.69,21.1c-13.81,11.24-15,18.69-15.17,35.8-.56,22.86-.48,45.73.42,68.57.1,4.58.46,9.24.52,13.77-.47-4.51-.66-9.18-1-13.75-1.25-22.84-1.64-45.74-1-68.61.28-17.33,1.65-25,15.7-36.34a63.64,63.64,0,0,1,37.6-15.38c6.84-.43,13.83-1,20.57.53,11.43,2.71,18.93,13.67,24.29,23Z"
           id="path92" />
        <path
           class="cls-10"
           d="M146.9,9.29a8.22,8.22,0,0,1,5-8.38c3.35-1.3,6.92.09,10.29.62a117.83,117.83,0,0,1,19.84,6.1c6.39,2.68,12.76,5.6,18.3,9.85s10.1,10.52,10.2,17.59c-.93-6.89-5.24-12.78-10.8-16.8C188.57,10.32,175.46,5.17,162.14,2c-3.28-.57-6.81-2-10.08-.83A8,8,0,0,0,147,9.27c0,.07-.09.08-.09,0Z"
           id="path94" />
        <path
           class="cls-10"
           d="M229.27,274.76c-1.48-23.26-8.5-133.91-9.83-154.56-1.63-25.73-3-51.55-7.5-77-.83-5.09-1.88-10.15-3-15.19,0-.06.09-.09.1,0,5,20.06,7.51,40.65,9.28,61.22,3,41.6,8.58,142.87,10.92,185.53Z"
           id="path96" />
        <path
           class="cls-10"
           d="M173.47,252.39c5.14.64,9.73,3.31,14.2,5.74s9.12,4.63,13.83,6.62c9.46,3.92,19.12,7.32,28.56,11.3a0,0,0,0,1,0,.09,231.5,231.5,0,0,1-28.85-10.66,151.14,151.14,0,0,1-13.76-6.91c-4.41-2.55-8.86-5.31-14-6.08-.06,0-.05-.11,0-.1Z"
           id="path98" />
      </g>
    </g>
    <g
       id="torso_armscrossed">
      <g
         id="torso_crossed_colour">
        <path
           class="cls-11"
           d="M277.82,458.58c-.56-8.22-1.32-16.43-2.14-24.65q-2.79-27.58-7-55c-2-12.78-3.87-25.6-5.91-38.38,0,0,0-.07-.05-.12-.28-1.43-.53-2.86-.79-4.29a.69.69,0,0,1-1-.47c-2-8.94-3.61-17.95-5.17-27a.76.76,0,0,1-.39-.43c-2.21-6-3-11.42-4.65-17.58-1.15-4.33-2.26-9.56-4.15-13.62-1.69-3.61-3.55-7.68-6.91-10.05-2.17-1.53-4.72-2.4-7.08-3.58-3.92-2-7.9-3.81-11.84-5.74-2.91-1.42-10.13-3.81-12.44-4.56a1.34,1.34,0,0,0-1.29.26,108.39,108.39,0,0,1-20.55,13.32c-10.16,5.16-31.46,8.42-35.31,7.36-8.89-2.43-41-2.27-50.18-9.46-2.26-1.79-5.43-8.28-6.69-11a1.36,1.36,0,0,0-1.78-.67c-1.56.69-4.18,1.85-5.27,2.31-7.73,3.32-15.83,6.86-22.64,11.87-.59.44-7.09,10.55-7.38,11.26a183.47,183.47,0,0,0-8.27,22C41.4,323.94,34.51,354.05,29,378c-6,25.76-10.09,44.14-16.71,70.56-2.61,10.38-4.77,22-7.49,32.32C2.6,489.13.93,498.93,2.06,507.5s4.88,15.77,15.63,16.2c2.52.1,16.54-3.29,31.53-8.17C59.38,512.22,70,508.4,78,505.45l-.08.31c3.78-1.69,7.51-3.47,11.36-5A.6.6,0,0,1,90,501l.09,0c.46,0,.8.34.81.95.08,5.56-.75,10.5-1.17,15.83s-1.58,14.13-2.65,19.43c-.85,4.19-1.48,8.42-2.51,12.57a48.45,48.45,0,0,1-1.74,5.78,11.45,11.45,0,0,1-1.18,3.51A18.79,18.79,0,0,1,78.22,564a9.12,9.12,0,0,1-4,2c-1.41.41-3.07.39-4.31,1.27-1.05.74,0,2.93.87,3.75,1.06,1.06.6,1.2-.32,2.21a20.54,20.54,0,0,1-3.94,3.45,9,9,0,0,0-1.82,1.66c-1,1.2,0,2.14.17,3.5.14,1.6.5,2.41-.25,3.82-.34.65-4.8,5.25-3.33,5.66a9.67,9.67,0,0,0,4.83.25,36.88,36.88,0,0,0,4.59-1.9,1.35,1.35,0,0,1,1.84,1.68c-.29.79-.59,1.64-.87,2.43a1.35,1.35,0,0,0,1.83,1.68l.31-.09c1-.21,2-.43,3-.66,2.18-.48,4.36-1,6.53-1.48q7.05-1.66,14.07-3.4c8.69-2.12,14.51.57,23.29-1.17,2.3-.46,5.74-.91,8.08-1.19,1.33-.15,7.8-1.1,10-.95,15.46,1.1,64.55-5.92,79.63-2.32.87.21,11.5,3.83,22.21,6.59a1.36,1.36,0,0,0,1.66-1.63c-.08-.37-.15-.72-.19-1,0-.07-.09-.54-.08-.6s-.32-.67-.29-.78a4.06,4.06,0,0,0-.17-.74c0-.14,1.32-.1,1.38-.1a15.13,15.13,0,0,0,2,0,18.73,18.73,0,0,0,3.91-.74,7.66,7.66,0,0,0,2.17-1,4.91,4.91,0,0,0,1.69-2.44,1.35,1.35,0,0,0,.1-.56,5.84,5.84,0,0,0-.11-1.2c-.63-1.83-2.24-2.89-3.54-4.27a36.57,36.57,0,0,1-3.53-3.73c-.45-.65-1-1.27-1.38-2a5.15,5.15,0,0,1-.82-2.16c.06-1.54,2.82-2.5,1.88-4.09-.55-.92-2.37-1.38-3.29-1.79s-2.61-1.21-1.72-2.35a6.39,6.39,0,0,1,1.37-1.33s-.49-.59-.53-.62c-1.67-1.27-3.86-1.26-5.73-2.23s-3.86-1.83-5.67-2.92c-.93-.57-2.7-1.09-2.58-2.46a3.22,3.22,0,0,1,1.22-2.13,6.3,6.3,0,0,1,2.33-1.29c.34-.1,1.28-.12,1.48-.45s.39-.4.49-.6a8.94,8.94,0,0,0,.12-1,1.5,1.5,0,0,0,0-.3c-.34-2.54-.76-5.07-1.28-7.57-.39-1.84-.85-3.65-1.26-5.48-.24-1.06-.78-3.36-1.2-5.1a1.35,1.35,0,0,1,1.69-1.62c1.44.42,3.26,1,4.44,1.32,2.27.72,4.57,1.33,6.85,2,10.15,2.94,14.82,5.06,26,7.6.78.18,7.11-1.58,7.34-2.35,1.21-4,.46-3.93.78-5.38,2.86-12.84,2.26-22,2.59-35.11C279,481.23,278.6,469.89,277.82,458.58ZM83,446.24l-11.3,27,3.25,1.08-.89,1.57a130.06,130.06,0,0,1-14.93,1.38s-7.57-7-8.55-9.83c-3.72-10.78,24.3-74,30.64-97.4,2.09-7.71,5-14,6.91-21.76a45.92,45.92,0,0,1,2.7-6.75c.54-1.14,2.51-3.54,2.58-2.27.14,2.73-.61,7.74-.67,9.06-.28,6.55.13,7.46-.09,14-.41,12.22.49,20.83,0,33-.55,15.25,1.34,37.76,1.22,53C93.9,450,83,446.24,83,446.24Zm161.9,33c-.06.42-1.12,2.5-1.52,2.46-7.65-.79-9.6-3.6-17.21-4.4a1.1,1.1,0,0,1-1-1c-.56-4.38,0-8.88-.56-13.26a1.43,1.43,0,0,0-.43-.83c-.31-.29-.41-.51-.27-.66a1.55,1.55,0,0,0,.31-.84c-.07-.28-.13-.56-.21-.83a1,1,0,0,1,.27-1c-.12-3.64-1.28-9.73-1.42-11-1.26-11.6-1.66-21.91-2.89-33.51-1.18-11.12-2.29-22.25-3.53-33.37-1.28-11.44-1.78-20.88-2.56-32.37-.17-2.5-1.6-7.44.23-7.6,2.56-.23,5.32,7.54,5.76,9.22,5.61,21.21,19.35,84.06,23.37,110l-.07.06C243.68,463.18,245.31,476.25,244.89,479.22Z"
           id="path102" />
        <path
           class="cls-12"
           d="M126.54,245.83c-3.54.32-8.31,1.73-7.24,3a9.3,9.3,0,0,0,4.8,2.74c8.25,2.16,13.38,4.77,23.08,4.4,9.33-.35,16.21-.95,24.85-4.71,3.9-1.69,10-5.19,7.63-6-2.19-.73-9.67-1-9.67-1l-.37-1.25s6.7.34,8,.7c8.5,2.36,32.06,10.41,32.06,10.41s1.28,9.15-7.43,13.48c-8.91,4.43-25.55,9.91-39.33,11.1-9.29.8-45.87-.93-59-8.45-8.2-4.7-10.53-17.69-10.53-17.69s27.13-8.22,33.31-7.91Z"
           id="path104" />
        <path
           class="cls-12"
           d="M186.62,460.61c-1.15,1.48-.61,6,.31,7.58s22.58,5,22.58,5-2.06-4.65-1.86-7a10.7,10.7,0,0,1,2.52-6.18s-6.13-2.43-10.24-2.17C194.59,458.25,188.77,457.87,186.62,460.61Z"
           id="path106" />
        <path
           class="cls-12"
           d="M72.5,438.67c-6.15-1.2-15.7.05-15.7.05s-3,9.94-4.46,14.27-3.72,13.44-.44,15.92c2.59,1.95,9,5.41,14.87,8l.93-.14a16.08,16.08,0,0,1,3.51-.4l.76-.08c1.63-5.15,5.6-17.37,7.57-21.17a70.23,70.23,0,0,1,6.08-9.42S78.65,439.87,72.5,438.67Z"
           id="path108" />
        <path
           class="cls-13"
           d="M77.75,452.39s-3.7,4.77-4.06,8.23c-.24.38-.81.21-1.2,0-4.15-2.18-9-4.23-13.31-6-2-.81-.85-3.38-.2-5.53,1-3.18.54-3.91,5.27-2,3.49,1.2,8.38,3.14,11.83,4.43A11.88,11.88,0,0,1,77.75,452.39Z"
           id="path110" />
        <path
           class="cls-13"
           d="M56.33,465.36c.08-1.48.18-3,.24-4.44.11-2.79.39-3.1,3-2.49a40.13,40.13,0,0,0,11.31,4.24c1.23.67,1.1.75.65,2.12a17.82,17.82,0,0,0-2.39,6.09c-.35,1.41.26,2.37-1.18,1.73-3.24-1.44-6.51-2.81-9.78-4.17A2.69,2.69,0,0,1,56.33,465.36Z"
           id="path112" />
        <path
           class="cls-13"
           d="M67,440.85c1.22.45,2.82,1,4.42,1.6,3.23,1.11,6.52,2.59,9.77,3.62,1.91.6,1.47.42-.12,2S78.23,451,78.23,451s-8.88-4.12-13-5.49c-.84-.28-2.91-.63-3-1.79a2.56,2.56,0,0,1,.72-2.39C63.82,440.62,65.38,440.77,67,440.85Z"
           id="path114" />
        <path
           class="cls-14"
           d="M195.84,461.27c3.19.19,5.78,0,9,.26.81.06.84.34.91,1.59,0,1-.12,2.52-1.06,2.65-5.38.74-9.93.28-15.33.85-1.94.2-.76-1-.84-2-.1-1.15,0-1.8,2-2.49,2.59-.54,3.68-1,5.4-.75Z"
           id="path116" />
        <path
           class="cls-14"
           d="M190,469.39c4.4-.57,9.47-1.18,13.87-1.73a1.78,1.78,0,0,1,2,1.76c-.21,4.43-.65,4.54-5.3,3.65A77.36,77.36,0,0,1,190,470.52C190,470.27,190,469.64,190,469.39Z"
           id="path118" />
        <path
           class="cls-15"
           d="M311.19,1064.6a5.21,5.21,0,0,1-.33-2.35c-.26-5.5-.13-11-.55-16.53-1-13.14-2.16-26.27-3.59-39.37-1.72-15.72-3.87-31.38-6-47.05-2.62-19.07-5.56-38.09-8.54-57.1-2.7-17.28-5.55-34.54-8.25-51.82-3.21-20.52-6.44-41-9.46-61.57-1.92-13.12-5.86-24.32-6.59-37.59-.41-7.49-2.82-14.77-3.31-22.26-1-15.38-3.48-20.06-5.26-35.37-.17-1.45-9.65-68.18-11.79-82.83q-.76-3.16-1.56-6.32l-1.56-6.24c-.55-2.2-1-4.41-1.45-6.61s-1.17-4.45-1.67-6.77a8.47,8.47,0,0,0-.49-1.89c-.22-.32-.46-.11-.79-.19-1.12-.3-2.24-.57-3.37-.83-2.25-.51-4.5-.95-6.77-1.33-4.51-.75-9.06-1.24-13.62-1.54s-9.14-.4-13.71-.35-9.18.24-13.76.51-9.2.65-13.79,1c-3.29.28-6.58.55-9.87.87q-3,.3-6,.52c-4,.31-7.93.77-12,.77-4.32,0-9.43.82-13.74.73-6.88-.16-13-1-19.82-.62-3.22.18-6.8-.2-10-.1s-6.29-.2-9.63-.12c-4.71.11-9.71.8-13.82,3.09-2.8,1.56-6.82,3.24-6.82,3.24s-2.23,6.15-2.75,7.49a26.86,26.86,0,0,0-1,4.24c-.47,2.33-1.12,4.6-1.66,6.91-1.1,4.7-1.52,9.36-2.57,14.07-.35,1.56-.7,3.12-1,4.69a7.38,7.38,0,0,0-.3,2.42c1.12,6.78,6.07,107.4,5.93,109.12-.66,7.8-.75,19-1.54,26.82-1.31,12.87-1.19,24.88-2.35,37.76-1.53,16.94-2.45,33.94-3.33,50.93-.9,17.31-1.65,34.62-2.89,51.91C58.78,920.28,58,935.6,57,950.9c-1.13,17.05-2.59,34.08-4.79,51-3.28,25.18-8.22,50-16.62,74-.72,2,0,5.8,1.86,6.9,7.48,5.56,14.61,11.07,22.46,15.85,24.91,15.15,53.19,21.86,82.16,23.64,14,.87,26.85-.56,40.93-1.27,12.21-.61,25.48-3,37.63-4.31q28.24-2.94,56.12-8.47c10-2,19.9-3.92,29.78-6.19,2-.47,3.1-1.22,3.39-3.52a108.17,108.17,0,0,0,.93-12.18,10,10,0,0,1,.38-4Z"
           id="path120" />
        <path
           class="cls-16"
           d="M153.16,359.7a15.69,15.69,0,0,0-12,5c-6.67,7.12-1.73,24,8.68,32.57a3.3,3.3,0,0,0,5.12-.06,29.87,29.87,0,0,0,11-25.1c-.23-3.9-2.44-8.82-5.82-10.77s-5.18-1.44-8.65-1.72"
           id="path122" />
      </g>
      <g
         id="torso_crosse_shading_dark">
        <path
           class="cls-17"
           d="M80.79,585.59a101,101,0,0,0-4.08,13.26c-2,8-10.47,49.18-13,71.73C60.5,698.65,6.26,936.31,5.26,952.16c-.64,10.13-4.42,34.29-2.91,54s4.71,58.68,12.59,59.43c6.77.64,15.45,6.51,20.15,10.45,9.25,7.76,29.09-151.83,30.91-166.54,3-24,.15-49.81.15-84.76,0-15.94,12-96,14.63-163.71C82,630.11,89,598.66,91.4,583.27c-2.9.33-5.78.72-8.66,1.14C82.07,584.78,81.42,585.17,80.79,585.59Z"
           id="path125" />
        <path
           class="cls-13"
           d="M94.45,330.78c6.72-.48,8.85,43.66,9.24,50,.82,13.24,2.93,39.1,7.87,56.66,4,14.37,6.08,17.71,6.07,17.7l-23.18-7.38Z"
           id="path127" />
        <path
           class="cls-13"
           d="M84.5,551.11C83,553.77,83,555.8,86.31,555.6c3-.18,6.83-14.4,7.51-17.16,3.73-15.29,4.1-18.5,7.3-31.26,1.7-6.78,15.44-10.95,22.23-15.2-.28.17-31.66,8.29-31.66,8.29s-3.09,41-6.8,50.07A8,8,0,0,1,84.5,551.11Z"
           id="path129" />
        <path
           class="cls-13"
           d="M80.92,479.8c7,4.36,13.57,9.51,20.11,14.48a.81.81,0,0,1,.27,1l1.92,1.63c1.54-.44,3.09-.91,4.55-1.42a99.87,99.87,0,0,1,15.38-3.93s-41.49-15.64-44.34-15.18l-.22,0c.66,1.05,1.32,2.09,2,3.15Z"
           id="path131" />
        <path
           class="cls-13"
           d="M67.91,291.18c-.58-4.84-1.73-11.6-5.56-14.85-7.58,15.26-11.26,34.09-16.22,50.42q-7.8,25.67-15,51.53-9.9,35.64-18.61,71.59c-.86,3.56-8.39,32.81-5.76,32.75,4.9-.1,4.47-16,4.93-19.33.94-6.72,3.3-15.4,6.12-24.77s10-4.37,13.65-16S45.58,376.36,49.31,366,68.64,297.3,67.91,291.18Z"
           id="path133" />
        <path
           class="cls-13"
           d="M219,339.25c6.91,7.53,12.74,40.53,14.91,49.21,3,12,9.45,34.32,10.37,41s9,34,9.92,40.83,4.74,16.93,4.74,16.93l-20.27-6.75s11.29,1.94,4.59-21.53C232,419.79,218.5,343.42,216.81,341.22"
           id="path135" />
        <path
           class="cls-18"
           d="M82.75,584.4l-.91.52c-2.94,3.36-5.51,6.54-6,8.71-1.26,5.72-4.38,10.6-5.68,16.31-8.66,37.87-20.92,73.68-29.74,111.51-6,25.8-12.67,52.8-17.53,78.85-9.4,50.45-10.67,79.08-16.74,130C5.46,936,1.1,969.73.44,975.47c-1.82,15.67-.83,26.39-1.9,42.13-.52,7.56-1.71,15.85-.92,23.4.24,2.25,3.27,10.91,1,12.63,1.93,6.13,2.47,5.31,3,6.53,3.21,7.45,14.33,9.52,18.38,16.11,1,1.69.69-3.24,1-4.87s-.87-8-1.69-20.18c-1-14.71-1.22-24.84,1-44.66,1.52-13.77,4.9-32.24,6.66-46,2.58-20.22,4.64-32.47,8.29-52.45,6.53-35.72,17-69.14,25-104.4,6-26.69,12-53.39,17.71-80.18,4-18.75,7.75-37.56,11.66-56.34,2.2-10.58,1.67-33.53,4.09-44.07.87-3.8-.62-25.92-1.43-40Q87.47,583.7,82.75,584.4Z"
           id="path137" />
      </g>
      <g
         id="torso_crosse_shading_light">
        <path
           class="cls-19"
           d="M278.62,474.4c-.69-22.38-4-45-6.63-67q-1.08-9.09-2.31-18.16c-.53-2.7-1.05-5.39-1.58-8.09-2.41-12.23-4.87-24.45-7.18-36.69-.87-4.58-1.79-9.15-2.48-13.76-1.4-5.93-2.66-11.89-3.68-17.89-1.19-7-3-13.84-4.46-20.77-2.86-10.05-4.38-15.21-7.05-19.71-3.23-5.43-6.74-5.85-10.78-8.12-4.63-2.59-19.39-8.61-19.39-8.61s18.09,17,22.61,21.43c6.69,6.56,10.2,19.05,12.42,31,4.39,23.72,7.36,36.86,12.49,60.21,4.36,19.83,5.53,39.31,6.2,59.52,1,31,5.78,62.15,3,93.15a2.39,2.39,0,0,1-.29.95c.31,3.21.63,6.43,1,9.63a1.58,1.58,0,0,1-.37,1.16c1.54,2.55,2.95.29,4.26-.31.42-.19,1-2.59,1.53-6.28a1.48,1.48,0,0,1-.21-.92C277.71,508.35,279.15,491.49,278.62,474.4Z"
           id="path140" />
        <path
           class="cls-19"
           d="M87.68,453.72c18.63-.94,74.64,20.52,88.85,25.59,9.09,3.24,61,16.32,72.89,20.3s14.47-1,12-6.68-84-29-94.75-29.35-71.26-15-76.2-15.15S87.68,453.72,87.68,453.72Z"
           id="path142" />
        <path
           class="cls-19"
           d="M202.24,390.47c-1,8.68-.4,24.12.44,29.77S207,458.55,207,458.55l6.14,5.31s7.65-6,9.07-10.37S213.7,344,213.7,344s-5.65,13.8-7.11,16.68C204,365.78,203.6,379.19,202.24,390.47Z"
           id="path144" />
        <path
           class="cls-19"
           d="M90,324.27c6,0-2.47,3.56-4.28,13.92s-17.66,64.56-19,69.13S59.93,430.37,57.76,432s-4.6,9-7.21,8.3-4,1.45-4.3-5.43,5.23-14.87,5.2-21.07,10.61-31.92,11.6-36.08,14.63-36.2,18.61-43.92C82.71,331.72,85.17,324.26,90,324.27Z"
           id="path146" />
        <path
           class="cls-20"
           d="M283.24,909.81c-3.85-22.24-38.18-309.4-48.88-325.49L232.13,581a143.21,143.21,0,0,0-22.69-2.25c-.9,1.64-1.83,3.49-2.81,5.59-11.71,25.15,19.05,85.15,23.22,112.68s31.83,324,32.11,355.76-3.8,8.5.29,31.77A97.15,97.15,0,0,0,269,1093s32.94-6.35,34.44-13.18S287.09,932.06,283.24,909.81Z"
           id="path148" />
      </g>
      <g
         id="torso_crossed_skin">
        <path
           class="cls-10"
           d="M238.47,480.35a4.73,4.73,0,0,0,3.81-.79,6.36,6.36,0,0,0,2.24-3.26,7.9,7.9,0,0,0,.17-4l-.68-4c-.94-5.35-1.91-10.68-2.95-16q-3.08-16-6.4-31.9L228,388.54c-2.27-10.61-4.18-21.3-7.07-31.74q-1.06-3.92-2.31-7.78l-.63-1.93a19.56,19.56,0,0,0-.68-1.87,7.23,7.23,0,0,0-2.25-3,1.94,1.94,0,0,0-.76-.32c-.11,0-.13,0-.12,0l.11,1.84.24,4.06.52,8.12q1.08,16.23,2.39,32.44c1.73,21.63,3.86,43.21,6.23,64.78h-.1q-4.37-32.25-7.13-64.7-1.39-16.23-2.38-32.47l-.47-8.13-.22-4.06-.12-2.22c0-.16,0-.3,0-.45V341s.07,0,.1,0h.23l.45,0a3.73,3.73,0,0,1,.43,0,2.72,2.72,0,0,1,1.1.47,7.92,7.92,0,0,1,2.54,3.42,15.78,15.78,0,0,1,.7,1.95l.62,1.94q1.23,3.9,2.28,7.83c2.86,10.5,4.73,21.21,6.94,31.82l6.49,31.89c2.14,10.64,4.24,21.28,6.22,31.95q1.5,8,2.85,16l.65,4a8,8,0,0,1-.19,4,6.5,6.5,0,0,1-2.31,3.32,4.82,4.82,0,0,1-3.91.79Z"
           id="path151" />
        <path
           class="cls-10"
           d="M278.56,463,273.24,418l-2.64-22.47c-.84-7.49-1.88-14.95-3.27-22.35s-2.53-14.89-3.69-22.33-2.68-14.82-4.13-22.22-3.06-14.75-4.82-22.08S251,292,249.08,284.68l.09,0c2.19,7.22,4.29,14.47,6.2,21.77s3.58,14.66,5.12,22.05,3.05,14.79,4.13,22.27,2.06,14.93,3.49,22.33,2.35,14.93,3.14,22.43L273.73,418l4.93,45Z"
           id="path153" />
        <path
           class="cls-3"
           d="M281.1,453.3c-1.92-1.15-3.23-2.17-3.39-2.19-5.28-.7-8.23-1.3-13.74-1.29a31.89,31.89,0,0,1-8.27-.78c-.86-.21-5.68-2.71-5.68-2.71l6.47-1c5.18-.79,7.27-1.72,12.46-1.79s9.08.12,14.62.39c4.2.21,7.48,1.48,12.09,2.31a18.51,18.51,0,0,0,2,.65,3.31,3.31,0,0,0,.45-.12l0,0,0,0,.17-.09a.94.94,0,0,0,.18-.12l.17-.18c0-.06.1-.17.12-.2a1,1,0,0,1,0-.1,1.12,1.12,0,0,1,.06-.23c0-.12,0-.23,0-.34s0-.23,0-.35a1.42,1.42,0,0,0,0-.2,7.71,7.71,0,0,0-.24-.82l0-.09,0,0c-2.88-2-5.66-4.55-9.07-5.56a44,44,0,0,0-6.88-1.49c-3.23-.39-6-.67-9.27-.8a83.43,83.43,0,0,0-10,.52c-3.14.28-7.39,1.11-7.39,1.11a32.86,32.86,0,0,0,3.25-2c3.62-3.08,7.77-6.51,12-8.72s7.53-3.68,12.28-3.41c3.56.2,5.67,1.87,9.13,1,.95-.23,2.8-.63,3.42-1.38.83-1,1.5-2.52.92-2.68-2.67-.74-6.28-1.91-9.23-2.68-4.66-1.21-9.38-2.23-13.87-.49-6.86,2.66-10.83,9.83-16.88,14-.67.46-8.11,4.67-8.11,4.67s8-10.53,16.25-22.34a36.9,36.9,0,0,0,5.54-14c.26-1.83.37-5.72-.28-7.38-.54-1.39-1.91-3-2.49-2.22a17.3,17.3,0,0,1-1.85,3.6c-.62.88-1.5,2.9-2.12,3.79-1.2,1.69-2,4-3.23,5.72-2.39,3.39-15.79,24.46-15.79,24.46s-1.26.13-1-1.76c.54-4.11,2.71-12.63,1.57-16.42-.23-.76-3.1-6.9-4.06-5.45-2.48,3.73-4.4,19.49-5.54,23.07-4,12.47-6.84,23.89-15.78,32.31-2.62,2.47-11.62,4-12.35,7.55-.17.77,1.59,5.24,2.18,5.76a2.57,2.57,0,0,0,1.18.48l9.69,2.2c3.81.86,6.86,2.86,10.75,3.28,4.75.53,9.27-1.95,12.91-5.08,3.9-3.35,7-7.66,11-10.83a20,20,0,0,1,10.75-4.15,31.73,31.73,0,0,1,14.13,1.51c2.5.94,1.56,1,4.17,1.61.31.07,2,.81,2.19.6a3.72,3.72,0,0,0,.7-2C285.78,457.39,284.48,455.34,281.1,453.3Z"
           id="path155" />
        <path
           class="cls-3"
           d="M54.52,443.83l-18.64-2.29h0a3.76,3.76,0,0,0-4,3.94L33,469.56l1.75,13.19,23.54-5.12,1.09-1.42-18-16.46s7.63-.55,8.39-.11,2.73-10.46,2.73-10.46Z"
           id="path157" />
      </g>
      <g
         id="torso_crossed_outline">
        <path
           class="cls-10"
           d="M93.82,449.56c-.81-18-1.48-36-1.74-54q-.21-13.5-.22-27c-.13-9,.65-18,.84-27l0-1.61c0-.05,0-.15,0-.16a.29.29,0,0,0-.16.09,5.49,5.49,0,0,0-.44.55c-.15.21-.29.45-.43.68-.27.47-.52,1-.75,1.47a52.88,52.88,0,0,0-2.32,6.27l-4,12.92q-4.05,12.88-8.31,25.71T67.63,413c-2.9,8.52-5.95,17-8.76,25.55l-.09,0c2.55-8.64,5.42-17.18,8.19-25.74l8.39-25.68,8.31-25.7,4.06-12.88a55.11,55.11,0,0,1,2.41-6.37c.25-.51.5-1,.8-1.53.15-.25.3-.5.47-.74a4.14,4.14,0,0,1,.65-.74,1.94,1.94,0,0,1,.58-.38,1.49,1.49,0,0,1,.59-.09h.16a.5.5,0,0,1,0,.13l.07.26a.61.61,0,0,1,0,.32v.37l0,1.77c-.23,9-1.07,18-1,27s0,18,0,27c.15,18,.68,36,1.35,54Z"
           id="path160" />
        <path
           class="cls-10"
           d="M266.73,391.45a2.94,2.94,0,0,1,.94-1.51,2.55,2.55,0,0,1,.4-.28c.14,0,.29.15.42.22a5.37,5.37,0,0,1,.7.56,6.74,6.74,0,0,1,1.73,3.09,15,15,0,0,1-.05,7.07,43.61,43.61,0,0,1-5.19,13.14,98.1,98.1,0,0,1-8,11.68c-2.92,3.69-5.87,7.34-8.94,10.9l-.08-.06c2.64-3.89,5.42-7.68,8.22-11.45s5.66-7.47,8.07-11.47a43.71,43.71,0,0,0,5.4-12.84,14.61,14.61,0,0,0,.23-6.89,6.52,6.52,0,0,0-1.58-3,5.89,5.89,0,0,0-.65-.57c-.11-.06-.2-.19-.31-.17a2.49,2.49,0,0,0-.32.21,2.79,2.79,0,0,0-.93,1.42Z"
           id="path162" />
        <path
           class="cls-10"
           d="M258.2,437.18c3.27-2.51,6.32-5.29,9.59-7.81a46.32,46.32,0,0,1,5.06-3.6,17,17,0,0,1,5.85-2.15,25,25,0,0,1,6.23-.22c1,.09,2.07.21,3.09.37s2,.36,3,.45A7.3,7.3,0,0,0,294,424a4.26,4.26,0,0,0,2.23-1.69,2.47,2.47,0,0,0,.3-.61c0-.11.06-.22.09-.33s0-.11,0-.17a.13.13,0,0,0,0-.06c0-.09,0-.09-.15-.11l-.77-.17c-1-.24-2-.52-3-.82-4-1.2-7.83-2.73-11.86-3.11a15.8,15.8,0,0,0-5.93.52,20.41,20.41,0,0,0-5.4,2.61c-3.39,2.25-6.23,5.26-9.19,8.14s-6.16,5.67-10,7.21l0-.09c3.74-1.78,6.74-4.67,9.59-7.62s5.64-6.07,9.11-8.46a19.74,19.74,0,0,1,5.68-2.78,16.09,16.09,0,0,1,6.32-.51c4.22.45,8.09,2.09,12,3.32,1,.31,2,.6,2.95.85l.75.17.62.15s.11,0,.14.05v.49a1.66,1.66,0,0,1,0,.32l0,.22c0,.14-.07.28-.12.42a3.68,3.68,0,0,1-.38.77,5,5,0,0,1-2.63,1.95,8.1,8.1,0,0,1-3.2.25c-1.05-.1-2.07-.32-3.08-.49s-2-.31-3-.4a24.41,24.41,0,0,0-6.1.12,16.77,16.77,0,0,0-5.73,2,46.58,46.58,0,0,0-5.07,3.49c-3.3,2.47-6.4,5.2-9.72,7.65Z"
           id="path164" />
        <path
           class="cls-10"
           d="M241.33,403.8c-2.91,7.26-2.61,15.27-5.09,22.76-1.16,3.74-2.44,7.41-3.81,11.06s-2.81,7.26-4.39,10.82l-.09,0c1.07-3.75,2.29-7.45,3.54-11.13s2.74-7.3,4-11A74.39,74.39,0,0,0,238.14,415a49.27,49.27,0,0,1,3.1-11.25Z"
           id="path166" />
        <path
           class="cls-10"
           d="M241.66,405.49l-.07-.87,0-.46v-.35c0-.06.05,0,.07,0,.23.17.5.33.74.53a5.68,5.68,0,0,1,.65.59,9,9,0,0,1,1.82,2.64,16.9,16.9,0,0,1,1.38,6.23,25.68,25.68,0,0,1-.34,6.37,22,22,0,0,1-2.06,6l-.1,0c.48-2.06.9-4.09,1.18-6.14a47.41,47.41,0,0,0,.52-6.19,17.09,17.09,0,0,0-1-6.06,9,9,0,0,0-1.59-2.62c-.17-.21-.36-.38-.48-.51s-.32-.26-.5-.41,0,0,0,.05v1.18Z"
           id="path168" />
        <path
           class="cls-10"
           d="M241.44,432.2q6.88-10.05,13.3-20.4L261,401.38,267.35,391l.09,0a119.54,119.54,0,0,1-5.56,10.87c-2,3.53-4.24,6.94-6.46,10.34q-6.66,10.22-13.89,20Z"
           id="path170" />
        <path
           class="cls-10"
           d="M286.4,462.61A51.54,51.54,0,0,0,272,458.72c-4.89-.51-10.07,0-14.27,2.56a20.38,20.38,0,0,0-5.32,5,54.92,54.92,0,0,1-4.91,5.73,26,26,0,0,1-13.43,6.59l0-.1a29.35,29.35,0,0,0,12.77-7.21c1.74-1.71,3.21-3.72,4.83-5.64a21.12,21.12,0,0,1,5.68-5,19.12,19.12,0,0,1,7.2-2.41,29.27,29.27,0,0,1,7.54,0,51,51,0,0,1,14.36,4.29Z"
           id="path172" />
        <path
           class="cls-10"
           d="M250.7,446.77c4.06,1.89,8.55,2.2,13,2.49,2.22.13,4.44.21,6.65.46s4.42.55,6.62,1v.1c-2.24.08-4.47,0-6.69-.11s-4.43-.42-6.64-.67c-4.4-.46-9-1-13-3.19Z"
           id="path174" />
        <path
           class="cls-10"
           d="M251.81,438.48a80,80,0,0,1,24.9-2.28c2.09.14,4.18.36,6.25.65a36.49,36.49,0,0,1,6.16,1.37,25.86,25.86,0,0,1,8.31,4.56A5.51,5.51,0,0,1,298.6,444a2,2,0,0,1,.31,1.84,1.59,1.59,0,0,1-.63.79,2.2,2.2,0,0,1-.89.33,4.6,4.6,0,0,1-1.7-.05c-1.1-.25-2-.57-3.06-.83-2-.55-4-1-6.06-1.41a54.39,54.39,0,0,0-12.36-.71c-4.15.17-8.29.66-12.44,1.13s-8.31.92-12.47,1.33v-.1c4.12-.68,8.25-1.31,12.39-1.92s8.28-1.2,12.48-1.44a49.81,49.81,0,0,1,12.6.74c2.07.4,4.1.94,6.12,1.52,1,.27,2,.64,3,.86s2.08.17,2.32-.53a1.18,1.18,0,0,0-.22-1.11,4.51,4.51,0,0,0-1-1,25.34,25.34,0,0,0-8-4.53,34.92,34.92,0,0,0-6-1.42q-3.08-.48-6.2-.73a80.5,80.5,0,0,0-24.84,1.89Z"
           id="path176" />
        <path
           class="cls-10"
           d="M287.35,460.12a33.22,33.22,0,0,0-5.16-5c-.95-.74-2-1.38-2.9-2.11s-1.9-1.47-2.83-2.29l.05-.08a13.58,13.58,0,0,1,3.35,1.54,19.32,19.32,0,0,1,2.85,2.33,27.67,27.67,0,0,1,4.72,5.59Z"
           id="path178" />
        <path
           class="cls-10"
           d="M286,458a4.55,4.55,0,0,1,1.89,2.38,1.93,1.93,0,0,1-.31,1.72,1.26,1.26,0,0,1-1.64.38v-.1a1.54,1.54,0,0,0,.81-.85,2.61,2.61,0,0,0,.34-1,4.89,4.89,0,0,0-1.17-2.43Z"
           id="path180" />
        <path
           class="cls-10"
           d="M54.66,443.92l-15-1.68-3.75-.46-.94-.12a.56.56,0,0,0-.17,0l-.16,0-.38.18a9,9,0,0,0-1.49,1A3.25,3.25,0,0,0,32,444.4a6.48,6.48,0,0,0-.29,1.76l.11,3.77c.19,5,.65,10,1.15,15s1.07,10,1.6,15l-.1,0c-1-4.94-1.87-9.91-2.5-14.93A138.66,138.66,0,0,1,31,450l0-3.79a7.31,7.31,0,0,1,.35-2,3.79,3.79,0,0,1,1-1.79,9.51,9.51,0,0,1,1.63-1.1,4.34,4.34,0,0,1,.48-.2,1,1,0,0,1,.59-.05l.94.14,3.74.54,15,2.07Z"
           id="path182" />
        <path
           class="cls-10"
           d="M57.87,478a3,3,0,0,0,1.46-1.44.54.54,0,0,0,0-.1l-.08-.07-.17-.14-.43-.34-.86-.7c-1.13-.92-2.25-1.87-3.37-2.83q-3.33-2.87-6.53-5.9c-1.07-1-2.14-2-3.19-3l-1.55-1.57-.75-.8-1.29-1.39-.18-.19c-.06,0,0,0,.06,0l.13,0,.54-.07,1.05-.15c.48-.06.77-.08,1.16-.12a16.87,16.87,0,0,1,2.25,0,15.1,15.1,0,0,1,4.34.95l0,.1a21.21,21.21,0,0,0-4.33-.35,19.65,19.65,0,0,0-2.14.22l-1,.16s0,0,0,0h0l.19.19.75.79,1.51,1.6c1,1.06,2,2.12,3,3.17q3.09,3.11,6.3,6.11,1.61,1.49,3.24,3l.82.73.41.37.25.22.12.1a.94.94,0,0,1-.06.15,3.16,3.16,0,0,1-1.65,1.54Z"
           id="path184" />
        <path
           class="cls-10"
           d="M56.42,471.62a30.3,30.3,0,0,1-4.19-2.09,5,5,0,0,1-1.63-1.75,5.38,5.38,0,0,1-.56-2.35,57.42,57.42,0,0,1,.74-9.35c.23-1.55.5-3.09.87-4.63A32.62,32.62,0,0,1,53.16,447c.59-1.44,1.25-2.87,1.87-4.27s1.11-2.9,1.82-4.3l.1,0c-.46,1.49-.77,3-1.26,4.51s-1.08,2.93-1.6,4.39-1.06,2.9-1.48,4.37-.76,3-1,4.5a59.7,59.7,0,0,0-1,9.21A5,5,0,0,0,51,467.6a4.5,4.5,0,0,0,1.45,1.68,30.11,30.11,0,0,0,4.06,2.25Z"
           id="path186" />
        <path
           class="cls-10"
           d="M56.65,438.47c5.23.14,10.45-.66,15.75,0A20.77,20.77,0,0,1,80,440.89a14.27,14.27,0,0,1,5.68,5.51l-.08.05a19,19,0,0,0-6.08-4.68,26,26,0,0,0-7.22-2.54c-5.11-.79-10.41-.24-15.64-.66Z"
           id="path188" />
        <path
           class="cls-10"
           d="M74.84,474.49a2.55,2.55,0,0,1-1.59,1.6,2.26,2.26,0,0,1-.63.13,1.9,1.9,0,0,1-.34,0c-.09,0-.3,0-.22-.12s.08-.45.12-.69l.11-.56c.29-1.49.65-3,1-4.43a69.76,69.76,0,0,1,2.91-8.65,57.12,57.12,0,0,1,4-8.22,48.17,48.17,0,0,1,5.4-7.36l.08.06c-1.6,2.58-3.17,5.15-4.61,7.8s-2.89,5.28-4.12,8a74.2,74.2,0,0,0-3.16,8.47c-.44,1.45-.85,2.9-1.21,4.37l-.23,1c-.06.1.07.06.12.08h.22a2.63,2.63,0,0,0,.48-.09,2.42,2.42,0,0,0,1.57-1.44Z"
           id="path190" />
        <path
           class="cls-10"
           d="M69.29,473.27a19.32,19.32,0,0,1,.21-4.68,8.9,8.9,0,0,1,2-4.27c.14-.13.07-.49-.07-.65a2.39,2.39,0,0,0-.8-.39l-1.86-.72L65,461.11l-7.44-2.9-.37-.15-.08,0c-.06-.05,0,0,0,.09L57,459.54c-.06,1-.09,2.09-.09,3.13s0,2.1.08,3.12a1.3,1.3,0,0,0,.43,1,8.38,8.38,0,0,0,1.26.75c3.69,2,7.5,3.8,11.37,5.49l0,.09a70,70,0,0,1-11.79-4.69,9.5,9.5,0,0,1-1.47-.84,2.15,2.15,0,0,1-.61-.84,3.68,3.68,0,0,1-.19-.92c-.06-1.1-.06-2.14,0-3.21s.09-2.13.19-3.19l.19-1.74.09-.7,0-.18a.82.82,0,0,1,.16.06l.32.13,1,.43,7.37,3.07,3.69,1.54,1.84.78a2.41,2.41,0,0,1,.95.53,1.11,1.11,0,0,1,.23.57.8.8,0,0,1-.18.62,8.56,8.56,0,0,0-2,4.06,19.84,19.84,0,0,0-.36,4.62Z"
           id="path192" />
        <path
           class="cls-10"
           d="M73.29,460.85a15,15,0,0,1,.79-3.24,13.84,13.84,0,0,1,1.59-3c.31-.46.65-.9,1-1.34l.46-.6.16-.2s0-.05,0-.06l-.13-.05-3-1.08-12.5-4.58c-.5-.18-1.35-.53-1.25-.38l-1.78,7.26,2.75,1.22c4,1.84,8.06,3.71,12,5.73l0,.09c-4.18-1.52-8.29-3.19-12.38-4.9l-1.57-.67-.78-.33-.4-.17a1.1,1.1,0,0,1-.59-.52.88.88,0,0,1-.07-.48c0-.08,0-.18,0-.24l0-.12.13-.49.26-1,.52-2,.54-2,.27-1,.13-.49a1.48,1.48,0,0,1,.32-.68.86.86,0,0,1,.74-.2,2.38,2.38,0,0,1,.54.16l.83.33,12.4,4.87,3.23,1.27.27.11c.08,0,.22.05.1.14l-.37.44-.58.71c-.36.42-.7.86-1,1.3a13.3,13.3,0,0,0-2.53,6Z"
           id="path194" />
        <path
           class="cls-10"
           d="M78.54,451.3a5,5,0,0,1,1.55-2.9,7,7,0,0,1,1.4-.93l.37-.18.26-.13.51-.22L74.92,444l-4.06-1.54-2-.77a4.61,4.61,0,0,0-1.9-.49c-1.07.15-2.1-.12-3,0-.25,0-.58.34-.87.69a7.46,7.46,0,0,0-.73,1.14c0,.07,0,.09.06.22a1.49,1.49,0,0,0,.41.35,2.9,2.9,0,0,0,.57.25l.72.23c1,.31,1.9.64,2.84,1a64.5,64.5,0,0,1,10.79,5.27l0,.09c-3.65-1.62-7.33-3.13-11.09-4.42l-2.82-.95-.7-.23a4.38,4.38,0,0,1-.79-.37,2.49,2.49,0,0,1-.71-.64,1.19,1.19,0,0,1-.14-1.18,6.86,6.86,0,0,1,.91-1.36,5.47,5.47,0,0,1,.59-.59,3.07,3.07,0,0,1,.4-.26,1.65,1.65,0,0,1,.52-.13c1.11-.11,2.08.19,3,.08a5,5,0,0,1,2.26.59l2,.81,4,1.65,8.38,3.44-1,.41-.49.2-.37.18a6.33,6.33,0,0,0-1.38.85,4.8,4.8,0,0,0-1.6,2.75Z"
           id="path196" />
        <path
           class="cls-10"
           d="M65.9,476.37c-2.37-.89-4.69-1.92-7-3-1.15-.54-2.32-1-3.41-1.67a25.51,25.51,0,0,1-3.16-2.15l0-.08A22.79,22.79,0,0,1,56,470.81c1.15.53,2.22,1.22,3.32,1.85,2.2,1.24,4.4,2.46,6.65,3.62Z"
           id="path198" />
        <path
           class="cls-10"
           d="M264.18,489.91a130.39,130.39,0,0,0-21.62-8.14c-7.41-2.14-14.94-3.87-22.45-5.62Q197.57,470.9,174.94,466c-15.08-3.29-30.2-6.39-45.3-9.57L84.31,447l0-.09c15.21,2.62,30.38,5.51,45.51,8.55s30.21,6.38,45.27,9.77,30.1,6.87,45.11,10.48c7.5,1.81,15,3.6,22.42,5.81a130.2,130.2,0,0,1,21.59,8.34Z"
           id="path200" />
        <path
           class="cls-10"
           d="M228.59,446.76a28.9,28.9,0,0,1-7.86,12.29,23.57,23.57,0,0,1-6.11,4.2,34.38,34.38,0,0,1-3.46,1.29c-1.15.4-2.31.77-3.49,1.1l0-.09c1.08-.59,2.18-1.14,3.28-1.67s2.21-1,3.28-1.53a33.8,33.8,0,0,0,6-3.9,29.77,29.77,0,0,0,8.3-11.73Z"
           id="path202" />
        <path
           class="cls-10"
           d="M208.82,471.77a12.4,12.4,0,0,1-1.32-8.61,11.75,11.75,0,0,1,.64-2.17,3,3,0,0,1,.63-1.1,1.37,1.37,0,0,1,.74-.41,1.25,1.25,0,0,1,.88.18,2.77,2.77,0,0,1,.81,1,8,8,0,0,1,.5,1,7.54,7.54,0,0,1,.52,2.18l-.09,0a19.93,19.93,0,0,0-1.06-1.88c-.19-.3-.39-.58-.6-.86a2,2,0,0,0-.6-.63c-.16-.06-.17-.06-.36.1a2.69,2.69,0,0,0-.47.77,11,11,0,0,0-.76,1.95,12.56,12.56,0,0,0,.63,8.38Z"
           id="path204" />
        <path
           class="cls-10"
           d="M186.72,467.68a15.62,15.62,0,0,1-.88-3.81,7.06,7.06,0,0,1,0-2,3,3,0,0,1,1-1.8,8.88,8.88,0,0,1,3.73-1.43c1.28-.29,2.56-.54,3.86-.73a31.81,31.81,0,0,1,7.86-.29,30.18,30.18,0,0,1,7.64,1.81l0,.1a72.06,72.06,0,0,0-7.68-.91,49.37,49.37,0,0,0-7.69.09c-1.28.14-2.56.34-3.82.57a8.71,8.71,0,0,0-3.55,1.16c-1,.74-1.09,2.15-1,3.4a16,16,0,0,0,.67,3.81Z"
           id="path206" />
        <path
           class="cls-10"
           d="M169.94,464.71c2.49-.49,5-.94,7.47-1.37a36.42,36.42,0,0,1,3.74-.61,24.3,24.3,0,0,1,3.82-.07v.1a24.25,24.25,0,0,1-3.7,1c-1.24.23-2.51.29-3.77.41q-3.76.38-7.56.68Z"
           id="path208" />
        <path
           class="cls-10"
           d="M278.5,459.68a324.47,324.47,0,0,1,.29,47.08c-.52,7.84-1.24,15.68-2.44,23.45l-.23,1.46-.11.73-.06.36c-.05.16-.11.33-.17.48a3,3,0,0,1-1.24,1.18,4,4,0,0,1-.71.36,4.89,4.89,0,0,1-.73.26,16,16,0,0,1-6,.46,36.56,36.56,0,0,1-11.35-3.22l0-.09a40.49,40.49,0,0,0,11.36,2.61,15.81,15.81,0,0,0,5.67-.59,3.87,3.87,0,0,0,2.1-1.38,1.43,1.43,0,0,1,.08-.22l.05-.36.1-.73.2-1.45c1.06-7.77,2-15.55,2.63-23.36a340,340,0,0,0,.41-47Z"
           id="path210" />
        <path
           class="cls-10"
           d="M250.4,289.52a41.56,41.56,0,0,0-1.7-6q-1-2.94-2.33-5.77a58.79,58.79,0,0,0-2.84-5.53l-.82-1.32-.88-1.27c-.32-.4-.64-.8-1-1.19a9.75,9.75,0,0,0-1.11-1,9.09,9.09,0,0,0-1.28-.83l-1.35-.77c-.9-.5-1.82-1-2.74-1.48-1.83-1-3.7-1.87-5.58-2.74-3.77-1.73-7.62-3.29-11.5-4.76-7.76-3-15.73-5.29-23.69-7.68-4-1.2-8-2.42-11.91-3.72l-3-1a22.6,22.6,0,0,0-3-.71c-1-.19-2-.36-3.07-.49-.51-.06-1-.12-1.54-.15a4.21,4.21,0,0,0-1.51.07l-.06-.08a4.09,4.09,0,0,1,1.58-.19c.52,0,1,0,1.56.07,1,.07,2.08.18,3.12.32a22.17,22.17,0,0,1,3.09.6l3,.88,12,3.43c8,2.27,16,4.84,23.7,7.89,3.88,1.52,7.72,3.13,11.49,4.92q2.82,1.34,5.58,2.82l2.73,1.53,1.34.79a9.18,9.18,0,0,1,1.32.88,9.38,9.38,0,0,1,1.16,1.11c.33.41.66.82,1,1.24l.88,1.3.81,1.34a62.11,62.11,0,0,1,2.77,5.61c.83,1.91,1.58,3.86,2.24,5.83a41,41,0,0,1,1.61,6Z"
           id="path212" />
        <path
           class="cls-10"
           d="M50,296.66c2.5-7.91,5.43-15.76,9.78-22.9a45.34,45.34,0,0,1,3.6-5.12,27.48,27.48,0,0,1,2.15-2.31,12.38,12.38,0,0,1,1.24-1c.48-.33.92-.52,1.38-.78,3.65-2,7.3-4,11-5.85s7.46-3.7,11.28-5.35A123.14,123.14,0,0,1,102.14,249a104.69,104.69,0,0,1,24.52-4.49v.1c-4.11.57-8.21,1.2-12.25,2.1s-8,1.95-12,3.24-7.81,2.72-11.64,4.3-7.59,3.33-11.31,5.16-7.39,3.76-11.06,5.7A13.6,13.6,0,0,0,63.79,269a44.9,44.9,0,0,0-3.63,5c-4.4,7-7.46,14.81-10.1,22.67Z"
           id="path214" />
        <path
           class="cls-10"
           d="M93.41,252.56a34.46,34.46,0,0,0,2.36,8.33,23.67,23.67,0,0,0,4.58,7.28,11.43,11.43,0,0,0,1.65,1.37,11.76,11.76,0,0,0,1.9,1A41.94,41.94,0,0,0,108,272c2.78.83,5.59,1.51,8.42,2.15s5.67,1.2,8.52,1.71,5.71,1,8.59,1.23c5.77.52,11.55,1,17.34,1.24,11.55.45,23.23-.31,34.29-3.64a78.1,78.1,0,0,0,15.91-6.73c1.23-.73,2.52-1.44,3.71-2.2a10.32,10.32,0,0,0,2.7-3.22,14.93,14.93,0,0,0,2.14-8.23h.1a14.94,14.94,0,0,1-1.84,8.46,10.6,10.6,0,0,1-2.75,3.47c-1.23.84-2.47,1.56-3.71,2.34a75,75,0,0,1-16,7.08c-11.19,3.5-23,4-34.62,3.48-5.81-.27-11.59-.82-17.37-1.39-2.9-.25-5.77-.79-8.62-1.31s-5.7-1.15-8.53-1.81-5.64-1.37-8.42-2.24a40.34,40.34,0,0,1-4.11-1.49,10.08,10.08,0,0,1-3.63-2.46A23.6,23.6,0,0,1,95.58,261a34,34,0,0,1-2.26-8.4Z"
           id="path216" />
        <path
           class="cls-10"
           d="M173.28,244.85a24.47,24.47,0,0,1,3.42.15c.57.06,1.13.14,1.7.23l.84.17.43.12a1.28,1.28,0,0,1,.45.23c.24.37-.19.81-.37,1a9.94,9.94,0,0,1-.77.7c-.54.44-1.09.84-1.66,1.22a37.83,37.83,0,0,1-3.52,2.13c-1.27.55-2.53,1-3.8,1.55s-2.58.93-3.89,1.31a55.62,55.62,0,0,1-16.21,2.5,81.91,81.91,0,0,1-19.66-2.54c-1.61-.39-3.21-.8-4.8-1.21l-2.39-.64a7.27,7.27,0,0,1-2.28-1.25c-.34-.25-.67-.51-1-.79a3.29,3.29,0,0,1-.88-1,.77.77,0,0,1-.07-.43.66.66,0,0,1,.13-.4.82.82,0,0,1,.24-.3,1.13,1.13,0,0,1,.28-.22,5,5,0,0,1,1.17-.55,17.9,17.9,0,0,1,4.91-.82v.1a19.61,19.61,0,0,0-4.75,1.14,4.84,4.84,0,0,0-1,.56c-.3.23-.47.48-.34.69a3,3,0,0,0,.76.77,11.66,11.66,0,0,0,1,.71,6.49,6.49,0,0,0,2.06,1l2.41.56,4.81,1.09c6.42,1.38,12.89,2.69,19.45,2.72a55.24,55.24,0,0,0,16-2.23c1.31-.35,2.59-.82,3.88-1.23s2.56-1,3.79-1.46,2.38-1.31,3.52-2c.57-.37,1.13-.75,1.66-1.17a9.56,9.56,0,0,0,.75-.66,2,2,0,0,0,.29-.35c.06-.1.13-.25,0-.36a1,1,0,0,0-.29-.14c-.13-.05-.27-.08-.4-.12s-.55-.13-.83-.18c-.56-.11-1.12-.19-1.68-.27a24.17,24.17,0,0,0-3.4-.22Z"
           id="path218" />
        <path
           class="cls-10"
           d="M152.57,334.54a4.81,4.81,0,0,0,3.17.41,10.73,10.73,0,0,0,3.07-1.09,28.76,28.76,0,0,0,5.42-3.65,46.5,46.5,0,0,0,8.52-9.93c2.42-3.64,4.52-7.5,6.63-11.34s4.1-7.76,6-11.71a199.22,199.22,0,0,0,9.78-24.37c1.34-4.17,2.52-8.38,3.51-12.65.45-2.15.93-4.29,1.28-6.45a19,19,0,0,0,.45-3.23,2.33,2.33,0,0,0-.45-1.46,1.75,1.75,0,0,0-1.46-.42v-.1a1.89,1.89,0,0,1,1.61.38,2.49,2.49,0,0,1,.6,1.59,18.11,18.11,0,0,1-.29,3.31c-.26,2.19-.66,4.35-1,6.52a128.4,128.4,0,0,1-3.24,12.81,163.74,163.74,0,0,1-10,24.42c-1.95,3.94-4,7.84-6.14,11.67s-4.31,7.67-6.81,11.31a46.69,46.69,0,0,1-8.72,9.89,29.66,29.66,0,0,1-5.53,3.6,11.17,11.17,0,0,1-3.14,1.05,4.92,4.92,0,0,1-3.24-.47Z"
           id="path220" />
        <path
           class="cls-10"
           d="M153.48,359.58c-.21-5.45-.19-10.91.13-16.36.1-1.37.35-2.72.39-4.06a5.74,5.74,0,0,0-.24-2,3.5,3.5,0,0,0-1.09-1.58,5.9,5.9,0,0,0-.8-.59l-.88-.47c-.62-.3-1.24-.59-1.83-.93a35.09,35.09,0,0,1-3.53-2.12,41.73,41.73,0,0,1-11.23-11.89q-4.53-6.83-9-13.71a270.62,270.62,0,0,1-16.29-28.41c-2.37-4.92-4.54-9.95-6.42-15.08a72.53,72.53,0,0,1-2.52-7.81,11.9,11.9,0,0,1-.34-4.12,2.71,2.71,0,0,1,1-1.84,2.75,2.75,0,0,1,2-.38v.1a2.66,2.66,0,0,0-1.88.44,2.49,2.49,0,0,0-.82,1.72,11.46,11.46,0,0,0,.49,4,79.57,79.57,0,0,0,2.73,7.67c2,5.06,4.25,10,6.67,14.89,4.83,9.75,10.29,19.19,16.07,28.43,2.89,4.61,5.85,9.2,8.82,13.77a41.16,41.16,0,0,0,11,11.84,37.46,37.46,0,0,0,3.46,2.14c.59.34,1.2.63,1.8.94l.92.5a6.43,6.43,0,0,1,.84.64,4,4,0,0,1,1.19,1.75,6.22,6.22,0,0,1,.23,2.09c-.06,1.38-.32,2.72-.44,4.07-.38,5.43-.47,10.89-.33,16.34Z"
           id="path222" />
        <path
           class="cls-10"
           d="M151.36,399.26a32,32,0,0,1-13.08-21.69,17.16,17.16,0,0,1,.22-6.54,13.3,13.3,0,0,1,1.2-3.08,14.91,14.91,0,0,1,1.91-2.69,19.73,19.73,0,0,1,11.43-6.1,11.88,11.88,0,0,1,6.61.53,9,9,0,0,1,4.53,4.89A19.43,19.43,0,0,1,165.6,371a31.37,31.37,0,0,1-.19,6.57,32.73,32.73,0,0,1-12.93,21.95l-.07-.08a34,34,0,0,0,12-22,33,33,0,0,0,.16-6.36,19.35,19.35,0,0,0-1.3-6.15,8.06,8.06,0,0,0-4-4.46,10.94,10.94,0,0,0-6.12-.56,19.06,19.06,0,0,0-11.07,5.74,14.55,14.55,0,0,0-1.86,2.56,12.4,12.4,0,0,0-1.18,2.93,16.62,16.62,0,0,0-.3,6.33,31.84,31.84,0,0,0,12.66,21.66Z"
           id="path224" />
        <path
           class="cls-10"
           d="M264.78,535l-1.54-.37-.19,0s-.06,0-.06,0h0s.09,0,.05,0a2.52,2.52,0,0,0-.33-.15l-.75-.25-3-.93-6-1.85-12.09-3.65-24.23-7.13c-16.17-4.7-32.36-9.35-48.5-14.15s-32.26-9.69-48.21-15.12S88.16,480,72.64,473.49l0-.09q23.58,9.06,47.56,17t48.12,15.3c16.11,4.89,32.27,9.63,48.41,14.45L241,527.42,253,531.16l6,1.9,3,1,.75.26a2.18,2.18,0,0,1,.38.18c.06.07-.16,0-.09,0l.19,0,1.53.38Z"
           id="path226" />
        <path
           class="cls-10"
           d="M9.08,521a12.46,12.46,0,0,0,7,2.28,29.62,29.62,0,0,0,7.38-.76c4.85-1.1,9.68-2.38,14.47-3.72q14.38-4.05,28.35-9.39c4.64-1.8,9.23-3.75,13.85-5.63l3.47-1.42,1.73-.7,1.76-.64c2.36-.84,4.74-1.62,7.14-2.32a278.49,278.49,0,0,1,29.2-6.55l0,.09c-9.7,2.32-19.44,4.47-28.94,7.42-2.37.72-4.73,1.51-7.07,2.34l-1.75.63-1.73.69-3.47,1.38c-4.63,1.83-9.25,3.7-13.92,5.46-9.35,3.5-18.88,6.52-28.51,9.11-4.82,1.29-9.65,2.51-14.54,3.55a30.06,30.06,0,0,1-7.45.67,12.68,12.68,0,0,1-7-2.41Z"
           id="path228" />
        <path
           class="cls-10"
           d="M11,491.29a175.42,175.42,0,0,1,32.25-11.21,147.41,147.41,0,0,1,16.81-3.21,130,130,0,0,1,17.07-1v.1c-5.67.5-11.32,1.1-16.94,1.93s-11.21,1.75-16.76,3a184.8,184.8,0,0,0-32.39,10.53Z"
           id="path230" />
        <path
           class="cls-10"
           d="M9.92,521.88a19.92,19.92,0,0,1-2.81-2.37,19.28,19.28,0,0,1-2.26-2.9,22,22,0,0,1-2.72-6.8,39.76,39.76,0,0,1-.2-14.63c.72-4.86,2-9.59,3.06-14.36L8.3,466.53c4.36-19.06,8.43-38.19,12.54-57.31S29.07,371,33.94,352s10.21-37.78,16.2-56.4l.1,0c-5.47,18.78-10.63,37.64-15.33,56.61s-9.09,38-13.29,57.14S13.26,447.6,8.78,466.64l-3.4,14.28c-1.11,4.76-2.4,9.48-3.15,14.3a39.48,39.48,0,0,0,.1,14.54A21.72,21.72,0,0,0,5,516.53a18.81,18.81,0,0,0,2.22,2.89A19.12,19.12,0,0,0,10,521.79Z"
           id="path232" />
        <path
           class="cls-10"
           d="M101.56,582.54c-6.13.21-12.32.48-18.24,2.08a43.42,43.42,0,0,0-8.55,3.29c-2.72,1.37-5.36,3.06-8.42,3.82a8.65,8.65,0,0,1-4.68,0l-.65-.25-.2-.08c-.07,0-.16,0-.12-.13l.08-.41a3.4,3.4,0,0,1,.17-.67,4,4,0,0,1,.26-.56,9.52,9.52,0,0,1,1.43-1.88c1-1.12,2.17-2.25,2.25-3.67s-1-2.77-.81-4.52a4.18,4.18,0,0,1,1-2.23,10.48,10.48,0,0,1,1.81-1.54A25.21,25.21,0,0,0,70.56,573a2.18,2.18,0,0,0,.57-.79.58.58,0,0,0-.17-.67,8.6,8.6,0,0,0-.9-.61,1.91,1.91,0,0,1-.82-1.11,2.72,2.72,0,0,1,.76-2.47,4.13,4.13,0,0,1,2.23-1.12c.79-.17,1.56-.24,2.27-.39a7.77,7.77,0,0,0,2-.76,10.15,10.15,0,0,0,3.31-2.88,20.87,20.87,0,0,0,3.37-8.28q1.92-9,3.66-18A216.39,216.39,0,0,0,91,501.3h.18l0,1.92H91L91,501.3h.18a183,183,0,0,1-3.3,34.79c-1.09,6-2.34,12.06-3.68,18.08a21.56,21.56,0,0,1-3.62,8.6,11.13,11.13,0,0,1-3.63,3.08,8.66,8.66,0,0,1-2.27.81c-.78.16-1.55.22-2.27.37a3.42,3.42,0,0,0-1.83.87,2,2,0,0,0-.59,1.74,1.13,1.13,0,0,0,.52.69,9.41,9.41,0,0,1,1,.7,1.33,1.33,0,0,1,.34,1.44,2.85,2.85,0,0,1-.75,1.06,25.5,25.5,0,0,1-3.74,2.78c-1.22.85-2.45,1.88-2.61,3.29s.87,2.75.78,4.48a4.49,4.49,0,0,1-.91,2.26,20.2,20.2,0,0,1-1.54,1.76,9.49,9.49,0,0,0-1.37,1.76,4.31,4.31,0,0,0-.22.49,3.4,3.4,0,0,0-.14.44l0,.15c0,.06.06,0,.09.07l.43.17a8.05,8.05,0,0,0,4.41.07c3-.7,5.59-2.34,8.35-3.7a43.71,43.71,0,0,1,8.65-3.23c6-1.55,12.19-1.74,18.31-1.88Z"
           id="path234" />
        <path
           class="cls-10"
           d="M241.26,585.9a50.8,50.8,0,0,0,5.64-.56c.93-.15,1.86-.31,2.78-.51a3.19,3.19,0,0,0,2.26-1.36,5.76,5.76,0,0,0,.7-2.62,4.52,4.52,0,0,0-1-2.5,28.29,28.29,0,0,0-4.09-3.85,17.84,17.84,0,0,1-3.63-4.44,8.56,8.56,0,0,1-.66-1.32,2.11,2.11,0,0,1,0-1.6,3.25,3.25,0,0,1,1-1.15,2.14,2.14,0,0,0,.79-.93c.25-.71-.35-1.51-1.05-2a9,9,0,0,0-2.57-.91,5.56,5.56,0,0,1-1.38-.6,2.52,2.52,0,0,1-.33-.24c-.09-.07-.26-.25-.39-.38-.49-.28.08-.66.21-.93l1.39-1.88-.15-.06-10.6-4.51a8.55,8.55,0,0,1-2.63-1.53,3.14,3.14,0,0,1-.87-1.46,3.09,3.09,0,0,1,.09-1.71,4.24,4.24,0,0,1,2.13-2.38,9.56,9.56,0,0,1,2.91-.85c.23,0,.16,0,.18,0v-.4c0-.47,0-1,0-1.42,0-.95-.09-1.91-.16-2.86q-.22-2.85-.65-5.69a63,63,0,0,0-2.64-11.15l.1,0a53.14,53.14,0,0,1,3.23,11.08q.54,2.83.84,5.72c.09,1,.17,1.93.22,2.9,0,.48.06,1,.06,1.45l0,1c.11.32-.27.23-.46.3l-.55.09a8.67,8.67,0,0,0-2.59.77,3.27,3.27,0,0,0-1.62,1.8,1.93,1.93,0,0,0,.51,2.11,7.88,7.88,0,0,0,2.31,1.36l10.52,4.67,1.06.47-2,2.66c-.16.19-.13.15.3.48a4.85,4.85,0,0,0,1.2.53,9.81,9.81,0,0,1,2.74,1,3.73,3.73,0,0,1,1.07,1.13,1.93,1.93,0,0,1,.2,1.63,2.66,2.66,0,0,1-1,1.21,3,3,0,0,0-.88.91c-.32.69.17,1.59.62,2.38a17.39,17.39,0,0,0,3.45,4.37,28,28,0,0,1,4.1,4,4.3,4.3,0,0,1,.78,4.16,5,5,0,0,1-.56,1.35,3.53,3.53,0,0,1-2.47,1.45c-.93.19-1.86.33-2.81.46a50.8,50.8,0,0,1-5.66.46Z"
           id="path236" />
        <path
           class="cls-10"
           d="M82.73,581.85l39.49.86c6.58.15,13.16.29,19.73.11,3.28-.1,6.56-.27,9.83-.59l9.81-1.06c6.55-.7,13.07-1.53,19.65-2.08s13.18-.78,19.77-.73,13.19.37,19.76,1a156.57,156.57,0,0,1,19.51,3.11l0,.1a186.42,186.42,0,0,0-19.56-2.51c-6.55-.52-13.12-.75-19.69-.73s-13.14.24-19.69.72-13.09,1.24-19.64,1.88l-9.83,1c-3.29.29-6.59.44-9.89.51-6.59.14-13.18-.06-19.76-.27L82.72,582Z"
           id="path238" />
        <path
           class="cls-10"
           d="M58.34,659.66c3.67-11.34,4.94-23.22,6.4-35,.72-5.9,1.42-11.82,2.67-17.66a81.79,81.79,0,0,1,5.39-17l.09,0a119.41,119.41,0,0,0-4.5,17.19c-1.11,5.82-2,11.68-2.86,17.57-1.63,11.74-3.14,23.66-7.1,34.92Z"
           id="path240" />
        <path
           class="cls-10"
           d="M257.22,670.42Q254,648,249.69,625.83c-1.45-7.4-3.07-14.76-4.62-22.13l-4.71-22.12.1,0c2.08,7.25,3.91,14.58,5.59,21.93s3.08,14.78,4.43,22.2q4.1,22.26,6.84,44.73Z"
           id="path242" />
        <path
           class="cls-10"
           d="M190.78,469.17l4.73-.61c1.57-.2,3.14-.42,4.72-.59l2.37-.28a12,12,0,0,1,2.42-.14,1.9,1.9,0,0,1,.35.08.58.58,0,0,1,.34.33,2.12,2.12,0,0,1,0,.68l0,1.19c0,.79,0,1.59-.12,2.38,0,0,0,0,0,0s0,0,0,0c-.08-.79-.13-1.58-.18-2.38l0-1.19a2,2,0,0,0-.05-.5c0-.05-.11-.07-.32-.1a20.89,20.89,0,0,0-2.32.14l-2.37.18c-1.58.12-3.16.28-4.74.42l-4.74.44a0,0,0,0,1,0,0Z"
           id="path244" />
        <path
           class="cls-10"
           d="M205.27,461.66a39.8,39.8,0,0,0-10.23.09,39,39,0,0,0-5,1l-.61.18-.41.12-.07.41c0,.21-.06.41-.08.62a10.28,10.28,0,0,0,0,1.24c0,.21,0,.42,0,.62l0,.16s0,.06,0,.06l2.25-.05,2.56-.07c1.71-.06,3.41-.16,5.12-.26s3.4-.22,5.11-.37a5.53,5.53,0,0,0,1.13-.16c.2-.08.24-.53.27-.95a19.86,19.86,0,0,0,0-2.56h.1a14.79,14.79,0,0,1,.31,2.58,5,5,0,0,1,0,.67,1.05,1.05,0,0,1-.39.76,1.76,1.76,0,0,1-.73.25l-.64.11c-1.7.29-3.41.52-5.13.68s-3.44.24-5.17.25c-.86,0-1.72,0-2.58,0l-2.9-.06c-.13.05-.08-.11-.1-.19l0-.28,0-.49c0-.22,0-.44,0-.66a9.8,9.8,0,0,1,.09-1.33c0-.22.06-.44.09-.66l.07-.33c0-.17.07-.35.12-.52l.82-.22.63-.15a39.24,39.24,0,0,1,15.41-.57Z"
           id="path246" />
        <path
           class="cls-10"
           d="M165.66,190.9c.74,13.68,1.89,27.31,3.21,40.94.28,3.4.52,6.83.75,10.24.16,1,.16,2.39,1.07,3.06.06,0,0,.12-.05.09-1-.63-1.14-2-1.38-3.1-.47-3.41-.94-6.79-1.34-10.2-1.37-13.52-2.14-27.74-2.26-41Z"
           id="path248" />
        <path
           class="cls-10"
           d="M126.34,186a456.2,456.2,0,0,1,1,46.63c-.1,2.59-.16,5.18-.31,7.76a26.09,26.09,0,0,1-.54,5.84,2.14,2.14,0,0,1-1.15,1.56c-.06,0-.09-.07,0-.09a2,2,0,0,0,.93-1.54c.5-4.47,0-9.05.14-13.55.36-15.44.59-31.46,0-46.61Z"
           id="path250" />
      </g>
    </g>
  </g>
  <g
     inkscape:groupmode="layer"
     id="layer1"
     inkscape:label="Layer 1" />
</svg>
