<svg id="artwork" xmlns="http://www.w3.org/2000/svg" xmlns:xlink="http://www.w3.org/1999/xlink" viewBox="0 0 300 626"><defs><style>.cls-1{fill:none;}.cls-2{clip-path:url(#clip-path);}.cls-3{fill:#d9c3b0;}.cls-4{fill:#f2dfce;}.cls-5{fill:#825813;}.cls-6{fill:#bfa68f;}.cls-7{opacity:0.7;}.cls-8{fill:#e1cfc0;}.cls-9{fill:#f5d6c0;}.cls-10{fill:#2d2d2d;}.cls-11{fill:#d6a190;}.cls-12{fill:#d7d7ce;}.cls-13{fill:#f29178;}.cls-14{fill:#f18974;}.cls-15{fill:#959c70;}.cls-16{fill:#facd78;fill-rule:evenodd;}.cls-17{fill:#998466;}.cls-18{fill:#9c906d;}.cls-19{fill:#e9ae8c;}.cls-20{fill:#879d7e;}</style><clipPath id="clip-path"><rect class="cls-1" x="-134.32" y="-132.01" width="569.59" height="759.82" rx="12"/></clipPath></defs><g class="cls-2"><g id="head_neutral"><g id="head_neutral_colour"><path class="cls-3" d="M214.11,129.64a22.11,22.11,0,0,1,0-2.44c-.06-2.5-.27-5-.36-7.49-.38-10.65-2.36-21-4.24-31.47-1.32-7.26-3.77-12.71-6.43-19.62a37.68,37.68,0,0,0-6.44-10c-2.53-2.94-3.2-6.82-6.46-9-3.49-2.35-7.71-4.21-11-6.84-1.6-1.29-2.82-3.44-2.74-1.8.21,4.43-.2,14.64-.34,19.08a64.57,64.57,0,0,1-8.33,28.81,61.54,61.54,0,0,1-4.93,7.55c-1.7,2.16-4,3.74-6,5.57-1.79,1.62-3.18,3.5-5.59,4.26a3.21,3.21,0,0,1-1.91.12c-.62-.19-2.13-2.07-2.06-2.72a39,39,0,0,1-1.57,5,22.44,22.44,0,0,1-2.49,4.94,4.37,4.37,0,0,1-1.24,1.22c-.63.36-.82,1.06-1.48.76-.11.43-.69.19-1.1.35-.77-.87-.09-2.46.07-3.57.46-3.1,1.55-6,2.26-9.11a209.62,209.62,0,0,0,5.63-41.41c.06-2,.25-4.53.17-6.49-.07-1.58.67-2.86.33-4.41a.81.81,0,0,0-.16-.38.62.62,0,0,0-.82,0,2.1,2.1,0,0,0-.48.75c-1.53,3.27-4.68,5-7.9,6.27a47,47,0,0,0-7.51,3.49,15.64,15.64,0,0,0-3.22,2.31c-.93,1-1.12,2.44-1.69,3.62-1.07,2.22-3.37-7.25-5.75-6.61-7,1.89-3.26-1.69-9.92,3.41-4.25,3.25-8.47,4.06-13,6.82-2.3,1.39-4.6,3.79-6.9,5.18-2,1.24-5.17,10.23-7.46,10.84-.71.19-4.13,26.95-4.11,27.86.19,6.9,1.11,13.79,1.56,20.69.71,10.65,6.17,18.85,12.91,26.51a108.27,108.27,0,0,0,16,14.7c5.07,3.73,15.88,8.94,16,11.37.11,2.2.87,4.32,1,6.53a238.1,238.1,0,0,1-1.12,30.56c-.44,5.09-.94,10.18-1.39,15.27-.36,4-.33,8.5-1.64,12.36-.87,2.57-11.54,5.18-8.18,6.83,9,4.38,20.39,4.13,30.19,4.22a179.37,179.37,0,0,0,19.39-.88c5.41-.54,13-.38,17.46-3.85,5.31-4.09,3.07-13.69-3.94-14.18-2.15-.14-8-.95-8-.95s-.33-2.35-.42-3.74c0-10.72-1.84-19.21-2.49-29.91-.34-5.62-.83-19.11-.83-19.11s8.8-5.92,10.75-7a67.65,67.65,0,0,0,15.52-12.75c7.28-8.13,6.86-9.32,12.7-18.59C209.17,145,214.39,131.67,214.11,129.64Z"/><path class="cls-4" d="M230.31,99.4h.12v18.83h-.12Z"/><path class="cls-4" d="M71.45,102.75c-.32,12.3,8,24.4,5.15,36.72a1.4,1.4,0,0,1-1,1.16,6.55,6.55,0,0,1-2.14.1c-4.56-.15-11.4,3.88-14.45.28-5.89-7-3-18.49-3.83-26.07a43.43,43.43,0,0,1-.4-6.73,22.49,22.49,0,0,1,3.58-10.87C59.2,96,61,95,63.57,94.47a6.61,6.61,0,0,1,5.27.89c1.85,1.41,3.06,2.92,2.82,4.69A24.54,24.54,0,0,0,71.45,102.75Z"/><path class="cls-4" d="M71.68,103.22c-.31,12.3,8,24.4,5.16,36.72a1.4,1.4,0,0,1-1,1.16,6.55,6.55,0,0,1-2.14.1c-4.55-.15-11.39,3.88-14.44.28-5.9-7-3-18.49-3.84-26.07a46.05,46.05,0,0,1-.4-6.73,22.51,22.51,0,0,1,3.59-10.87c.82-1.36,2.57-2.34,5.19-2.87a6.67,6.67,0,0,1,5.28.89c1.85,1.41,3.06,2.92,2.81,4.69A24.54,24.54,0,0,0,71.68,103.22Z"/><path class="cls-4" d="M230.11,100.44a39.16,39.16,0,0,1,.3,6.76l-.15,12.07a4.44,4.44,0,0,1-.16,1.31,8.44,8.44,0,0,1-.51,1c-1.16,2.16-.75,5.42-.92,7.78L228,138a3.81,3.81,0,0,1-4.25,3c-2.22-.55-2.28-4.39-2.47-6l-1.86-15.48-.34-2.85c-.26-2.22-.53-4.45-.77-6.67q-.57-5.37-.93-10.74c-.15-2.32-.26-4.8,1-6.9,1.49-2.43,4.83-1.76,6.94-.27a11.82,11.82,0,0,1,4.44,7C229.94,99.51,230,100,230.11,100.44Z"/><path class="cls-4" d="M157,66.9a26.84,26.84,0,0,1,.72-5.05,1.7,1.7,0,0,1,.18,1.45c-.25,1.4-.52,2.8-.78,4.2C156.89,67.33,157,67.1,157,66.9Z"/><path class="cls-4" d="M157,66.9c0,.2-.08.43.12.6a13.43,13.43,0,0,1-.47,2.16h0A14.28,14.28,0,0,1,157,66.9Z"/><path class="cls-4" d="M156.62,69.66v.61c-.15-.31-.17-.47,0-.61Z"/><path class="cls-5" d="M75.46,272.4c-1.8-10.63-7.8-171.16-6.81-184.56-.06-11,.09-30.92,2.12-47C72,31,79,25.27,86,19.65c17.19-13.73,38.89-14.5,46.61-14.49a46.23,46.23,0,0,1,13.7,2.07s2.07-5.84,7.07-6.46c2.09-.25,6.74.42,14.15,2.73S190.85,11.31,194.88,15c1.8,1.63,10,5.61,13.37,13.93,3.3,8,5.88,25,7.18,36.36,2.34,20.59,4.34,50.81,5.06,73.53s4.59,74.87,5,82.32,2.8,51.39,3.3,53.94-28.2-11.2-33.29-12.74c-3-.9-10.06-14-15.05-16.8-2.82-1.59-11.33-1.18-11.33-1.18a80.41,80.41,0,0,1-1-11.42c.16-3.89-2.55-24.47-2.91-27.63s-.41-14.54-.41-14.54,18.36-11.82,20-13.44c6.73-4.9,16-18,17.63-20.57s9.75-19.89,10.91-24.66c1.1-4.57-.64-9.79-1.19-15.76s-1.9-22.81-4.15-30.45c-2-6.64-4.12-19-9.42-25.69-4.69-5.94-15.15-13.81-21-16.21-1.41-.59-1.25.27-1,1.78,1.43,9.61-1.81,31.58-6.24,40.55-5.52,11.19-13.18,18.26-16.41,21.44s-4.79,3.32-4.79,3.32l-1.68-7.38a57,57,0,0,1-4.29,10.13c-1.93,3.34-4.59,5.61-5.49,5,0,0,8.79-35.43,8.79-44.93,0-8.29,1.1-22.13,1.1-22.13s-6.08,7.35-8.92,8.39-8.57,3.38-8.57,3.38S112.84,85.8,105.63,93.06s-25.58,15.86-25.58,15.86-.61,8.27-.49,12.53-.21,23,6.22,30.49c8.41,9.83,23,24.06,27.35,26.8s11.4,7.29,14.4,8.9c1.54.83.7,67.47.7,67.47s-20.38,1.71-25.18,3.61C97.45,260.93,75.46,272.4,75.46,272.4Z"/></g><g id="head_neutral_shading_dark"><path class="cls-6" d="M147.09,62.92c.34-4.23.46-11,.46-11-5.5,8.38-17.6,11.55-19.35,11.74-.26.63-.53,1.26-.82,1.88-1.3,4.91-6.69,10.64-9.36,15,7.76-6.07,15.55-8.31,20.16-10.73C143.19,67.19,144.78,64.6,147.09,62.92Z"/><path class="cls-6" d="M79.54,105.09a75.89,75.89,0,0,0,4.12-7.27c1.64-2.94,4.59-6,6.59-9.17,1.76-2.79,3.11-4.13,5.38-9.33,1.65-3.76,4.47-8.48,4.19-8.38C89,74.77,82.33,86.75,80.6,93.94A56.43,56.43,0,0,0,79.54,105.09Z"/><path class="cls-6" d="M91.76,147.55c-7.28-13.36-3.29-28.15-2.55-43C86,106.16,82,107.88,80,108.66c-.5,16.63-1.81,36,7.49,45.44,8.29,12.23,14.12,16.47,30.35,27.59C108.87,174.58,98.42,159.78,91.76,147.55Z"/><path class="cls-6" d="M140.74,193.33s-9.34-4.19-15.78-6.92l1,.5c.66,4.9,2,34.3.84,42.24-.43,3-.79,17-.79,17s-9.09-1.07-10.56.68c-2.6,3.11-11.18,17.29-11.18,17.29a203.49,203.49,0,0,0,21.07-.59c5.65-12.71,3.74-39.56,6.25-56.79C133.13,196,140.74,193.33,140.74,193.33Z"/><path class="cls-6" d="M63.21,103.69c-1.29,7-1.36,14.14-1.28,21.24,0,3.75-.56,10.53,1.41,13.67,9.71-2.67,5-21.34,5-28.09,0-3.35.21-6.86-1.23-9.89-.25-.51-.64-1.07-1.21-1.1a1.54,1.54,0,0,0-1.14.65,7.23,7.23,0,0,0-1.51,3.49Z"/><path class="cls-6" d="M221.67,100.23c6.09.87,5,14.84,4.86,18.81-.13,5,.58,19.19-4.07,22.48a3.55,3.55,0,0,1-.7-2.12c-.44-4.39-1.95-14.44-2.29-18.58-.39-4.64-1.29-9.23-1-13.91.09-1.63,0-5.2,1.69-6.24A2.3,2.3,0,0,1,221.67,100.23Z"/></g><g id="head_neutral_shading_light" class="cls-7"><path class="cls-8" d="M221.37,96.71a17,17,0,0,1,6.88,11c.4,3-4.21,32.85-.45,33.48,3.13.51,3.15-9.07,3.21-11.5.35-14.12,2.09-29.84-3.55-35.48a10.59,10.59,0,0,0-9.21-2.8C215.57,92.15,220.3,96,221.37,96.71Z"/><path class="cls-8" d="M185.37,58.12c2.37,5,4.21,8.08,7.06,14.12,9,19.06,21.28,45.42,13.43,65.15-6.61,16.61-18.35,32.3-18.35,32.3s-29.39,25.06-20,19.49,16.72-9.25,25-20.52,18.75-23.49,20.58-36.95-1.71-24.12-3.21-35.84-5-23-10.43-31.46-15.38-18.47-22.62-20.06c-.39-.08.47,2.27,4.85,6.36"/><path class="cls-8" d="M158.43,197c.42,15.71-1.94,40.18-2.27,44.82-.41,5.65,1.34,19.53,1.34,19.53s19.75-10,23.66-14.72c2.27-2.74-11.88-2.36-11.88-2.36s-.81-7.6-1.94-14.65-.54-10.51-1.06-19.26-1-21.22-1-21.22Z"/><path class="cls-9" d="M62.72,98.53c-2.66,5.85-1.49,21.88-2.18,26.93s-.14,19.25-1.36,12.86-1.55-20.67-1.67-26.6a113.86,113.86,0,0,1,.79-13.48s.71-2.91,2.4-2.81S62.72,98.53,62.72,98.53Z"/></g><g id="head_neutral_outline"><path class="cls-10" d="M87.71,155.66c-.19,32.82,2,66,1.73,98.81,0,.06-.1.06-.1,0-1.56-32.66-2.34-66.42-1.63-98.81Z"/><path class="cls-10" d="M106.12,174.31c1.61,26.16,3.08,52.33,3.62,78.54,0,.06-.09.07-.1,0-2.36-26-2.44-52.77-3.52-78.55Z"/><path class="cls-10" d="M185.89,177.14c.81,20.68,2.75,49.67,2.52,70.07,0,.06-.1.07-.1,0-1.58-20.12-2.05-49.93-2.42-70.08Z"/><path class="cls-10" d="M200.66,160.42c1.44,29.42,3.25,59,.58,88.41,0,.06-.1,0-.1,0,.85-29.37.43-59.33-.48-88.4Z"/><path class="cls-10" d="M210.64,141.05a542.85,542.85,0,0,1,4.07,62.68c.08,10.48-.24,21-.77,31.42s-1.26,21-4.65,31a0,0,0,1,1-.09,0c2.9-10.09,3.38-20.6,3.79-31,.92-20.9,1.39-41.84.1-62.74-.48-10.36-1.72-21.26-2.45-31.31Z"/><path class="cls-10" d="M206.11,75.85C218.3,135,224.14,195.94,222,256.33c-.05,0-.5,12.17-.64,12.14s.23-12.15.18-12.15c1.08-60.29-3.89-121.57-15.43-180.47Z"/><path class="cls-10" d="M73.6,111.27c1.07-.39,3.52-1.32,4.54-1.7l4.45-1.93,4.33-2.17,4.22-2.4,4.08-2.6,3.94-2.81a98.78,98.78,0,0,0,9.75-8.44c1.33-1.23,3.2-3.33,4.46-4.66s3-3.53,4.07-5c1.44-1.81,3.37-4.65,4.64-6.58l2.51-4.12c.83-1.56,2.27-4.09,3-5.7,3.35-6.73,5.55-14.14,9.77-20.44a28.44,28.44,0,0,1,4.2-4.95c0-.05.11,0,.07.07-6,6.36-8.35,14.93-11.75,22.81a91.67,91.67,0,0,1-20.47,29.05c-1.66,1.66-4.27,3.9-6,5.41s-4.57,3.53-6.52,4.82c-1.48,1.08-3.92,2.49-5.48,3.48s-4.09,2.3-5.73,3-4.29,2-5.91,2.65c-.72.32-2.26.92-3,1.17l-3.05,1.08c-.06,0-.09-.07,0-.09Z"/><path class="cls-10" d="M138.21,19.7C109.46,32.92,105.29,68,88.81,91.84c-5.49,8.17-11.15,16.87-14.4,25.9A63,63,0,0,1,80.2,104c2.4-4.36,5.13-8.52,7.76-12.71,5.5-8.26,9.82-17.16,13.91-26.2,7.85-17.56,17.66-37.9,36.34-45.4Z"/><path class="cls-10" d="M148.18,51A24.6,24.6,0,0,1,133.35,62.6a31.16,31.16,0,0,0-6,1.88s-.1,0-.06-.08c3.38-2.72,7.94-2.92,11.62-5a25.27,25.27,0,0,0,9.2-8.44c0-.06.12,0,.09,0Z"/><path class="cls-10" d="M147.47,50.53a232.31,232.31,0,0,1-9.36,68.26l-.46-.41c5.77-2.5,7.75-9.1,9.33-14.69a.41.41,0,0,1,.78,0l1.79,7.15-.64-.28a46.45,46.45,0,0,0,14.17-13.29c11.33-16.21,15.2-36.94,13-56.37,3.15,19.43-.83,40.65-12.21,57a46.38,46.38,0,0,1-14.55,13.47.43.43,0,0,1-.59-.16.61.61,0,0,1-.05-.12L147,103.9h.78c-1.27,4.39-2.72,9-6,12.45-.5.64-4.44,3.71-4.33,2.24,6.72-21.93,9.82-45.44,10-68.07Z"/><path class="cls-10" d="M157.63,63.71C156,78,152.1,92.38,144.25,104.54c0,0-.12,0-.09-.05,3-6.54,5.89-13.09,8.29-19.87s3.91-14.22,5.18-20.91Z"/><path class="cls-10" d="M177.43,43.92c15.82,5.71,28.75,21,29.61,38.15,0,.05-.09.07-.1,0-2.8-16.83-13.88-31.73-29.51-38.16Z"/><path class="cls-10" d="M167.57,20.41c10.05,1.53,18.74,7.85,25.54,15.14,13.74,15.09,19.33,35.77,20.69,55.72a251.26,251.26,0,0,1,.06,30.18c-.41-20-.18-40.4-6.5-59.57-6.09-18.56-20-37.38-39.79-41.47Z"/><path class="cls-10" d="M75.41,274.28c-1.52-26.9-4.49-80.9-5.92-107.79C68,137.3,67.3,107.92,70.72,78.83c.49-4.47,1.12-8.93,1.86-13.37l1.16-6.65c-9.95,61.55,0,152.8,1.67,215.47Z"/><path class="cls-10" d="M216.77,91.36a11.09,11.09,0,0,1,13.9,6.72c.88,2.77.61,5.67.56,8.45L231,115c-.24,7-.16,14.07-.81,21.09-.29,2.1-1.11,4.57-3.21,5.53-1.86.93-5.27.18-5.23-2.23.44,2.17,3.23,2.64,5,1.71,3.06-1.89,2.63-6.11,2.77-9.28.22-8.12.74-17.11,1.07-25.27.1-2.8.41-5.64-.39-8.28-1.68-5.57-8.17-8.4-13.42-6.87Z"/><path class="cls-10" d="M70.15,94.13a10.78,10.78,0,0,0-13.38,6.77c-.8,2.64-.49,5.48-.39,8.28.33,8.18.86,17.14,1.07,25.27.14,3.17-.28,7.39,2.77,9.28,1.76.93,4.54.46,5-1.71,0,2.41-3.37,3.16-5.23,2.23-2.11-1-2.93-3.43-3.21-5.53-.81-9.6-.67-19.86-1-29.52,0-2.78-.32-5.68.57-8.45,1.7-5.5,9-8.93,13.85-6.62Z"/><path class="cls-10" d="M80,109.15c-.61,11.35-.65,23,1.69,34.13,1.12,4.47,4,8.17,6.58,11.87,4,5.57,8.21,11,13.55,15.33A100.43,100.43,0,0,0,113,178.29c7.76,4.78,15.42,9.91,23.91,13.27,6.29,2.17,13.23,4.41,19.75,1.9a60.49,60.49,0,0,0,6.3-2.6c4.35-1.48,8.09-4,11.79-6.73s7.4-5.34,10.94-8.22c10.51-8.71,18.1-20.66,23.56-33.1A110.4,110.4,0,0,0,214,129.87,83.88,83.88,0,0,1,209.72,143c-5.36,12.63-12.8,24.75-23.36,33.69-3.56,2.9-7.25,5.63-11,8.27s-7.56,5.33-12,6.81c-4.1,1.87-8.53,3.82-13.28,3.74s-9.07-1.67-13.45-3.19c-8.55-3.45-16.19-8.63-24-13.47a104.48,104.48,0,0,1-11.25-7.92c-5.35-4.37-9.61-9.88-13.55-15.51-2.6-3.75-5.45-7.52-6.55-12-1.52-6.72-1.69-13.65-1.87-20.51,0-4.47-.12-9.57.51-13.71Z"/><path class="cls-10" d="M126.2,13.7C102.49,26.76,89,52.8,83.36,78.46c-2,8.67-2.72,17.67-3.8,26.47a157,157,0,0,1,2.82-26.68c5.69-25.62,20-52.32,43.82-64.55Z"/><path class="cls-10" d="M100.23,70.84C85.62,75,81,91.39,79.61,104.88a.05.05,0,0,1-.1,0c-.7-13.73,6.36-30.93,20.72-34Z"/><path class="cls-10" d="M79.09,108.91c-1,18.35-3.25,38.46-1.19,56.7,2.68,31.47,3.35,63.1,3.09,94.68a.05.05,0,0,1-.1,0c-.53-24.83-1.37-50.9-2.49-75.73-.46-12.62-2.22-25.19-1.94-37.84.13-6.33.67-12.63,1.13-18.93.1,0,1.23-19.21,1.5-18.88Z"/><path class="cls-10" d="M151.62,126c.09,2.35-.1,4.67-.06,7-.36,2.46,1.42,4.31,3.11,5.82s3.75,3,4.7,5.24c1.15,2.25.71,5.3-1.75,6.48a18.24,18.24,0,0,1-6.78,2.26c-2.46.21-4.54-1.53-6.74-2-1.06-.21-2.24-.15-3.47-.41-2.93-.44-3.31-3.73-2.81-6.13.19-1.25,2.16-2.17,2.86-.83a0,0,0,1,1-.09,0c-.71-1-2.23-.17-2.3.91-.21,1.94.07,4.89,2.51,5.12,1.07.18,2.25.07,3.49.3,2.36.44,4.14,2.18,6.52,2.09a17.26,17.26,0,0,0,6.46-2c2.19-1,2.54-3.58,1.58-5.61s-2.73-3.6-4.43-5.2c-1.23-1.22-2.62-2.56-3-4.33-.25-2.91.16-5.85.07-8.75,0-.06.1-.08.1,0Z"/><path class="cls-10" d="M167.2,29c-5.9-9.41-12.86-20-24.38-22.65-6.69-1.44-13.65-.86-20.44-.38A63,63,0,0,0,85.2,21.37C71.39,32.61,70.2,40.06,70,57.18c-.56,22.85-.49,45.73.42,68.57.1,4.57.45,9.24.52,13.76-.47-4.5-.66-9.17-1-13.74C68.75,102.92,68.36,80,69,57.15c.28-17.32,1.65-25,15.69-36.34A63.69,63.69,0,0,1,122.34,5.43c6.83-.43,13.82-1,20.57.54,11.43,2.7,18.92,13.66,24.29,23Z"/><path class="cls-10" d="M146.4,9.56a8.23,8.23,0,0,1,5.06-8.37c3.35-1.31,6.92.09,10.29.61a117.72,117.72,0,0,1,19.83,6.1c6.4,2.68,12.77,5.6,18.3,9.86S210,28.27,210.09,35.34c-.93-6.88-5.24-12.78-10.81-16.8C188.08,10.6,175,5.45,161.64,2.29c-3.28-.56-6.8-2-10.07-.82a8,8,0,0,0-5.07,8.08.05.05,0,0,1-.1,0Z"/><path class="cls-10" d="M228.77,275c-1.47-23.26-8.5-133.91-9.82-154.55-1.63-25.74-3-51.56-7.5-77-.84-5.1-1.88-10.15-3-15.2,0-.06.09-.08.1,0,5,20.06,7.5,40.65,9.28,61.22,2.95,41.61,8.58,142.88,10.91,185.53Z"/><path class="cls-10" d="M173,252.67c5.14.63,9.73,3.3,14.2,5.74A148.56,148.56,0,0,0,201,265c9.46,3.93,19.11,7.33,28.56,11.3.06,0,0,.12,0,.1a232.51,232.51,0,0,1-28.85-10.66c-4.69-2.09-9.3-4.37-13.76-6.91s-8.86-5.31-14-6.09c-.06,0-.05-.11,0-.09Z"/></g></g><g id="torso_armscrossed"><g id="torso_crossed_colour"><path class="cls-11" d="M277.33,458.85c-.57-8.22-1.32-16.43-2.14-24.65q-2.81-27.58-7-55c-1.95-12.78-3.87-25.59-5.9-38.37a1,1,0,0,1-.05-.12c-.28-1.43-.54-2.86-.79-4.29a.7.7,0,0,1-1-.48c-2-8.93-3.61-17.95-5.18-27a.78.78,0,0,1-.38-.43c-2.21-6-3-11.41-4.65-17.58-1.15-4.33-2.26-9.56-4.15-13.61-1.69-3.62-3.55-7.69-6.91-10.06-2.17-1.52-4.72-2.4-7.08-3.58-3.93-1.95-7.9-3.81-11.84-5.74-2.91-1.42-10.14-3.8-12.45-4.55a1.33,1.33,0,0,0-1.28.25A107.86,107.86,0,0,1,186,267c-10.16,5.16-31.47,8.42-35.32,7.37-8.89-2.44-41-2.27-50.17-9.47-2.27-1.78-5.44-8.28-6.7-11a1.35,1.35,0,0,0-1.77-.67l-5.28,2.32c-7.72,3.31-15.83,6.86-22.63,11.87-.59.43-7.09,10.55-7.39,11.25-4.35,10.31-4.85,11.33-8.26,22-7.57,23.56-14.45,53.68-20,77.58-6,25.77-10.09,44.15-16.71,70.56-2.6,10.38-4.76,22-7.49,32.32-2.18,8.29-3.85,18.1-2.72,26.66S6.44,523.54,17.19,524c2.53.1,16.54-3.28,31.54-8.17,10.15-3.31,20.78-7.13,28.76-10.08l-.08.31c3.77-1.68,7.5-3.47,11.35-5a.6.6,0,0,1,.77.21l.08,0c.47,0,.8.34.81,1,.08,5.56-.74,10.51-1.17,15.83a192.17,192.17,0,0,1-2.65,19.43c-.84,4.19-1.47,8.42-2.5,12.58a49,49,0,0,1-1.74,5.78,11.2,11.2,0,0,1-1.19,3.51,18.48,18.48,0,0,1-3.44,4.92,9,9,0,0,1-4,2c-1.41.41-3.07.39-4.32,1.27-1,.74,0,2.93.87,3.76,1.06,1,.61,1.2-.31,2.21A20.49,20.49,0,0,1,66,577a8.73,8.73,0,0,0-1.82,1.67c-1,1.19,0,2.14.17,3.49.14,1.61.5,2.41-.25,3.83-.34.64-4.8,5.25-3.33,5.65a9.66,9.66,0,0,0,4.83.25,34.8,34.8,0,0,0,4.58-1.9A1.36,1.36,0,0,1,72,591.68c-.29.78-.59,1.63-.88,2.43A1.36,1.36,0,0,0,73,595.79l.31-.1,3-.65q3.27-.72,6.53-1.49c4.7-1.1,9.38-2.25,14.07-3.39,8.68-2.13,14.51.57,23.28-1.17,2.31-.46,5.75-.92,8.09-1.19,1.32-.16,7.8-1.11,10-.95,15.45,1.1,64.55-5.92,79.62-2.33.88.21,11.51,3.84,22.22,6.59a1.36,1.36,0,0,0,1.66-1.62,7.57,7.57,0,0,1-.19-1,4.3,4.3,0,0,1-.08-.6,5.68,5.68,0,0,1-.29-.77,4,4,0,0,0-.17-.75c0-.14,1.32-.09,1.37-.09a17,17,0,0,0,2,0,18.49,18.49,0,0,0,3.91-.74,7.45,7.45,0,0,0,2.18-1,5,5,0,0,0,1.68-2.44,1.21,1.21,0,0,0,.1-.56,5.13,5.13,0,0,0-.11-1.19c-.62-1.84-2.23-2.9-3.53-4.27a36.61,36.61,0,0,1-3.53-3.74,22.13,22.13,0,0,1-1.38-1.95,5.36,5.36,0,0,1-.83-2.16c.07-1.54,2.82-2.51,1.88-4.09-.55-.93-2.36-1.39-3.28-1.8s-2.61-1.21-1.72-2.35a6.17,6.17,0,0,1,1.37-1.33s-.5-.58-.54-.61c-1.67-1.28-3.85-1.27-5.72-2.23s-3.86-1.84-5.67-2.93c-.93-.56-2.7-1.09-2.59-2.45a3.23,3.23,0,0,1,1.23-2.13,6.18,6.18,0,0,1,2.33-1.3c.33-.09,1.28-.11,1.47-.45s.4-.4.49-.6a6.9,6.9,0,0,0,.13-1,1.61,1.61,0,0,0,0-.31c-.33-2.54-.75-5.06-1.28-7.57-.38-1.83-.84-3.65-1.25-5.48-.24-1-.79-3.35-1.21-5.1a1.35,1.35,0,0,1,1.69-1.61c1.44.42,3.26.95,4.44,1.32,2.27.71,4.58,1.32,6.86,2,10.15,3,14.81,5.06,26,7.61.79.18,7.11-1.58,7.35-2.35,1.2-4,.46-3.93.78-5.39,2.86-12.84,2.26-22,2.58-35.11C278.51,481.5,278.1,470.17,277.33,458.85ZM82.5,446.52l-11.3,27,3.24,1.09-.88,1.57a128.85,128.85,0,0,1-14.94,1.37s-7.56-7-8.54-9.82c-3.72-10.79,24.29-74,30.63-97.4,2.09-7.71,5-14,6.92-21.77a45.87,45.87,0,0,1,2.7-6.74c.53-1.15,2.51-3.54,2.57-2.28.15,2.73-.61,7.75-.66,9.07-.28,6.54.13,7.46-.09,14-.41,12.22.49,20.83,0,33.05-.56,15.25,1.34,37.77,1.22,53C93.41,450.23,82.5,446.52,82.5,446.52Zm161.9,33c-.06.42-1.12,2.49-1.53,2.45-7.64-.78-9.59-3.59-17.2-4.4a1.1,1.1,0,0,1-1.06-1.05c-.56-4.37,0-8.88-.55-13.25a1.4,1.4,0,0,0-.43-.83c-.32-.29-.42-.52-.27-.67a1.55,1.55,0,0,0,.3-.83c-.06-.28-.12-.56-.2-.84a.93.93,0,0,1,.27-1c-.13-3.64-1.28-9.74-1.42-11-1.26-11.59-1.67-21.91-2.89-33.5-1.18-11.13-2.29-22.26-3.54-33.38-1.27-11.43-1.77-20.88-2.55-32.36-.18-2.51-1.61-7.44.23-7.61,2.56-.23,5.31,7.54,5.76,9.22,5.61,21.22,19.35,84.07,23.37,110l-.07.06C243.18,463.46,244.82,476.53,244.4,479.5Z"/><path class="cls-12" d="M126,246.1c-3.54.32-8.3,1.74-7.23,3a9.21,9.21,0,0,0,4.8,2.74c8.25,2.17,13.38,4.77,23.08,4.41,9.33-.36,16.21-1,24.84-4.71,3.9-1.7,10-5.2,7.64-6-2.19-.73-9.67-1-9.67-1l-.37-1.24s6.69.34,8,.69c8.5,2.36,32.06,10.42,32.06,10.42s1.27,9.15-7.44,13.48c-8.91,4.43-25.54,9.9-39.32,11.09-9.29.8-45.88-.92-59-8.45-8.2-4.69-10.54-17.68-10.54-17.68s27.13-8.22,33.32-7.91Z"/><path class="cls-12" d="M186.13,460.89c-1.15,1.48-.61,6,.31,7.58s22.57,5,22.57,5-2-4.64-1.85-7a10.69,10.69,0,0,1,2.52-6.17s-6.14-2.44-10.24-2.18C194.1,458.53,188.28,458.14,186.13,460.89Z"/><path class="cls-12" d="M72,438.94c-6.15-1.2-15.7.05-15.7.05s-3,9.94-4.47,14.28-3.71,13.43-.43,15.91c2.58,1.95,9,5.41,14.87,8l.93-.15a16,16,0,0,1,3.51-.4l.76-.08c1.63-5.14,5.6-17.36,7.57-21.16A69.6,69.6,0,0,1,85.13,446S78.16,440.15,72,438.94Z"/><path class="cls-13" d="M77.26,452.66s-3.7,4.77-4.07,8.24c-.23.38-.8.21-1.19,0-4.15-2.17-9-4.22-13.31-6-2-.8-.86-3.37-.2-5.53,1-3.17.53-3.91,5.27-2,3.49,1.21,8.37,3.14,11.83,4.43A13.21,13.21,0,0,1,77.26,452.66Z"/><path class="cls-13" d="M55.84,465.63c.08-1.48.18-2.95.23-4.43.11-2.79.4-3.11,3-2.49a40,40,0,0,0,11.31,4.23c1.23.67,1.1.75.64,2.13a18,18,0,0,0-2.38,6.08c-.36,1.42.26,2.37-1.18,1.73-3.24-1.44-6.51-2.8-9.79-4.16A2.71,2.71,0,0,1,55.84,465.63Z"/><path class="cls-13" d="M66.53,441.13c1.22.44,2.81,1,4.42,1.59,3.22,1.11,6.51,2.6,9.77,3.62,1.9.6,1.47.42-.12,2s-2.87,2.86-2.87,2.86-8.87-4.11-13-5.49c-.83-.27-2.9-.63-3-1.79a2.51,2.51,0,0,1,.72-2.38C63.33,440.89,64.89,441.05,66.53,441.13Z"/><path class="cls-14" d="M195.35,461.55c3.19.18,5.78,0,9,.25.81.06.84.34.9,1.59,0,1-.12,2.52-1.06,2.65-5.37.75-9.92.28-15.32.85-2,.21-.76-1-.85-2-.1-1.16,0-1.81,2-2.5,2.6-.53,3.69-1,5.4-.74Z"/><path class="cls-14" d="M189.5,469.67c4.4-.57,9.46-1.19,13.87-1.73a1.77,1.77,0,0,1,2,1.76c-.21,4.42-.65,4.53-5.29,3.65a75.94,75.94,0,0,1-10.56-2.56C189.51,470.54,189.49,469.92,189.5,469.67Z"/><path class="cls-15" d="M310.69,1064.88a5.25,5.25,0,0,1-.32-2.35c-.26-5.51-.13-11-.56-16.53-1-13.14-2.15-26.27-3.58-39.37-1.72-15.72-3.88-31.39-6-47-2.62-19.07-5.55-38.09-8.53-57.11-2.71-17.28-5.55-34.54-8.25-51.82-3.21-20.51-6.44-41-9.46-61.57-1.93-13.11-5.87-24.32-6.59-37.58-.41-7.5-2.83-14.77-3.31-22.26-1-15.39-3.49-20.07-5.26-35.37-.17-1.46-9.65-68.18-11.8-82.84-.5-2.11-1-4.21-1.56-6.32l-1.56-6.24c-.55-2.2-1-4.4-1.45-6.61s-1.16-4.45-1.67-6.77a7.74,7.74,0,0,0-.48-1.88c-.22-.32-.46-.11-.79-.2-1.12-.29-2.25-.57-3.38-.82q-3.36-.77-6.77-1.33c-4.51-.75-9.06-1.25-13.62-1.55s-9.13-.39-13.7-.34-9.18.23-13.76.51-9.2.64-13.8,1c-3.28.29-6.58.55-9.86.88-2,.19-4,.37-6,.52-4,.3-7.94.77-12,.76-4.32,0-9.42.83-13.74.73-6.87-.15-13-1-19.82-.61-3.22.18-6.79-.2-10-.1s-6.28-.2-9.62-.12c-4.71.11-9.71.79-13.83,3.08-2.8,1.57-6.82,3.25-6.82,3.25s-2.22,6.14-2.74,7.49a26.35,26.35,0,0,0-1,4.24c-.47,2.32-1.12,4.6-1.66,6.9-1.11,4.7-1.52,9.36-2.58,14.07-.35,1.56-.7,3.13-1,4.7a7.92,7.92,0,0,0-.3,2.42c1.12,6.77,6.08,107.4,5.93,109.11-.66,7.8-.74,19-1.54,26.83-1.31,12.87-1.19,24.87-2.35,37.75-1.52,17-2.45,33.94-3.33,50.93-.89,17.31-1.65,34.63-2.88,51.92-1.1,15.3-1.89,30.61-2.91,45.91-1.14,17.06-2.59,34.08-4.8,51-3.27,25.18-8.21,50-16.62,74-.71,2,0,5.81,1.87,6.9,7.47,5.57,14.6,11.07,22.46,15.85,24.91,15.16,53.19,21.87,82.16,23.65,14,.86,26.85-.57,40.92-1.27,12.21-.61,25.49-3,37.64-4.32q28.25-2.92,56.11-8.47c10-2,19.9-3.91,29.79-6.18,2-.47,3.1-1.22,3.39-3.53a107.8,107.8,0,0,0,.92-12.17,10.36,10.36,0,0,1,.38-4Z"/><path class="cls-16" d="M152.67,360a15.66,15.66,0,0,0-12,5c-6.68,7.11-1.74,24.05,8.68,32.57a3.29,3.29,0,0,0,5.11-.07,29.89,29.89,0,0,0,11-25.1c-.23-3.89-2.45-8.81-5.83-10.76s-5.17-1.44-8.64-1.72"/></g><g id="torso_crosse_shading_dark"><path class="cls-17" d="M80.29,585.87a104.07,104.07,0,0,0-4.08,13.25c-2,8-10.46,49.18-13,71.73C60,698.92,5.76,936.59,4.76,952.44c-.63,10.12-4.41,34.29-2.9,54s4.71,58.69,12.58,59.43c6.78.64,15.46,6.52,20.16,10.45,9.25,7.76,29.09-151.82,30.91-166.53,3-24.06.14-49.82.14-84.76,0-15.95,12-95.95,14.64-163.72,1.22-30.94,8.16-62.38,10.61-77.77-2.89.33-5.78.71-8.65,1.13C81.58,585.05,80.93,585.45,80.29,585.87Z"/><path class="cls-13" d="M94,331.05c6.72-.47,8.86,43.67,9.25,50,.81,13.24,2.93,39.11,7.87,56.67,4,14.37,6.08,17.7,6.06,17.7L94,448.06Z"/><path class="cls-13" d="M84,551.39c-1.53,2.66-1.53,4.68,1.8,4.48,3-.18,6.84-14.39,7.51-17.16,3.74-15.28,4.11-18.49,7.31-31.25,1.7-6.78,15.44-11,22.23-15.21-.28.18-31.67,8.29-31.67,8.29s-3.08,41-6.79,50.07A8.07,8.07,0,0,1,84,551.39Z"/><path class="cls-13" d="M80.43,480.08c7,4.36,13.56,9.5,20.11,14.47a.82.82,0,0,1,.26,1q1,.8,1.92,1.62c1.55-.43,3.09-.9,4.56-1.42a100.94,100.94,0,0,1,15.38-3.93s-41.49-15.64-44.34-15.17l-.23,0c.66,1,1.32,2.09,2,3.14Z"/><path class="cls-13" d="M67.42,291.46c-.58-4.84-1.73-11.61-5.57-14.86C54.27,291.87,50.6,310.69,45.64,327q-7.81,25.68-15,51.53Q20.75,414.19,12,450.14c-.87,3.57-8.39,32.81-5.76,32.76,4.89-.11,4.47-16,4.93-19.34.94-6.72,3.29-15.39,6.12-24.77s10-4.37,13.64-16,14.12-46.12,17.84-56.46S68.15,297.58,67.42,291.46Z"/><path class="cls-13" d="M218.47,339.52c6.91,7.53,12.74,40.54,14.9,49.22,3,12,9.46,34.31,10.37,41s9,34,9.92,40.83,4.75,16.92,4.75,16.92l-20.28-6.74s11.3,1.94,4.59-21.53C231.53,420.06,218,343.7,216.32,341.49"/><path class="cls-18" d="M82.26,584.68l-.91.51c-2.95,3.37-5.52,6.54-6,8.72-1.27,5.72-4.38,10.6-5.69,16.31C61,648.08,48.74,683.9,39.92,721.72c-6,25.81-12.67,52.81-17.52,78.86C13,851,11.73,879.65,5.65,930.57,5,936.3.61,970-.06,975.74c-1.82,15.67-.83,26.4-1.9,42.13-.51,7.56-1.71,15.86-.91,23.4.24,2.25,3.27,10.91,1,12.64,1.93,6.13,2.47,5.31,3,6.52,3.21,7.46,14.33,9.52,18.37,16.11,1,1.69.7-3.24,1-4.87s-.88-8-1.69-20.18c-1-14.7-1.23-24.83,1-44.65,1.52-13.77,4.9-32.24,6.66-46,2.58-20.23,4.64-32.48,8.29-52.45,6.53-35.72,17-69.14,25-104.41,6-26.69,12-53.39,17.71-80.17,4-18.75,7.74-37.57,11.65-56.34,2.21-10.59,1.68-33.54,4.09-44.08.87-3.79-.61-25.91-1.42-39.94C88.56,583.81,85.4,584.22,82.26,584.68Z"/></g><g id="torso_crosse_shading_light"><path class="cls-19" d="M278.13,474.67c-.7-22.38-4-45-6.64-67q-1.08-9.09-2.31-18.16-.78-4-1.57-8.09c-2.41-12.22-4.88-24.44-7.19-36.69-.86-4.57-1.78-9.15-2.48-13.75-1.4-5.93-2.65-11.89-3.67-17.9-1.19-7-3-13.84-4.46-20.77-2.86-10-4.38-15.21-7.05-19.71-3.23-5.43-6.75-5.84-10.78-8.11-4.63-2.6-19.4-8.62-19.4-8.62s18.09,17,22.62,21.43c6.68,6.56,10.19,19.05,12.41,31.05,4.39,23.71,7.37,36.85,12.5,60.21,4.35,19.83,5.53,39.31,6.2,59.51,1,31,5.78,62.16,3,93.15a2.34,2.34,0,0,1-.29.95q.45,4.83,1,9.64a1.54,1.54,0,0,1-.37,1.15c1.53,2.56,2.94.3,4.26-.31.42-.19,1-2.58,1.52-6.28a1.53,1.53,0,0,1-.2-.91C277.22,508.62,278.66,491.76,278.13,474.67Z"/><path class="cls-19" d="M87.19,454c18.62-.94,74.63,20.53,88.84,25.59,9.1,3.24,61,16.32,72.89,20.31s14.48-1,12-6.69-84-29-94.74-29.34-71.26-15-76.2-15.15S87.19,454,87.19,454Z"/><path class="cls-19" d="M201.75,390.75c-1,8.68-.4,24.11.44,29.76s4.3,38.32,4.3,38.32l6.15,5.3s7.65-6,9.07-10.36-8.5-109.46-8.5-109.46-5.65,13.8-7.11,16.67C203.51,366.06,203.11,379.46,201.75,390.75Z"/><path class="cls-19" d="M89.46,324.55c6,0-2.48,3.56-4.28,13.91s-17.67,64.57-19,69.13-6.75,23.05-8.92,24.63-4.6,9-7.22,8.31-4,1.44-4.3-5.44S51,420.23,51,414s10.61-31.92,11.6-36.09S77.19,341.74,81.17,334C82.22,332,84.67,324.53,89.46,324.55Z"/><path class="cls-20" d="M282.75,910.09c-3.86-22.24-38.18-309.4-48.89-325.49-.77-1.16-1.5-2.27-2.22-3.34a142.06,142.06,0,0,0-22.7-2.25c-.89,1.63-1.82,3.48-2.8,5.59-11.72,25.14,19,85.14,23.22,112.67s31.82,324,32.11,355.77-3.8,8.49.28,31.76a95.88,95.88,0,0,0,6.73,8.47s32.94-6.35,34.44-13.17S286.6,932.33,282.75,910.09Z"/></g><g id="torso_crossed_skin"><path class="cls-10" d="M238,480.63a4.72,4.72,0,0,0,3.82-.8,6.32,6.32,0,0,0,2.24-3.26,7.78,7.78,0,0,0,.16-4l-.67-4q-1.41-8-3-16c-2-10.65-4.21-21.28-6.4-31.91l-6.66-31.85c-2.26-10.62-4.17-21.3-7.06-31.74q-1.08-3.91-2.31-7.79l-.63-1.93a18.42,18.42,0,0,0-.68-1.86,7.32,7.32,0,0,0-2.25-3,2.12,2.12,0,0,0-.76-.33c-.12,0-.13,0-.13,0l.12,1.84.24,4.06.52,8.12q1.06,16.23,2.39,32.45c1.72,21.62,3.85,43.21,6.22,64.78h-.1q-4.37-32.25-7.12-64.71-1.4-16.22-2.38-32.47l-.47-8.12-.22-4.06-.12-2.22c0-.16,0-.3,0-.46v-.11s.07,0,.1,0l.23,0,.46,0a4.11,4.11,0,0,1,.43,0,3.06,3.06,0,0,1,1.09.47,8.14,8.14,0,0,1,2.55,3.42,17.75,17.75,0,0,1,.7,2l.62,1.94c.82,2.59,1.57,5.2,2.28,7.83,2.86,10.49,4.72,21.2,6.94,31.81l6.49,31.89c2.14,10.64,4.24,21.29,6.22,31.95q1.5,8,2.85,16l.65,4a8,8,0,0,1-.2,4.06,6.42,6.42,0,0,1-2.31,3.31,4.82,4.82,0,0,1-3.91.79Z"/><path class="cls-10" d="M278.07,463.25l-5.32-44.94-2.65-22.46c-.84-7.5-1.87-15-3.27-22.36s-2.52-14.89-3.69-22.33S260.47,336.35,259,329s-3.06-14.76-4.83-22.09-3.68-14.61-5.61-21.91l.1,0c2.19,7.22,4.29,14.46,6.19,21.76s3.59,14.67,5.13,22.06,3,14.78,4.12,22.26,2.07,14.94,3.5,22.34,2.35,14.92,3.13,22.42l2.49,22.49,4.93,45Z"/><path class="cls-3" d="M280.61,453.58c-1.92-1.16-3.23-2.17-3.39-2.19-5.28-.7-8.23-1.31-13.75-1.3a31.54,31.54,0,0,1-8.27-.78c-.85-.2-5.67-2.71-5.67-2.71l6.47-1c5.18-.8,7.27-1.73,12.45-1.79s9.09.11,14.63.39c4.2.21,7.47,1.48,12.09,2.31.38.06,1.78.7,2,.65a3.81,3.81,0,0,0,.45-.13h0l0,0,.17-.09.18-.12.17-.19c0-.06.1-.17.12-.2l0-.1c0-.07,0-.15.06-.23s0-.22,0-.33,0-.24,0-.35a1.55,1.55,0,0,1,0-.21,5.83,5.83,0,0,0-.25-.81l0-.1v0c-2.89-2-5.66-4.56-9.07-5.57a45,45,0,0,0-6.89-1.49c-3.22-.38-6-.66-9.27-.79a81.52,81.52,0,0,0-10,.52c-3.14.27-7.38,1.1-7.38,1.1a32.09,32.09,0,0,0,3.25-2c3.62-3.08,7.77-6.5,12-8.71s7.53-3.68,12.27-3.42c3.57.2,5.67,1.87,9.14,1,.95-.24,2.8-.63,3.42-1.39.83-1,1.5-2.51.92-2.67-2.68-.74-6.29-1.91-9.23-2.68-4.66-1.22-9.38-2.24-13.87-.5-6.86,2.67-10.83,9.84-16.89,14-.66.46-8.1,4.66-8.1,4.66s8-10.52,16.25-22.33a36.86,36.86,0,0,0,5.53-14c.27-1.83.37-5.73-.27-7.39-.54-1.39-1.91-3.05-2.5-2.21a17.75,17.75,0,0,1-1.84,3.6c-.62.88-1.5,2.9-2.12,3.78-1.2,1.7-2,4-3.24,5.72C257.8,406.89,244.4,428,244.4,428s-1.26.14-1-1.75c.54-4.11,2.7-12.63,1.57-16.43-.23-.75-3.1-6.9-4.07-5.45-2.48,3.74-4.39,19.49-5.53,23.08-4,12.46-6.84,23.89-15.79,32.31-2.62,2.46-11.61,4-12.35,7.54-.16.78,1.59,5.25,2.19,5.77a2.64,2.64,0,0,0,1.17.48l9.7,2.19c3.81.86,6.86,2.86,10.74,3.29,4.75.52,9.28-1.95,12.91-5.08,3.91-3.36,7-7.67,11-10.83a19.82,19.82,0,0,1,10.75-4.15,31.6,31.6,0,0,1,14.13,1.5c2.5.94,1.56,1.05,4.16,1.62.31.06,2,.81,2.2.59a3.76,3.76,0,0,0,.69-2C285.29,457.66,284,455.61,280.61,453.58Z"/><path class="cls-3" d="M54,444.11l-18.64-2.29h0a3.75,3.75,0,0,0-4,3.93l1.2,24.08L34.29,483l23.55-5.12,1.09-1.42L40.94,460s7.63-.54,8.4-.11,2.72-10.46,2.72-10.46Z"/></g><g id="torso_crossed_outline"><path class="cls-10" d="M93.33,449.83c-.82-18-1.48-36-1.75-54q-.21-13.51-.21-27c-.14-9,.65-18,.83-27l0-1.61c0-.05,0-.14,0-.15a.24.24,0,0,0-.16.09,4.15,4.15,0,0,0-.44.54,8.09,8.09,0,0,0-.44.69c-.27.47-.51,1-.75,1.46a54.85,54.85,0,0,0-2.32,6.28l-4,12.91q-4,12.9-8.31,25.71t-8.67,25.59c-2.9,8.53-6,17-8.76,25.56l-.1,0c2.56-8.64,5.42-17.18,8.19-25.75l8.39-25.68,8.32-25.69,4.06-12.89a54.28,54.28,0,0,1,2.41-6.36c.24-.52.5-1,.79-1.53q.23-.37.48-.75a4.38,4.38,0,0,1,.64-.73,2.11,2.11,0,0,1,.58-.39,2.08,2.08,0,0,1,.6-.09h.15s0,.08,0,.12l.07.26a.75.75,0,0,1,0,.32v.38l0,1.76c-.23,9-1.06,18-1,27s0,18,.06,27c.14,18,.68,36,1.35,54Z"/><path class="cls-10" d="M266.24,391.72a2.86,2.86,0,0,1,.93-1.5,2.69,2.69,0,0,1,.41-.29c.14,0,.28.16.42.22a7.34,7.34,0,0,1,.69.56,6.94,6.94,0,0,1,1.74,3.1,15,15,0,0,1-.05,7.06A43.93,43.93,0,0,1,265.19,414a98.06,98.06,0,0,1-8,11.67c-2.91,3.69-5.86,7.35-8.94,10.9l-.08-.06c2.65-3.89,5.43-7.68,8.23-11.44s5.65-7.48,8.07-11.48a43.57,43.57,0,0,0,5.39-12.84,14.58,14.58,0,0,0,.24-6.88,6.56,6.56,0,0,0-1.58-3,5,5,0,0,0-.66-.56c-.11-.06-.2-.19-.3-.18a1.53,1.53,0,0,0-.32.22,2.8,2.8,0,0,0-.94,1.41Z"/><path class="cls-10" d="M257.7,437.46c3.27-2.51,6.33-5.29,9.6-7.82a47.63,47.63,0,0,1,5.06-3.59,16.88,16.88,0,0,1,5.84-2.16,24.61,24.61,0,0,1,6.24-.21c1,.08,2.07.21,3.09.37s2,.36,3,.44a7.5,7.5,0,0,0,2.92-.25,4.26,4.26,0,0,0,2.23-1.69,3.21,3.21,0,0,0,.3-.62c0-.11.05-.22.09-.33s0-.11,0-.16,0,0,0-.06,0-.09-.16-.11l-.76-.17c-1-.25-2-.52-3-.83-3.95-1.2-7.82-2.73-11.85-3.1a15.58,15.58,0,0,0-5.93.52A20,20,0,0,0,269,420.3c-3.39,2.25-6.22,5.25-9.18,8.13s-6.17,5.68-10,7.21l0-.09c3.74-1.78,6.74-4.67,9.58-7.62s5.65-6.07,9.12-8.46a20,20,0,0,1,5.68-2.78,16.28,16.28,0,0,1,6.32-.51c4.22.45,8.09,2.09,12,3.33,1,.31,2,.59,2.95.84l.74.18.62.14c.05,0,.12,0,.15.05v.5a1.73,1.73,0,0,1,0,.32,1.55,1.55,0,0,1,0,.21,2.9,2.9,0,0,1-.12.42,3.64,3.64,0,0,1-.37.77,5,5,0,0,1-2.63,2,7.92,7.92,0,0,1-3.2.24c-1.05-.1-2.07-.31-3.08-.48s-2-.31-3-.41a24.49,24.49,0,0,0-6.11.13,16.49,16.49,0,0,0-5.72,2,49.71,49.71,0,0,0-5.08,3.49c-3.29,2.47-6.4,5.2-9.72,7.66Z"/><path class="cls-10" d="M240.84,404.07c-2.91,7.26-2.61,15.28-5.09,22.77-1.16,3.74-2.45,7.4-3.81,11.05s-2.81,7.26-4.39,10.83l-.09,0c1.06-3.75,2.28-7.45,3.54-11.13s2.74-7.29,4-11a75.76,75.76,0,0,0,2.66-11.3,48.85,48.85,0,0,1,3.1-11.26Z"/><path class="cls-10" d="M241.16,405.76l-.07-.87,0-.45,0-.23v-.12c0-.06,0,0,.06,0,.24.17.51.34.75.54a6.71,6.71,0,0,1,.65.58,9.43,9.43,0,0,1,1.82,2.64,17.2,17.2,0,0,1,1.38,6.23,26.22,26.22,0,0,1-.34,6.38,22,22,0,0,1-2.07,6l-.09,0c.48-2.06.9-4.09,1.17-6.15a45.6,45.6,0,0,0,.53-6.18,16.84,16.84,0,0,0-1-6.06,8.91,8.91,0,0,0-1.58-2.63,4.71,4.71,0,0,0-.49-.5c-.14-.15-.32-.27-.49-.42s-.05,0-.05.06v1.18Z"/><path class="cls-10" d="M241,432.48q6.88-10.07,13.3-20.41l6.28-10.42,6.32-10.4.09.05a119.28,119.28,0,0,1-5.55,10.86c-2,3.54-4.24,6.94-6.47,10.34q-6.66,10.22-13.89,20Z"/><path class="cls-10" d="M285.9,462.88A51.45,51.45,0,0,0,271.53,459c-4.89-.52-10.08,0-14.27,2.56a20.53,20.53,0,0,0-5.33,5,53.73,53.73,0,0,1-4.9,5.74,26,26,0,0,1-13.44,6.58l0-.09a29.58,29.58,0,0,0,12.76-7.21c1.74-1.72,3.22-3.72,4.84-5.65a21.31,21.31,0,0,1,5.68-5.05,19.06,19.06,0,0,1,7.19-2.4,28.91,28.91,0,0,1,7.55,0,50.89,50.89,0,0,1,14.35,4.28Z"/><path class="cls-10" d="M250.21,447.05c4.06,1.88,8.55,2.19,13,2.48,2.22.14,4.45.21,6.66.46s4.42.55,6.61,1v.1c-2.24.09-4.46,0-6.68-.11s-4.43-.42-6.65-.66c-4.39-.46-9-1-12.94-3.19Z"/><path class="cls-10" d="M251.31,438.76a80.32,80.32,0,0,1,24.91-2.29q3.13.21,6.25.66a35.52,35.52,0,0,1,6.16,1.36,26.58,26.58,0,0,1,5.73,2.71,27,27,0,0,1,2.58,1.85,5.75,5.75,0,0,1,1.17,1.19,2,2,0,0,1,.31,1.84,1.72,1.72,0,0,1-.63.8,2.42,2.42,0,0,1-.89.33,4.89,4.89,0,0,1-1.71,0c-1.09-.25-2-.57-3.05-.83-2-.55-4-1-6.06-1.41a55,55,0,0,0-12.36-.72c-4.15.17-8.3.67-12.45,1.14s-8.3.92-12.46,1.33v-.1q6.18-1,12.38-1.93c4.14-.61,8.29-1.19,12.49-1.44a49.25,49.25,0,0,1,12.59.75c2.07.4,4.11.93,6.12,1.51,1,.28,2,.64,3,.87s2.07.17,2.31-.54a1.15,1.15,0,0,0-.21-1.11,4.94,4.94,0,0,0-1-1,26.57,26.57,0,0,0-2.49-1.83,25.79,25.79,0,0,0-5.54-2.69,35.36,35.36,0,0,0-6-1.42c-2.06-.32-4.12-.57-6.2-.74a80.79,80.79,0,0,0-24.84,1.9Z"/><path class="cls-10" d="M286.85,460.39a32.23,32.23,0,0,0-5.15-5c-.95-.74-2-1.38-2.91-2.12S276.9,451.78,276,451l0-.09a13.1,13.1,0,0,1,3.35,1.55,18.79,18.79,0,0,1,2.86,2.33,27.35,27.35,0,0,1,4.71,5.59Z"/><path class="cls-10" d="M285.48,458.31a4.53,4.53,0,0,1,1.89,2.37,1.92,1.92,0,0,1-.31,1.72,1.29,1.29,0,0,1-1.65.39l0-.1a1.56,1.56,0,0,0,.8-.86,2.58,2.58,0,0,0,.35-1,5,5,0,0,0-1.17-2.43Z"/><path class="cls-10" d="M54.16,444.19l-15-1.68-3.75-.46-.93-.11-.18,0a.86.86,0,0,0-.15.05,2.67,2.67,0,0,0-.39.18,8.51,8.51,0,0,0-1.48,1,3.29,3.29,0,0,0-.77,1.5,6.86,6.86,0,0,0-.28,1.75l.1,3.77c.19,5,.66,10,1.15,15s1.07,10,1.61,15H34q-1.55-7.41-2.5-14.92a138.86,138.86,0,0,1-1-15.12l0-3.78a7.32,7.32,0,0,1,.35-2,3.9,3.9,0,0,1,1-1.79,9.65,9.65,0,0,1,1.63-1.09c.16-.07.3-.15.48-.21a1.22,1.22,0,0,1,.3-.06.85.85,0,0,1,.3,0l.93.13,3.74.54,15,2.08Z"/><path class="cls-10" d="M57.38,478.26a3.09,3.09,0,0,0,1.45-1.45s0-.07,0-.1l-.09-.07-.17-.13-.43-.35-.85-.69c-1.14-.93-2.26-1.88-3.37-2.83-2.23-1.92-4.4-3.89-6.54-5.91-1.06-1-2.13-2-3.18-3l-1.55-1.57-.76-.8-1.29-1.39-.17-.2c-.06,0,0,0,.05,0l.14,0,.53-.08,1.06-.14c.47-.06.76-.09,1.16-.12a16.72,16.72,0,0,1,2.24-.05,15.18,15.18,0,0,1,4.35,1l0,.09a22,22,0,0,0-4.33-.34c-.72,0-1.43.11-2.14.21l-1,.17s-.05,0,0,0l0,0h0l.18.19.76.79L45,463c1,1.06,2,2.13,3,3.17q3.09,3.12,6.31,6.11,1.6,1.5,3.24,3l.82.73.41.36.25.22.12.11a1,1,0,0,1-.07.15,3.11,3.11,0,0,1-1.64,1.54Z"/><path class="cls-10" d="M55.93,471.9a30.87,30.87,0,0,1-4.19-2.09,4.92,4.92,0,0,1-1.63-1.76,5.2,5.2,0,0,1-.56-2.34,56.15,56.15,0,0,1,.74-9.35c.23-1.55.5-3.1.87-4.63a32.14,32.14,0,0,1,1.5-4.47c.6-1.45,1.26-2.88,1.88-4.28s1.11-2.9,1.82-4.3l.09,0c-.45,1.49-.77,3-1.25,4.51s-1.08,2.93-1.6,4.39-1.07,2.9-1.48,4.36-.76,3-1,4.51a60.8,60.8,0,0,0-1,9.21,4.86,4.86,0,0,0,.42,2.17,4.73,4.73,0,0,0,1.46,1.69,31.12,31.12,0,0,0,4,2.25Z"/><path class="cls-10" d="M56.16,438.74c5.22.14,10.44-.65,15.74,0a20.78,20.78,0,0,1,7.59,2.46,14.19,14.19,0,0,1,5.68,5.5l-.08.06A18.68,18.68,0,0,0,79,442.05a25.76,25.76,0,0,0-7.22-2.54c-5.12-.79-10.41-.24-15.64-.67Z"/><path class="cls-10" d="M74.35,474.76a2.56,2.56,0,0,1-1.6,1.61,2.12,2.12,0,0,1-.62.13h-.34c-.09,0-.3,0-.22-.12s.07-.44.12-.68l.11-.56c.29-1.49.64-3,1-4.44a71.4,71.4,0,0,1,2.9-8.65,57.17,57.17,0,0,1,4-8.22,48.17,48.17,0,0,1,5.4-7.36l.08.06c-1.6,2.59-3.17,5.16-4.61,7.8s-2.89,5.28-4.12,8a77.1,77.1,0,0,0-3.17,8.48c-.44,1.44-.85,2.9-1.2,4.37l-.24,1c0,.1.07.07.13.09h.21a2,2,0,0,0,.49-.09,2.41,2.41,0,0,0,1.56-1.44Z"/><path class="cls-10" d="M68.79,473.54a19.76,19.76,0,0,1,.22-4.67,8.81,8.81,0,0,1,2-4.27.59.59,0,0,0-.08-.66,2.42,2.42,0,0,0-.79-.39l-1.87-.72-3.72-1.44-7.44-2.91-.37-.14-.08,0c-.07,0,0,0-.06.09l-.1,1.41c-.07,1.05-.1,2.09-.1,3.14s0,2.1.09,3.11a1.32,1.32,0,0,0,.43,1.05,9.75,9.75,0,0,0,1.26.75c3.69,2,7.49,3.79,11.36,5.48l0,.1a70,70,0,0,1-11.79-4.7,8.74,8.74,0,0,1-1.47-.84,2,2,0,0,1-.61-.84,2.91,2.91,0,0,1-.19-.92c-.06-1.09-.06-2.14,0-3.21s.1-2.13.19-3.19l.2-1.73.08-.71,0-.17a1.42,1.42,0,0,1,.16.05l.33.14,1,.42,7.37,3.07,3.68,1.55,1.85.77a2.78,2.78,0,0,1,1,.53,1.1,1.1,0,0,1,.22.58.74.74,0,0,1-.18.62,8.54,8.54,0,0,0-2,4.06,19.8,19.8,0,0,0-.37,4.62Z"/><path class="cls-10" d="M72.79,461.12a15.2,15.2,0,0,1,.8-3.24,14.18,14.18,0,0,1,1.58-2.95q.48-.69,1-1.35l.47-.59.16-.2c0-.05,0-.05-.06-.07l-.12,0-3-1.09L61.12,447c-.5-.17-1.35-.52-1.25-.38l-1.79,7.26,2.75,1.22c4,1.84,8.07,3.71,12,5.74l0,.09c-4.17-1.52-8.28-3.2-12.38-4.91l-1.57-.66-.78-.34-.39-.17a1.07,1.07,0,0,1-.59-.52.87.87,0,0,1-.07-.48,1.2,1.2,0,0,1,0-.23l0-.13.13-.49.26-1,.53-2,.54-1.95.26-1,.14-.49a1.32,1.32,0,0,1,.32-.67.86.86,0,0,1,.74-.21,2.26,2.26,0,0,1,.53.16l.84.33,12.39,4.87L77,452.41l.26.1c.09,0,.23.06.1.15l-.36.44-.59.7c-.35.43-.69.86-1,1.3a13.45,13.45,0,0,0-2.53,6Z"/><path class="cls-10" d="M78,451.58a5,5,0,0,1,1.56-2.9,7.18,7.18,0,0,1,1.39-.93l.37-.19.27-.12.51-.23-7.72-2.91-4-1.53-2-.77a4.61,4.61,0,0,0-1.9-.49c-1.08.14-2.1-.12-3,0-.26,0-.59.35-.87.7a6.13,6.13,0,0,0-.74,1.14c0,.07,0,.09.06.22a1.51,1.51,0,0,0,.42.34,2.69,2.69,0,0,0,.57.26l.71.22c1,.31,1.91.64,2.84,1a65,65,0,0,1,10.8,5.27l0,.09c-3.66-1.62-7.33-3.12-11.09-4.42l-2.82-.95-.71-.23a3.35,3.35,0,0,1-.79-.37,2.28,2.28,0,0,1-.7-.63,1.21,1.21,0,0,1-.15-1.19,7.26,7.26,0,0,1,.92-1.35,3.66,3.66,0,0,1,.59-.59,2.3,2.3,0,0,1,.4-.26,1.4,1.4,0,0,1,.51-.14c1.12-.1,2.09.2,3,.08a5.2,5.2,0,0,1,2.26.59l2,.82,4,1.64L83,447.21l-1,.4-.49.21-.37.17a7.21,7.21,0,0,0-1.38.85,4.86,4.86,0,0,0-1.6,2.76Z"/><path class="cls-10" d="M65.41,476.65c-2.37-.9-4.7-1.92-7-3A35.68,35.68,0,0,1,55,472a25.42,25.42,0,0,1-3.16-2.14l0-.09a21.64,21.64,0,0,1,3.58,1.35c1.15.53,2.22,1.21,3.31,1.84,2.2,1.24,4.41,2.47,6.66,3.63Z"/><path class="cls-10" d="M263.69,490.18a130.12,130.12,0,0,0-21.63-8.13c-7.41-2.15-14.93-3.88-22.44-5.63q-22.56-5.25-45.17-10.18c-15.08-3.28-30.2-6.39-45.3-9.56l-45.33-9.44v-.1q22.83,3.94,45.52,8.56c15.13,3.05,30.21,6.37,45.27,9.76s30.1,6.87,45.11,10.49c7.5,1.8,15,3.59,22.42,5.8a130.63,130.63,0,0,1,21.58,8.34Z"/><path class="cls-10" d="M228.1,447a29,29,0,0,1-7.86,12.29,23.74,23.74,0,0,1-6.11,4.2c-1.13.51-2.32.91-3.47,1.3s-2.31.76-3.49,1.09l0-.09c1.07-.58,2.17-1.13,3.28-1.66s2.21-1,3.27-1.54a32.8,32.8,0,0,0,6-3.9A29.91,29.91,0,0,0,228,447Z"/><path class="cls-10" d="M208.33,472a12.4,12.4,0,0,1-1.32-8.61,11.94,11.94,0,0,1,.63-2.17,3.33,3.33,0,0,1,.64-1.1,1.41,1.41,0,0,1,.73-.41,1.19,1.19,0,0,1,.88.19,2.68,2.68,0,0,1,.82,1,8,8,0,0,1,.49,1,7.56,7.56,0,0,1,.53,2.18l-.1,0a17.88,17.88,0,0,0-1-1.88c-.19-.3-.4-.59-.61-.87a2.15,2.15,0,0,0-.6-.63c-.15-.05-.17-.05-.35.1a2.84,2.84,0,0,0-.47.77,10.6,10.6,0,0,0-.76,2,12.56,12.56,0,0,0,.63,8.38Z"/><path class="cls-10" d="M186.23,468a15.89,15.89,0,0,1-.89-3.81,7.38,7.38,0,0,1,0-2,3,3,0,0,1,1-1.81,8.86,8.86,0,0,1,3.73-1.42c1.27-.3,2.56-.54,3.86-.73a31.34,31.34,0,0,1,7.86-.29,29.76,29.76,0,0,1,7.64,1.81l0,.1a72.28,72.28,0,0,0-7.69-.92A49.25,49.25,0,0,0,194,459c-1.28.15-2.56.34-3.83.58a8.51,8.51,0,0,0-3.54,1.16c-1,.74-1.09,2.14-1,3.4a15.47,15.47,0,0,0,.67,3.8Z"/><path class="cls-10" d="M169.45,465q3.72-.72,7.46-1.37c1.25-.22,2.48-.5,3.75-.61a24.18,24.18,0,0,1,3.81-.06l0,.1a24.52,24.52,0,0,1-3.7.95,36.51,36.51,0,0,1-3.77.41c-2.52.26-5,.48-7.56.68Z"/><path class="cls-10" d="M278,460A324.62,324.62,0,0,1,278.3,507c-.52,7.84-1.25,15.68-2.45,23.45l-.22,1.45-.12.73-.06.37a4.5,4.5,0,0,1-.16.48,3.1,3.1,0,0,1-1.24,1.18,3.6,3.6,0,0,1-.71.35,6.39,6.39,0,0,1-.73.27,16,16,0,0,1-6,.45,36.14,36.14,0,0,1-11.35-3.22l0-.09a40.07,40.07,0,0,0,11.36,2.61,15.53,15.53,0,0,0,5.66-.59,3.86,3.86,0,0,0,2.11-1.38,1.72,1.72,0,0,1,.07-.21l.05-.36.1-.73.2-1.46c1.07-7.76,2-15.54,2.64-23.36a340,340,0,0,0,.41-47Z"/><path class="cls-10" d="M249.9,289.8a39.26,39.26,0,0,0-1.7-6c-.69-1.95-1.47-3.88-2.33-5.77a60,60,0,0,0-2.83-5.53l-.82-1.31-.88-1.27c-.32-.41-.65-.8-1-1.19a8.19,8.19,0,0,0-1.1-1,8.79,8.79,0,0,0-1.28-.83l-1.35-.77c-.91-.51-1.82-1-2.74-1.48q-2.76-1.44-5.58-2.74c-3.77-1.73-7.62-3.3-11.5-4.77-7.77-2.94-15.73-5.28-23.7-7.67-4-1.21-8-2.42-11.91-3.72l-3-1a22.11,22.11,0,0,0-3-.72c-1-.19-2-.35-3.07-.48-.51-.07-1-.12-1.54-.16a4.2,4.2,0,0,0-1.51.07l-.06-.07a3.87,3.87,0,0,1,1.57-.2c.53,0,1.05,0,1.57.07,1,.07,2.08.19,3.11.33a20.9,20.9,0,0,1,3.1.59l3,.88,12,3.44a248.15,248.15,0,0,1,23.69,7.89c3.88,1.51,7.73,3.13,11.49,4.91q2.83,1.35,5.58,2.83c.92.49,1.83,1,2.73,1.52l1.35.8a9.77,9.77,0,0,1,1.32.88,9.31,9.31,0,0,1,1.16,1.1c.33.41.66.82,1,1.24l.88,1.31.81,1.34a59.49,59.49,0,0,1,2.76,5.61q1.26,2.86,2.25,5.83a40.26,40.26,0,0,1,1.6,6Z"/><path class="cls-10" d="M49.47,296.94C52,289,54.91,281.18,59.25,274a43.33,43.33,0,0,1,3.61-5.12A23.33,23.33,0,0,1,65,266.61a15.27,15.27,0,0,1,1.24-1c.49-.32.92-.51,1.39-.78,3.64-2,7.3-4,11-5.84s7.45-3.71,11.28-5.36a123.85,123.85,0,0,1,11.73-4.34,112.31,112.31,0,0,1,12.13-3,105.81,105.81,0,0,1,12.39-1.51v.1c-4.11.56-8.21,1.19-12.26,2.1s-8,1.94-12,3.24-7.82,2.72-11.64,4.29-7.59,3.33-11.31,5.16-7.39,3.77-11.06,5.71a13.68,13.68,0,0,0-4.64,3.9,45,45,0,0,0-3.63,5c-4.41,7-7.46,14.81-10.1,22.67Z"/><path class="cls-10" d="M92.92,252.83a34,34,0,0,0,2.36,8.33,23.37,23.37,0,0,0,4.58,7.28,10.64,10.64,0,0,0,1.64,1.37,11.1,11.1,0,0,0,1.91,1,41,41,0,0,0,4.08,1.43c2.77.83,5.59,1.52,8.42,2.15s5.67,1.2,8.52,1.71,5.71,1,8.58,1.23c5.78.52,11.56,1,17.34,1.25,11.55.44,23.24-.31,34.3-3.65a77.42,77.42,0,0,0,15.9-6.72c1.24-.74,2.53-1.44,3.71-2.21a10.35,10.35,0,0,0,2.71-3.22,15,15,0,0,0,2.14-8.22l.09,0a14.91,14.91,0,0,1-1.83,8.46,10.91,10.91,0,0,1-2.76,3.48c-1.22.84-2.47,1.56-3.7,2.34a75,75,0,0,1-16,7.07c-11.19,3.51-23,4-34.62,3.48-5.81-.26-11.59-.81-17.37-1.38-2.91-.26-5.77-.8-8.63-1.32s-5.69-1.14-8.52-1.8-5.65-1.38-8.43-2.24c-1.38-.45-2.77-.9-4.11-1.49a10.16,10.16,0,0,1-3.62-2.46,23.76,23.76,0,0,1-4.55-7.42,34,34,0,0,1-2.27-8.4Z"/><path class="cls-10" d="M172.78,245.12a24.55,24.55,0,0,1,3.43.16c.56.06,1.13.13,1.7.23.28.05.56.1.84.17a3.25,3.25,0,0,1,.42.11,1,1,0,0,1,.45.24c.25.36-.18.8-.37,1a8.53,8.53,0,0,1-.77.7c-.53.43-1.09.83-1.65,1.22-1.14.76-2.3,1.48-3.52,2.13s-2.53,1-3.81,1.55-2.57.93-3.89,1.31a55.5,55.5,0,0,1-16.2,2.49,80.85,80.85,0,0,1-19.66-2.54c-1.61-.38-3.21-.79-4.81-1.21l-2.39-.64a7,7,0,0,1-2.27-1.25c-.34-.25-.67-.51-1-.79a3.17,3.17,0,0,1-.88-1,.67.67,0,0,1-.08-.42.74.74,0,0,1,.13-.41,1.08,1.08,0,0,1,.25-.3,1.09,1.09,0,0,1,.27-.21,4.88,4.88,0,0,1,1.18-.56,18.27,18.27,0,0,1,4.9-.81v.1a19,19,0,0,0-4.75,1.14,4.59,4.59,0,0,0-1,.55c-.31.23-.47.49-.34.69a2.91,2.91,0,0,0,.76.78c.31.25.64.48,1,.71a6.64,6.64,0,0,0,2.07,1l2.41.56,4.81,1.09c6.42,1.38,12.88,2.69,19.44,2.71a55.59,55.59,0,0,0,16.05-2.22c1.31-.35,2.58-.83,3.88-1.23s2.55-1,3.79-1.47a36.51,36.51,0,0,0,3.52-2c.56-.37,1.12-.75,1.66-1.17a6.68,6.68,0,0,0,.75-.66,2.64,2.64,0,0,0,.29-.34c.06-.11.13-.26,0-.36a.8.8,0,0,0-.29-.15l-.39-.11-.83-.19c-.56-.1-1.12-.19-1.68-.26a25.89,25.89,0,0,0-3.4-.23Z"/><path class="cls-10" d="M152.08,334.81a4.86,4.86,0,0,0,3.16.42,11.13,11.13,0,0,0,3.07-1.09,28.41,28.41,0,0,0,5.43-3.66,46.44,46.44,0,0,0,8.51-9.92c2.43-3.65,4.53-7.51,6.64-11.35s4.1-7.76,6-11.71a194.84,194.84,0,0,0,9.78-24.37c1.35-4.16,2.53-8.38,3.51-12.65.46-2.14.93-4.28,1.29-6.44a18,18,0,0,0,.44-3.23,2.22,2.22,0,0,0-.44-1.46,1.76,1.76,0,0,0-1.46-.43l0-.1a1.88,1.88,0,0,1,1.62.39,2.46,2.46,0,0,1,.59,1.59,19,19,0,0,1-.28,3.3c-.26,2.19-.66,4.36-1,6.53a131,131,0,0,1-3.24,12.8,163.74,163.74,0,0,1-10,24.42q-2.93,5.92-6.15,11.68c-2.16,3.82-4.31,7.67-6.8,11.3a46.72,46.72,0,0,1-8.72,9.89,29.24,29.24,0,0,1-5.54,3.6,10.82,10.82,0,0,1-3.13,1.06,5,5,0,0,1-3.24-.48Z"/><path class="cls-10" d="M153,359.86c-.22-5.45-.2-10.91.12-16.37.11-1.36.35-2.72.39-4.06a5.56,5.56,0,0,0-.24-1.95,3.45,3.45,0,0,0-1.09-1.58,6.41,6.41,0,0,0-.79-.58l-.89-.47c-.61-.31-1.23-.6-1.83-.93a38.29,38.29,0,0,1-3.52-2.13,41.33,41.33,0,0,1-11.23-11.89c-3-4.54-6-9.1-9-13.7a272.49,272.49,0,0,1-16.3-28.41c-2.37-4.93-4.53-10-6.42-15.08a72.65,72.65,0,0,1-2.51-7.82,11.88,11.88,0,0,1-.34-4.12,2.69,2.69,0,0,1,1-1.83,2.83,2.83,0,0,1,2-.39v.1a2.7,2.7,0,0,0-1.89.45,2.46,2.46,0,0,0-.81,1.71,11.52,11.52,0,0,0,.49,4,80.54,80.54,0,0,0,2.73,7.67q3,7.57,6.66,14.89c4.84,9.75,10.29,19.18,16.07,28.42q4.35,6.93,8.82,13.77a41.37,41.37,0,0,0,11,11.85,37,37,0,0,0,3.46,2.14c.58.33,1.2.63,1.8.94l.92.49a7.44,7.44,0,0,1,.84.64,3.93,3.93,0,0,1,1.18,1.76,6.14,6.14,0,0,1,.24,2.08c-.06,1.39-.32,2.73-.44,4.08-.39,5.43-.47,10.89-.34,16.34Z"/><path class="cls-10" d="M150.86,399.53a32,32,0,0,1-13.08-21.69,17.3,17.3,0,0,1,.22-6.53,14.06,14.06,0,0,1,1.2-3.08,16,16,0,0,1,1.91-2.7,19.75,19.75,0,0,1,11.44-6.1,11.88,11.88,0,0,1,6.61.54,9,9,0,0,1,4.53,4.89,19.88,19.88,0,0,1,1.42,6.46,30.61,30.61,0,0,1-.2,6.56,32.67,32.67,0,0,1-12.93,22l-.06-.08a34,34,0,0,0,12-22,32.21,32.21,0,0,0,.15-6.36,19.4,19.4,0,0,0-1.29-6.16,8,8,0,0,0-4-4.45,11.07,11.07,0,0,0-6.13-.57A19.11,19.11,0,0,0,141.6,366a15,15,0,0,0-1.86,2.55,13.51,13.51,0,0,0-1.18,2.93,16.82,16.82,0,0,0-.29,6.33,31.83,31.83,0,0,0,12.65,21.67Z"/><path class="cls-10" d="M264.28,535.3l-1.53-.37-.2,0-.06,0h.05s.09,0,0,0a2,2,0,0,0-.33-.14l-.74-.25-3-.93-6-1.86L240.36,528l-24.23-7.13c-16.16-4.71-32.35-9.35-48.49-14.16s-32.27-9.68-48.21-15.11-31.77-11.28-47.28-17.83l0-.09q23.58,9.06,47.56,17t48.13,15.3c16.11,4.88,32.27,9.63,48.4,14.44l24.18,7.31,12.06,3.75,6,1.9,3,1,.74.26a1.92,1.92,0,0,1,.39.17c.05.07-.16,0-.09,0l.18.05,1.54.38Z"/><path class="cls-10" d="M8.59,521.3a12.53,12.53,0,0,0,7,2.28,30.67,30.67,0,0,0,7.39-.76c4.85-1.11,9.67-2.39,14.47-3.73q14.39-4.05,28.35-9.38c4.63-1.8,9.23-3.75,13.85-5.63l3.46-1.42L84.8,502l1.76-.64c2.36-.83,4.73-1.62,7.13-2.32a282.2,282.2,0,0,1,29.2-6.55l0,.1C113.22,494.85,103.48,497,94,500c-2.38.73-4.73,1.52-7.07,2.34l-1.75.63-1.74.7L80,505c-4.63,1.83-9.24,3.7-13.92,5.45-9.35,3.51-18.87,6.52-28.5,9.12-4.82,1.28-9.66,2.5-14.54,3.55a29.66,29.66,0,0,1-7.46.66,12.57,12.57,0,0,1-7-2.41Z"/><path class="cls-10" d="M10.53,491.57a174.71,174.71,0,0,1,32.25-11.22,147.38,147.38,0,0,1,16.81-3.2,129.8,129.8,0,0,1,17.06-1v.1c-5.68.5-11.32,1.11-16.94,1.94s-11.22,1.75-16.76,3a184,184,0,0,0-32.39,10.53Z"/><path class="cls-10" d="M9.43,522.15a18.75,18.75,0,0,1-2.81-2.37,19.13,19.13,0,0,1-2.27-2.89,22.07,22.07,0,0,1-2.71-6.81,39.76,39.76,0,0,1-.21-14.63c.72-4.85,2-9.59,3.07-14.35l3.31-14.29c4.36-19.07,8.43-38.19,12.53-57.32s8.24-38.25,13.1-57.21,10.22-37.78,16.21-56.4l.1,0c-5.47,18.78-10.63,37.64-15.34,56.62s-9.08,38-13.29,57.13-8.36,38.22-12.83,57.26l-3.4,14.27C3.77,486,2.48,490.67,1.74,495.5A39.49,39.49,0,0,0,1.84,510a22,22,0,0,0,2.64,6.77,19.52,19.52,0,0,0,2.23,2.89,19.58,19.58,0,0,0,2.77,2.37Z"/><path class="cls-10" d="M101.06,582.81c-6.12.22-12.31.48-18.24,2.08a43,43,0,0,0-8.54,3.3c-2.73,1.36-5.37,3-8.42,3.82a8.69,8.69,0,0,1-4.69,0l-.64-.26-.21-.07c-.06,0-.15,0-.11-.13l.07-.42a3.4,3.4,0,0,1,.18-.66,5.62,5.62,0,0,1,.25-.56A10.42,10.42,0,0,1,62.14,588c1-1.12,2.17-2.25,2.26-3.67s-1-2.77-.81-4.52a4,4,0,0,1,1-2.22,10.48,10.48,0,0,1,1.8-1.55,25.35,25.35,0,0,0,3.62-2.72,2.16,2.16,0,0,0,.58-.8.58.58,0,0,0-.17-.66,8.14,8.14,0,0,0-.9-.61,2,2,0,0,1-.83-1.12,2.79,2.79,0,0,1,.76-2.47,4.19,4.19,0,0,1,2.24-1.12c.79-.17,1.55-.23,2.27-.39a8,8,0,0,0,2-.75,10.5,10.5,0,0,0,3.31-2.88,20.93,20.93,0,0,0,3.37-8.28c1.27-6,2.51-12,3.65-18a215.26,215.26,0,0,0,4.1-34.6h.19l0,1.91h-.1l-.06-1.92h.19a182.94,182.94,0,0,1-3.3,34.78c-1.09,6.06-2.34,12.07-3.68,18.08a21.54,21.54,0,0,1-3.63,8.61,11.45,11.45,0,0,1-3.62,3.08,9,9,0,0,1-2.27.81c-.79.16-1.55.21-2.27.37a3.34,3.34,0,0,0-1.84.87,2,2,0,0,0-.59,1.74,1.19,1.19,0,0,0,.52.69,7.25,7.25,0,0,1,1,.69,1.33,1.33,0,0,1,.35,1.44,2.85,2.85,0,0,1-.75,1.06,25,25,0,0,1-3.75,2.79c-1.21.85-2.44,1.87-2.6,3.29s.86,2.74.78,4.47a4.41,4.41,0,0,1-.92,2.26,20.33,20.33,0,0,1-1.53,1.76,9.39,9.39,0,0,0-1.37,1.76,5.27,5.27,0,0,0-.22.49,3.4,3.4,0,0,0-.14.44l0,.15c0,.06.07,0,.1.08l.43.17a8.25,8.25,0,0,0,4.41.07c3-.7,5.59-2.35,8.35-3.7a42.87,42.87,0,0,1,8.65-3.23c6-1.55,12.18-1.74,18.31-1.89Z"/><path class="cls-10" d="M240.77,586.17a50.62,50.62,0,0,0,5.63-.56c.93-.14,1.87-.3,2.78-.51a3.22,3.22,0,0,0,2.27-1.35,5.67,5.67,0,0,0,.69-2.63,4.47,4.47,0,0,0-1-2.49,28.43,28.43,0,0,0-4.1-3.86,17.84,17.84,0,0,1-3.62-4.44,7.65,7.65,0,0,1-.66-1.31,2.13,2.13,0,0,1,0-1.61,3.33,3.33,0,0,1,1.05-1.14,2.26,2.26,0,0,0,.79-.93c.25-.71-.35-1.52-1.06-2a9.19,9.19,0,0,0-2.56-.92,5.42,5.42,0,0,1-1.39-.6,2.35,2.35,0,0,1-.32-.23,3.57,3.57,0,0,1-.39-.39c-.49-.28.07-.66.21-.93l1.38-1.88-.14-.06-10.6-4.51a8.24,8.24,0,0,1-2.63-1.53,3.06,3.06,0,0,1-.87-1.46,3,3,0,0,1,.09-1.71,4.27,4.27,0,0,1,2.13-2.38,9.21,9.21,0,0,1,2.9-.84l.18,0s0,0,0,0v-.35c0-.48,0-1,0-1.43,0-.95-.09-1.9-.16-2.85q-.22-2.85-.65-5.69a64,64,0,0,0-2.64-11.16l.09,0a53.87,53.87,0,0,1,3.24,11.07c.36,1.9.63,3.81.83,5.73.1,1,.18,1.92.23,2.89,0,.48.05,1,.06,1.45l0,1c.11.33-.27.24-.47.3l-.54.09a9.09,9.09,0,0,0-2.59.77,3.31,3.31,0,0,0-1.63,1.81,1.92,1.92,0,0,0,.52,2.1,7.43,7.43,0,0,0,2.31,1.36l10.51,4.68,1.07.46-2,2.67c-.15.18-.12.14.3.47a4.93,4.93,0,0,0,1.21.53,9.67,9.67,0,0,1,2.73,1,3.72,3.72,0,0,1,1.08,1.12,2,2,0,0,1,.2,1.64,2.72,2.72,0,0,1-1,1.21,2.67,2.67,0,0,0-.88.9c-.33.7.17,1.59.61,2.39a17.56,17.56,0,0,0,3.46,4.36,27.94,27.94,0,0,1,4.09,4,4.8,4.8,0,0,1,1,2.72,4.68,4.68,0,0,1-.22,1.45,5.6,5.6,0,0,1-.56,1.34,3.49,3.49,0,0,1-2.47,1.45c-.93.19-1.87.34-2.81.46a48.88,48.88,0,0,1-5.66.46Z"/><path class="cls-10" d="M82.23,582.13l39.49.86c6.58.15,13.16.28,19.73.1,3.29-.1,6.57-.27,9.84-.58l9.81-1.07c6.55-.69,13.07-1.53,19.65-2.07s13.17-.79,19.77-.74,13.19.38,19.75,1a154.89,154.89,0,0,1,19.52,3.11l0,.1a184.14,184.14,0,0,0-19.56-2.51q-9.83-.78-19.69-.74c-6.57,0-13.14.24-19.69.72s-13.1,1.25-19.65,1.89l-9.83,1c-3.29.29-6.58.43-9.88.51-6.59.13-13.18-.06-19.76-.27l-39.48-1.25Z"/><path class="cls-10" d="M57.85,659.93c3.67-11.33,4.93-23.21,6.39-35,.72-5.9,1.43-11.82,2.67-17.66a82.89,82.89,0,0,1,5.39-17l.1,0a119.11,119.11,0,0,0-4.51,17.19c-1.11,5.81-2,11.68-2.85,17.56-1.64,11.75-3.15,23.66-7.1,34.92Z"/><path class="cls-10" d="M256.72,670.69q-3.17-22.4-7.52-44.59c-1.46-7.39-3.07-14.75-4.62-22.13l-4.71-22.12.09,0c2.09,7.25,3.91,14.57,5.59,21.93S248.63,618.53,250,626q4.08,22.26,6.83,44.73Z"/><path class="cls-10" d="M190.29,469.44l4.72-.61c1.58-.2,3.15-.42,4.73-.59l2.37-.28a12,12,0,0,1,2.42-.14,1.65,1.65,0,0,1,.34.08.57.57,0,0,1,.34.34,1.86,1.86,0,0,1,.06.67l0,1.19c0,.8-.06,1.59-.12,2.39,0,0,0,0,0,0l0,0c-.08-.8-.14-1.59-.18-2.38l-.06-1.19a1.59,1.59,0,0,0-.05-.5c0-.06-.1-.08-.31-.1a18.61,18.61,0,0,0-2.32.14l-2.37.18c-1.58.11-3.16.28-4.74.42l-4.74.43s0,0,0,0S190.28,469.44,190.29,469.44Z"/><path class="cls-10" d="M204.78,461.94a39.83,39.83,0,0,0-15.24,1.1l-.61.17-.42.12-.07.41c0,.21-.05.42-.07.62a10.45,10.45,0,0,0-.05,1.25c0,.2,0,.41,0,.62l0,.15s0,.06,0,.06l2.25,0,2.56-.07c1.7-.07,3.41-.16,5.11-.26s3.41-.23,5.12-.38a5.63,5.63,0,0,0,1.13-.15c.2-.08.24-.53.27-1a21.8,21.8,0,0,0,0-2.56h.1a17.15,17.15,0,0,1,.31,2.58c0,.22,0,.43,0,.68a1.09,1.09,0,0,1-.39.75,1.66,1.66,0,0,1-.74.25l-.63.12c-1.7.29-3.41.51-5.13.68s-3.44.23-5.17.25l-2.59,0-2.89-.05c-.13,0-.08-.12-.11-.2l0-.28,0-.48c0-.23,0-.45,0-.67a11.87,11.87,0,0,1,.08-1.33c0-.22.06-.43.1-.65l.07-.33c0-.17.07-.35.11-.52l.83-.22.63-.16a40.1,40.1,0,0,1,5.11-.87,39,39,0,0,1,10.3.31Z"/><path class="cls-10" d="M165.16,191.18c.75,13.68,1.9,27.3,3.21,40.93.29,3.41.52,6.84.75,10.24.16,1,.17,2.4,1.07,3.06.06,0,0,.12,0,.09-1.06-.62-1.14-2-1.39-3.1-.47-3.4-.93-6.78-1.33-10.19-1.38-13.52-2.15-27.74-2.27-41Z"/><path class="cls-10" d="M125.85,186.23a458.83,458.83,0,0,1,1,46.62c-.11,2.59-.17,5.18-.31,7.77a27.16,27.16,0,0,1-.54,5.83,2.18,2.18,0,0,1-1.16,1.57s-.09-.07,0-.1a2.06,2.06,0,0,0,.93-1.54c.5-4.46,0-9,.14-13.55.36-15.44.59-31.46,0-46.6Z"/></g></g></g></svg>
